<svg width="449" height="640" viewBox="0 0 449 640" fill="none" xmlns="http://www.w3.org/2000/svg">
<rect x="3" y="3" width="443" height="634" rx="37" fill="#000411" stroke="#E1EFE6" stroke-width="6"/>
<path d="M134.84 476V441.74C134.84 439.78 135.14 438.14 135.74 436.82C136.34 435.5 137.14 434.46 138.14 433.7C139.14 432.94 140.24 432.4 141.44 432.08C142.64 431.76 143.82 431.6 144.98 431.6C146.42 431.6 148.2 431.62 150.32 431.66C152.48 431.66 154.76 431.72 157.16 431.84C159.6 431.96 161.94 432.14 164.18 432.38V439.82H147.44C146.2 439.82 145.26 440.16 144.62 440.84C144.02 441.48 143.72 442.34 143.72 443.42V450.98L161.3 451.46V458.48L143.72 458.96V476H134.84ZM169.82 476V431.6H178.7V476H169.82ZM199.003 476.3C196.203 476.3 193.903 475.78 192.103 474.74C190.343 473.66 188.963 472.14 187.963 470.18C186.963 468.18 186.263 465.8 185.863 463.04C185.463 460.28 185.263 457.2 185.263 453.8C185.263 450.24 185.483 447.06 185.923 444.26C186.403 441.46 187.223 439.1 188.383 437.18C189.583 435.22 191.243 433.74 193.363 432.74C195.523 431.7 198.283 431.18 201.643 431.18C203.683 431.18 205.543 431.26 207.223 431.42C208.943 431.58 210.563 431.82 212.083 432.14C213.603 432.42 215.123 432.76 216.643 433.16V440C215.803 439.88 214.683 439.76 213.283 439.64C211.883 439.52 210.323 439.42 208.603 439.34C206.883 439.22 205.103 439.16 203.263 439.16C200.743 439.16 198.823 439.62 197.503 440.54C196.223 441.42 195.343 442.94 194.863 445.1C194.383 447.22 194.143 450.14 194.143 453.86C194.143 456.74 194.263 459.1 194.503 460.94C194.783 462.78 195.223 464.24 195.823 465.32C196.423 466.36 197.203 467.1 198.163 467.54C199.163 467.94 200.383 468.14 201.823 468.14C203.463 468.14 205.023 468 206.503 467.72C208.023 467.44 209.243 467.16 210.163 466.88V458.24H202.183V451.22C203.023 451.1 204.023 451 205.183 450.92C206.343 450.84 207.543 450.78 208.783 450.74C210.063 450.66 211.283 450.62 212.443 450.62C213.723 450.62 214.863 450.64 215.863 450.68C216.903 450.68 217.843 450.72 218.683 450.8V476H212.023L210.823 473C209.663 473.68 208.023 474.4 205.903 475.16C203.783 475.92 201.483 476.3 199.003 476.3ZM225.163 476L230.323 431.6H238.843L249.043 465.62L259.183 431.6H267.643L272.863 476H264.283L260.443 443.3L261.823 443.42L253.123 476H244.783L235.963 443.42L237.463 443.36L233.743 476H225.163ZM276.512 476L290.432 431.6H301.652L315.572 476H306.332L303.512 466.7H288.392L285.632 476H276.512ZM290.492 458.72H301.412L295.952 439.22L290.492 458.72Z" fill="#E1EFE6"/>
<g clip-path="url(#clip0_290_51)">
<path d="M186.259 366C212.336 366 233.5 344.869 233.5 318.833V271.667H186.259C160.183 271.667 139.019 292.797 139.019 318.833C139.019 344.869 160.183 366 186.259 366Z" fill="#0ACF83"/>
<path d="M139.019 224.5C139.019 198.464 160.183 177.333 186.259 177.333H233.5V271.667H186.259C160.183 271.667 139.019 250.536 139.019 224.5Z" fill="#A259FF"/>
<path d="M139.019 130.167C139.019 104.131 160.183 83 186.259 83H233.5V177.333H186.259C160.183 177.333 139.019 156.203 139.019 130.167Z" fill="#F24E1E"/>
<path d="M233.5 83H280.741C306.817 83 327.981 104.131 327.981 130.167C327.981 156.203 306.817 177.333 280.741 177.333H233.5V83Z" fill="#FF7262"/>
<path d="M327.981 224.5C327.981 250.536 306.817 271.667 280.741 271.667C254.664 271.667 233.5 250.536 233.5 224.5C233.5 198.464 254.664 177.333 280.741 177.333C306.817 177.333 327.981 198.464 327.981 224.5Z" fill="#1ABCFE"/>
</g>
<defs>
<clipPath id="clip0_290_51">
<rect width="189" height="283" fill="white" transform="translate(139 83)"/>
</clipPath>
</defs>
</svg>
