<svg width="1500" height="1250" viewBox="0 0 1500 1250" fill="none" xmlns="http://www.w3.org/2000/svg">
<path d="M534.536 735.184C534.536 735.184 556.834 754.642 559.277 818.214V848.673L490.563 856.653L491.932 834.304L534.536 735.184Z" fill="#EFCB68"/>
<g opacity="0.2">
<path d="M534.536 735.184C534.536 735.184 556.834 754.642 559.277 818.214V848.673L490.563 856.653L491.932 834.304L534.536 735.184Z" fill="black"/>
</g>
<path d="M1242.17 36.9569H692.565C682.977 36.9569 675.204 45.1685 675.204 55.2981V1194.72C675.204 1204.85 682.977 1213.06 692.565 1213.06H1242.17C1251.76 1213.06 1259.53 1204.85 1259.53 1194.72V55.2981C1259.53 45.1685 1251.76 36.9569 1242.17 36.9569Z" fill="#000411"/>
<path d="M977.038 83.963C977.038 85.9831 976.471 87.9579 975.408 89.6375C974.346 91.3172 972.836 92.6264 971.07 93.3994C969.303 94.1725 967.359 94.3748 965.484 93.9807C963.608 93.5865 961.886 92.6138 960.534 91.1853C959.182 89.7569 958.261 87.9369 957.888 85.9556C957.515 83.9743 957.706 81.9206 958.438 80.0543C959.17 78.1879 960.409 76.5927 961.999 75.4704C963.589 74.3481 965.458 73.749 967.37 73.749C969.934 73.749 972.393 74.8251 974.206 76.7406C976.019 78.6561 977.038 81.2541 977.038 83.963Z" fill="#EFCB68" stroke="#1A2E35" stroke-linecap="round" stroke-linejoin="round"/>
<path d="M1075.66 88.2097L1069.66 102.853C1067.55 107.968 1064.06 112.318 1059.63 115.365C1055.2 118.413 1050.03 120.026 1044.75 120.005H889.854C884.579 120.005 879.418 118.377 875.007 115.32C870.596 112.263 867.127 107.911 865.026 102.798L859.031 88.1548C856.926 83.0423 853.453 78.6906 849.039 75.634C844.626 72.5774 839.463 70.9489 834.186 70.9485H727.147C724.559 70.9485 721.996 71.4874 719.605 72.5345C717.213 73.5815 715.041 75.1162 713.211 77.0507C711.382 78.9853 709.931 81.2818 708.942 83.8089C707.953 86.3361 707.445 89.0444 707.448 91.7791V1158.18C707.448 1163.7 709.523 1169 713.218 1172.9C716.912 1176.8 721.923 1179 727.147 1179H1207.61C1212.83 1179 1217.84 1176.8 1221.54 1172.9C1225.23 1169 1227.31 1163.7 1227.31 1158.18V91.834C1227.31 89.0993 1226.8 86.391 1225.81 83.8639C1224.83 81.3367 1223.37 79.0402 1221.55 77.1056C1219.72 75.1711 1217.54 73.6365 1215.15 72.5894C1212.76 71.5423 1210.2 71.0034 1207.61 71.0034H1100.48C1095.21 71.0074 1090.05 72.6376 1085.64 75.694C1081.23 78.7503 1077.76 83.1001 1075.66 88.2097Z" fill="#EFCB68"/>
<mask id="mask0_171_321" style="mask-type:luminance" maskUnits="userSpaceOnUse" x="707" y="70" width="521" height="1109">
<path d="M1075.66 88.2097L1069.66 102.853C1067.55 107.968 1064.06 112.318 1059.63 115.365C1055.2 118.413 1050.03 120.026 1044.75 120.005H889.854C884.579 120.005 879.418 118.377 875.007 115.32C870.596 112.263 867.127 107.911 865.026 102.798L859.031 88.1548C856.926 83.0423 853.453 78.6906 849.039 75.634C844.626 72.5774 839.463 70.9489 834.186 70.9485H727.147C724.559 70.9485 721.996 71.4874 719.605 72.5345C717.213 73.5815 715.041 75.1162 713.211 77.0507C711.382 78.9853 709.931 81.2818 708.942 83.8089C707.953 86.3361 707.445 89.0444 707.448 91.7791V1158.18C707.448 1163.7 709.523 1169 713.218 1172.9C716.912 1176.8 721.923 1179 727.147 1179H1207.61C1212.83 1179 1217.84 1176.8 1221.54 1172.9C1225.23 1169 1227.31 1163.7 1227.31 1158.18V91.834C1227.31 89.0993 1226.8 86.391 1225.81 83.8639C1224.83 81.3367 1223.37 79.0402 1221.55 77.1056C1219.72 75.1711 1217.54 73.6365 1215.15 72.5894C1212.76 71.5423 1210.2 71.0034 1207.61 71.0034H1100.48C1095.21 71.0074 1090.05 72.6376 1085.64 75.694C1081.23 78.7503 1077.76 83.1001 1075.66 88.2097Z" fill="white"/>
</mask>
<g mask="url(#mask0_171_321)">
<path opacity="0.24" d="M1075.66 88.2097L1069.66 102.853C1067.55 107.968 1064.06 112.318 1059.63 115.365C1055.2 118.413 1050.03 120.026 1044.75 120.005H889.854C884.579 120.005 879.418 118.377 875.007 115.32C870.596 112.263 867.127 107.911 865.026 102.798L859.031 88.1548C856.926 83.0423 853.453 78.6906 849.039 75.634C844.626 72.5774 839.463 70.9489 834.186 70.9485H727.147C724.559 70.9485 721.996 71.4874 719.605 72.5345C717.213 73.5815 715.041 75.1162 713.211 77.0507C711.382 78.9853 709.931 81.2818 708.942 83.8089C707.953 86.3361 707.445 89.0444 707.448 91.7791V1158.18C707.448 1163.7 709.523 1169 713.218 1172.9C716.912 1176.8 721.923 1179 727.147 1179H1207.61C1212.83 1179 1217.84 1176.8 1221.54 1172.9C1225.23 1169 1227.31 1163.7 1227.31 1158.18V91.834C1227.31 89.0993 1226.8 86.391 1225.81 83.8639C1224.83 81.3367 1223.37 79.0402 1221.55 77.1056C1219.72 75.1711 1217.54 73.6365 1215.15 72.5894C1212.76 71.5423 1210.2 71.0034 1207.61 71.0034H1100.48C1095.21 71.0074 1090.05 72.6376 1085.64 75.694C1081.23 78.7503 1077.76 83.1001 1075.66 88.2097Z" fill="#EFCB68"/>
</g>
<path d="M1203.33 146.235H731.409C727.075 146.235 723.561 149.948 723.561 154.527V231.681C723.561 236.26 727.075 239.973 731.409 239.973H1203.33C1207.66 239.973 1211.18 236.26 1211.18 231.681V154.527C1211.18 149.948 1207.66 146.235 1203.33 146.235Z" fill="white"/>
<path d="M982.963 196.683C984.764 194.771 986.012 192.356 986.559 189.72C987.106 187.085 986.929 184.34 986.05 181.808C985.171 179.275 983.625 177.06 981.595 175.424C979.565 173.787 977.136 172.797 974.591 172.569C972.047 172.341 969.494 172.886 967.233 174.139C964.971 175.391 963.095 177.3 961.825 179.641C960.556 181.981 959.945 184.656 960.064 187.35C960.184 190.045 961.029 192.648 962.501 194.852C962.179 194.984 961.889 195.19 961.652 195.456L948.606 209.239C948.345 209.48 948.133 209.775 947.984 210.106C947.836 210.437 947.753 210.796 947.741 211.162C947.729 211.528 947.789 211.893 947.916 212.234C948.043 212.574 948.235 212.884 948.48 213.143C948.725 213.402 949.018 213.605 949.341 213.739C949.663 213.873 950.008 213.936 950.355 213.924C950.701 213.911 951.042 213.824 951.355 213.667C951.668 213.51 951.947 213.286 952.175 213.01L965.221 199.227C965.465 198.966 965.654 198.655 965.776 198.312C968.363 200.224 971.506 201.109 974.651 200.811C977.795 200.513 980.739 199.051 982.963 196.683ZM966.347 194.193C964.937 192.703 963.976 190.805 963.587 188.738C963.198 186.672 963.398 184.53 964.161 182.583C964.924 180.636 966.216 178.972 967.875 177.802C969.533 176.631 971.483 176.006 973.477 176.006C975.471 176.006 977.421 176.631 979.079 177.802C980.738 178.972 982.03 180.636 982.793 182.583C983.556 184.53 983.756 186.672 983.367 188.738C982.978 190.805 982.017 192.703 980.607 194.193C979.671 195.184 978.56 195.971 977.337 196.507C976.113 197.044 974.802 197.32 973.477 197.32C972.152 197.32 970.841 197.044 969.617 196.507C968.394 195.971 967.283 195.184 966.347 194.193Z" fill="#000411"/>
<path d="M802.185 174.149H750.052C749.602 174.164 749.154 174.083 748.734 173.911C748.314 173.74 747.931 173.48 747.608 173.149C747.285 172.818 747.028 172.421 746.852 171.983C746.677 171.545 746.587 171.074 746.587 170.598C746.587 169.627 746.952 168.696 747.602 168.01C748.252 167.323 749.133 166.938 750.052 166.938H802.185C802.636 166.937 803.081 167.033 803.496 167.218C803.911 167.403 804.286 167.675 804.6 168.016C804.913 168.358 805.159 168.762 805.321 169.206C805.484 169.649 805.561 170.123 805.547 170.598C805.547 171.54 805.193 172.443 804.562 173.109C803.932 173.775 803.077 174.149 802.185 174.149Z" fill="#000411"/>
<path d="M795.428 194.559H750.052C749.133 194.559 748.252 194.173 747.602 193.487C746.952 192.8 746.587 191.869 746.587 190.898C746.587 190.423 746.677 189.952 746.852 189.513C747.028 189.075 747.285 188.679 747.608 188.348C747.931 188.016 748.314 187.757 748.734 187.585C749.154 187.413 749.602 187.332 750.052 187.347H795.428C795.871 187.345 796.31 187.435 796.72 187.612C797.13 187.79 797.502 188.051 797.816 188.381C798.13 188.711 798.379 189.103 798.549 189.535C798.719 189.967 798.807 190.43 798.807 190.898C798.807 191.854 798.454 192.771 797.823 193.455C797.192 194.139 796.332 194.535 795.428 194.559Z" fill="#000411"/>
<path d="M788.689 214.95H750.052C749.602 214.965 749.154 214.884 748.734 214.712C748.314 214.54 747.931 214.281 747.608 213.95C747.285 213.619 747.028 213.222 746.852 212.784C746.677 212.346 746.587 211.875 746.587 211.399C746.61 210.444 746.985 209.537 747.632 208.87C748.279 208.203 749.148 207.83 750.052 207.83H788.689C789.593 207.83 790.461 208.203 791.109 208.87C791.756 209.537 792.131 210.444 792.154 211.399C792.154 211.875 792.064 212.346 791.888 212.784C791.713 213.222 791.456 213.619 791.133 213.95C790.81 214.281 790.427 214.54 790.007 214.712C789.587 214.884 789.139 214.965 788.689 214.95Z" fill="#000411"/>
<path d="M1203.33 267.722H731.409C727.075 267.722 723.561 271.435 723.561 276.014V550.18C723.561 554.76 727.075 558.472 731.409 558.472H1203.33C1207.66 558.472 1211.18 554.76 1211.18 550.18V276.014C1211.18 271.435 1207.66 267.722 1203.33 267.722Z" fill="white"/>
<path d="M1149.88 304.277H784.877V521.918H1149.88V304.277Z" fill="#000411"/>
<path opacity="0.2" d="M1038.72 436.161H814.937C813.333 436.161 811.795 435.488 810.661 434.29C809.527 433.092 808.89 431.467 808.89 429.773C808.89 428.078 809.527 426.454 810.661 425.255C811.795 424.057 813.333 423.384 814.937 423.384H1038.72C1040.32 423.384 1041.86 424.057 1042.99 425.255C1044.13 426.454 1044.76 428.078 1044.76 429.773C1044.76 431.467 1044.13 433.092 1042.99 434.29C1041.86 435.488 1040.32 436.161 1038.72 436.161Z" fill="black"/>
<path opacity="0.2" d="M1021.1 462.977H814.92C813.316 462.977 811.778 462.304 810.644 461.106C809.51 459.908 808.873 458.283 808.873 456.589C808.873 454.895 809.51 453.27 810.644 452.072C811.778 450.874 813.316 450.201 814.92 450.201H1021.1C1022.7 450.201 1024.24 450.874 1025.37 452.072C1026.51 453.27 1027.14 454.895 1027.14 456.589C1027.14 458.282 1026.5 459.904 1025.37 461.101C1024.23 462.298 1022.7 462.972 1021.1 462.977Z" fill="black"/>
<path d="M926.827 498.872C926.827 499.959 926.523 501.02 925.951 501.923C925.38 502.826 924.569 503.53 923.619 503.946C922.669 504.361 921.624 504.47 920.616 504.258C919.607 504.046 918.681 503.523 917.954 502.755C917.227 501.987 916.732 501.009 916.532 499.944C916.331 498.879 916.434 497.774 916.828 496.771C917.221 495.768 917.887 494.91 918.742 494.307C919.597 493.703 920.602 493.381 921.63 493.381C923.008 493.381 924.33 493.96 925.305 494.989C926.28 496.019 926.827 497.416 926.827 498.872Z" fill="white"/>
<path d="M957.355 498.872C957.355 499.959 957.051 501.02 956.479 501.923C955.908 502.826 955.097 503.53 954.147 503.946C953.197 504.361 952.152 504.47 951.144 504.258C950.135 504.046 949.209 503.523 948.482 502.755C947.755 501.987 947.26 501.009 947.06 499.944C946.859 498.879 946.962 497.774 947.356 496.771C947.749 495.768 948.415 494.91 949.27 494.307C950.125 493.703 951.13 493.381 952.158 493.381C953.536 493.381 954.858 493.96 955.833 494.989C956.808 496.019 957.355 497.416 957.355 498.872Z" fill="white"/>
<path d="M987.866 498.872C987.866 499.959 987.561 501.02 986.99 501.923C986.419 502.826 985.607 503.53 984.658 503.946C983.708 504.361 982.663 504.47 981.654 504.258C980.646 504.046 979.72 503.523 978.993 502.755C978.266 501.987 977.771 501.009 977.571 499.944C977.37 498.879 977.473 497.774 977.866 496.771C978.26 495.768 978.926 494.91 979.781 494.307C980.635 493.703 981.64 493.381 982.668 493.381C984.047 493.381 985.369 493.96 986.344 494.989C987.319 496.019 987.866 497.416 987.866 498.872Z" fill="white"/>
<path d="M1018.39 498.872C1018.39 499.959 1018.09 501.02 1017.52 501.923C1016.95 502.826 1016.14 503.53 1015.19 503.946C1014.24 504.361 1013.19 504.47 1012.18 504.258C1011.17 504.046 1010.25 503.523 1009.52 502.755C1008.79 501.987 1008.3 501.009 1008.1 499.944C1007.9 498.879 1008 497.774 1008.39 496.771C1008.79 495.768 1009.45 494.91 1010.31 494.307C1011.16 493.703 1012.17 493.381 1013.2 493.381C1014.57 493.381 1015.9 493.96 1016.87 494.989C1017.85 496.019 1018.39 497.416 1018.39 498.872Z" fill="white"/>
<path d="M1170.03 439.932C1169.27 439.93 1168.53 439.701 1167.88 439.271C1167.24 438.842 1166.73 438.23 1166.4 437.505C1166.07 436.78 1165.94 435.972 1166.03 435.174C1166.12 434.376 1166.42 433.62 1166.89 432.994L1182.18 413.097L1166.89 393.2C1166.22 392.324 1165.9 391.201 1166.02 390.079C1166.13 388.956 1166.65 387.926 1167.48 387.215C1168.31 386.503 1169.38 386.169 1170.44 386.286C1171.5 386.403 1172.48 386.961 1173.15 387.837L1190.47 410.425C1191.06 411.181 1191.38 412.129 1191.38 413.106C1191.38 414.084 1191.06 415.032 1190.47 415.788L1173.15 438.358C1172.77 438.851 1172.3 439.25 1171.76 439.522C1171.22 439.795 1170.63 439.935 1170.03 439.932Z" fill="#000411"/>
<path d="M764.727 439.932C764.126 439.935 763.532 439.795 762.989 439.523C762.446 439.25 761.968 438.852 761.591 438.358L744.265 415.788C743.684 415.029 743.367 414.082 743.367 413.106C743.367 412.13 743.684 411.184 744.265 410.425L761.591 387.837C762.264 386.961 763.239 386.403 764.302 386.286C765.364 386.169 766.427 386.503 767.257 387.215C768.086 387.926 768.614 388.956 768.724 390.079C768.835 391.201 768.519 392.324 767.846 393.2L752.564 413.097L767.846 432.994C768.321 433.619 768.62 434.373 768.709 435.169C768.798 435.966 768.672 436.772 768.346 437.497C768.021 438.221 767.508 438.834 766.868 439.264C766.228 439.695 765.486 439.926 764.727 439.932Z" fill="#000411"/>
<path d="M823.236 592.866H745.617C737.895 592.866 731.635 599.48 731.635 607.638V689.643C731.635 697.801 737.895 704.414 745.617 704.414H823.236C830.958 704.414 837.218 697.801 837.218 689.643V607.638C837.218 599.48 830.958 592.866 823.236 592.866Z" fill="#000411"/>
<path opacity="0.5" d="M784.409 682.998C775.792 682.988 767.531 679.364 761.442 672.921C755.353 666.478 751.936 657.744 751.94 648.64C751.94 639.531 755.364 630.795 761.459 624.352C767.554 617.909 775.822 614.287 784.444 614.283C793.069 614.283 801.34 617.902 807.439 624.346C813.538 630.789 816.964 639.528 816.964 648.64C816.964 653.155 816.122 657.626 814.485 661.797C812.849 665.968 810.45 669.757 807.427 672.948C804.403 676.139 800.814 678.669 796.865 680.393C792.915 682.118 788.683 683.003 784.409 682.998Z" fill="white"/>
<path d="M831.154 738.058H737.595C735.991 738.058 734.453 737.385 733.319 736.187C732.185 734.989 731.548 733.364 731.548 731.67C731.548 729.975 732.185 728.351 733.319 727.153C734.453 725.955 735.991 725.281 737.595 725.281H831.154C832.758 725.281 834.296 725.955 835.43 727.153C836.564 728.351 837.201 729.975 837.201 731.67C837.201 733.364 836.564 734.989 835.43 736.187C834.296 737.385 832.758 738.058 831.154 738.058Z" fill="#000411"/>
<path d="M1203.33 780.891H731.409C727.075 780.891 723.561 784.603 723.561 789.183V934.1C723.561 938.679 727.075 942.392 731.409 942.392H1203.33C1207.66 942.392 1211.18 938.679 1211.18 934.1V789.183C1211.18 784.603 1207.66 780.891 1203.33 780.891Z" fill="white"/>
<path d="M906.313 806.426H747.748V916.839H906.313V806.426Z" fill="#000411"/>
<path d="M1154.54 819.55H930.76C929.156 819.55 927.618 818.877 926.484 817.679C925.35 816.481 924.713 814.856 924.713 813.162C924.713 811.467 925.35 809.843 926.484 808.645C927.618 807.446 929.156 806.773 930.76 806.773H1154.54C1156.14 806.773 1157.68 807.446 1158.82 808.645C1159.95 809.843 1160.59 811.467 1160.59 813.162C1160.59 814.856 1159.95 816.481 1158.82 817.679C1157.68 818.877 1156.14 819.55 1154.54 819.55Z" fill="#000411"/>
<path d="M1136.92 846.366H930.743C929.139 846.366 927.601 845.693 926.467 844.495C925.333 843.297 924.696 841.672 924.696 839.978C924.696 838.284 925.333 836.659 926.467 835.461C927.601 834.263 929.139 833.59 930.743 833.59H1136.92C1138.52 833.59 1140.06 834.263 1141.2 835.461C1142.33 836.659 1142.97 838.284 1142.97 839.978C1142.97 841.672 1142.33 843.297 1141.2 844.495C1140.06 845.693 1138.52 846.366 1136.92 846.366Z" fill="#000411"/>
<path d="M1148.49 873.127H930.76C929.156 873.127 927.618 872.454 926.484 871.256C925.35 870.058 924.713 868.433 924.713 866.739C924.713 865.045 925.35 863.42 926.484 862.222C927.618 861.024 929.156 860.351 930.76 860.351H1148.49C1150.1 860.351 1151.64 861.024 1152.77 862.222C1153.9 863.42 1154.54 865.045 1154.54 866.739C1154.54 868.433 1153.9 870.058 1152.77 871.256C1151.64 872.454 1150.1 873.127 1148.49 873.127Z" fill="#000411"/>
<path d="M1110.22 899.998H930.76C929.156 899.998 927.618 899.325 926.484 898.127C925.35 896.929 924.713 895.304 924.713 893.61C924.713 891.916 925.35 890.291 926.484 889.093C927.618 887.895 929.156 887.222 930.76 887.222H1110.22C1111.82 887.222 1113.36 887.895 1114.5 889.093C1115.63 890.291 1116.27 891.916 1116.27 893.61C1116.27 895.304 1115.63 896.929 1114.5 898.127C1113.36 899.325 1111.82 899.998 1110.22 899.998Z" fill="#000411"/>
<path d="M1067.03 592.866H989.408C981.686 592.866 975.426 599.48 975.426 607.638V689.643C975.426 697.801 981.686 704.414 989.408 704.414H1067.03C1074.75 704.414 1081.01 697.801 1081.01 689.643V607.638C1081.01 599.48 1074.75 592.866 1067.03 592.866Z" fill="#000411"/>
<path opacity="0.5" d="M1028.22 682.998C1019.59 682.998 1011.32 679.378 1005.22 672.935C999.124 666.491 995.698 657.752 995.698 648.64C995.702 639.529 999.13 630.793 1005.23 624.351C1011.33 617.909 1019.59 614.287 1028.22 614.283C1036.84 614.283 1045.11 617.902 1051.21 624.346C1057.31 630.789 1060.74 639.528 1060.74 648.64C1060.74 657.752 1057.31 666.491 1051.21 672.935C1045.11 679.378 1036.84 682.998 1028.22 682.998Z" fill="white"/>
<path d="M1074.96 738.058H981.404C979.8 738.058 978.262 737.385 977.128 736.187C975.994 734.989 975.357 733.364 975.357 731.67C975.357 729.975 975.994 728.351 977.128 727.153C978.262 725.955 979.8 725.281 981.404 725.281H1074.96C1076.57 725.281 1078.1 725.955 1079.24 727.153C1080.37 728.351 1081.01 729.975 1081.01 731.67C1081.01 733.364 1080.37 734.989 1079.24 736.187C1078.1 737.385 1076.57 738.058 1074.96 738.058Z" fill="#000411"/>
<path d="M1188.93 592.866H1111.31C1103.59 592.866 1097.33 599.48 1097.33 607.638V689.643C1097.33 697.801 1103.59 704.414 1111.31 704.414H1188.93C1196.65 704.414 1202.91 697.801 1202.91 689.643V607.638C1202.91 599.48 1196.65 592.866 1188.93 592.866Z" fill="#000411"/>
<path opacity="0.5" d="M1150.12 682.998C1141.5 682.998 1133.23 679.378 1127.13 672.935C1121.03 666.491 1117.6 657.752 1117.6 648.64C1117.61 639.529 1121.03 630.793 1127.13 624.351C1133.23 617.909 1141.5 614.287 1150.12 614.283C1158.75 614.283 1167.02 617.902 1173.12 624.346C1179.22 630.789 1182.64 639.528 1182.64 648.64C1182.64 657.752 1179.22 666.491 1173.12 672.935C1167.02 679.378 1158.75 682.998 1150.12 682.998Z" fill="white"/>
<path d="M1196.87 738.058H1103.31C1101.7 738.058 1100.17 737.385 1099.03 736.187C1097.9 734.989 1097.26 733.364 1097.26 731.67C1097.26 729.975 1097.9 728.351 1099.03 727.153C1100.17 725.955 1101.7 725.281 1103.31 725.281H1196.87C1198.47 725.281 1200.01 725.955 1201.14 727.153C1202.28 728.351 1202.91 729.975 1202.91 731.67C1202.91 733.364 1202.28 734.989 1201.14 736.187C1200.01 737.385 1198.47 738.058 1196.87 738.058Z" fill="#000411"/>
<path d="M945.141 592.866H867.521C859.799 592.866 853.539 599.48 853.539 607.638V689.643C853.539 697.801 859.799 704.414 867.521 704.414H945.141C952.863 704.414 959.123 697.801 959.123 689.643V607.638C959.123 599.48 952.863 592.866 945.141 592.866Z" fill="#000411"/>
<path d="M953.059 738.058H859.499C858.706 738.058 857.92 737.893 857.188 737.571C856.455 737.25 855.79 736.779 855.23 736.186C854.669 735.592 854.226 734.888 853.924 734.113C853.622 733.338 853.467 732.508 853.47 731.67C853.467 730.832 853.622 730.001 853.924 729.226C854.226 728.452 854.669 727.747 855.23 727.154C855.79 726.56 856.455 726.089 857.188 725.768C857.92 725.447 858.706 725.281 859.499 725.281H953.059C954.662 725.281 956.2 725.955 957.334 727.153C958.468 728.351 959.105 729.975 959.105 731.67C959.105 733.364 958.468 734.989 957.334 736.187C956.2 737.385 954.662 738.058 953.059 738.058Z" fill="#000411"/>
<path opacity="0.5" d="M906.314 682.998C897.689 682.998 889.417 679.378 883.318 672.935C877.219 666.491 873.793 657.752 873.793 648.64C873.798 639.529 877.225 630.793 883.323 624.351C889.421 617.909 897.69 614.287 906.314 614.283C914.939 614.283 923.21 617.902 929.309 624.346C935.408 630.789 938.834 639.528 938.834 648.64C938.834 657.752 935.408 666.491 929.309 672.935C923.21 679.378 914.939 682.998 906.314 682.998Z" fill="white"/>
<path d="M640.622 971.826C640.622 971.826 658.26 966.06 664.48 968.165L699.235 985.334C699.235 985.334 702.25 988.757 695.129 990.222C688.615 991.576 680.541 986.872 680.541 986.872L671.393 986.213L676.435 993.004L699.114 1006.29C699.114 1006.29 715.626 1015.45 712.975 1017.73C710.324 1020.02 704.953 1019.14 697.832 1015.19L681.667 1006.2C681.667 1006.2 678.791 1004.85 682.915 1009.48C687.038 1014.11 707.171 1024.38 709.735 1026.48C712.299 1028.59 719.645 1031.52 717.895 1035.93C716.145 1040.34 707.292 1034.5 707.292 1034.5L677.37 1019.75C677.37 1019.75 688.649 1028.2 690.555 1029.72C692.461 1031.24 698.941 1034.79 702.233 1037.54C705.525 1040.28 706.772 1043.27 705.941 1045.23C705.597 1046.17 704.926 1046.94 704.064 1047.39C703.201 1047.83 702.213 1047.91 701.297 1047.61L676.608 1031.99C676.608 1031.99 665.537 1024.2 664.688 1024.2C663.839 1024.2 668.274 1030.88 668.274 1030.88L675.863 1037.37C675.863 1037.37 687.263 1044.46 686.57 1048.06C685.877 1051.67 683.348 1050.97 683.348 1050.97L662.557 1037.81L640.258 1018.87L621.546 1003.73L607.686 995.677C607.287 995.091 626.415 973.034 633.276 966.865L640.622 971.826Z" fill="#F9B499"/>
<path d="M645.854 995.347C647.522 996.241 649.31 996.859 651.156 997.177C653.151 997.431 655.174 997.219 657.082 996.555C659.16 995.803 661.034 994.528 662.543 992.842C664.052 991.155 665.151 989.106 665.745 986.872V986.689H665.918C669.088 986.132 672.306 985.936 675.516 986.103C676.694 986.103 677.63 986.286 678.271 986.378C678.602 986.392 678.93 986.46 679.241 986.579C679.241 986.671 677.855 986.579 675.499 986.579C672.323 986.547 669.15 986.823 666.022 987.403L666.264 987.165C665.732 989.23 664.78 991.147 663.475 992.784C661.834 994.874 659.665 996.429 657.22 997.269C655.23 997.914 653.129 998.082 651.07 997.763C649.688 997.543 648.349 997.092 647.102 996.427L646.132 995.823C645.935 995.53 645.843 995.371 645.854 995.347Z" fill="#B26763"/>
<path d="M562.032 906.588C562.032 906.588 552.642 843.456 553.958 837.159L493.058 841.479L510.54 937.285L614.356 999.703L635.147 968.586L562.032 906.588Z" fill="#F9B499"/>
<path d="M358.852 691.784C358.852 691.784 275.688 842.76 262.209 917.113L259.177 930.402C255.328 934.169 252.37 938.838 250.541 944.033C248.711 949.228 248.061 954.803 248.643 960.312L250.687 979.184L454.335 950.007L471.262 899.889L536.355 743.165L534.536 735.166L507.248 710.327C477.95 728.979 460.971 711.315 444.875 673.333L405.164 668.519L358.852 691.784Z" fill="#EFCB68"/>
<g opacity="0.3">
<path d="M356.045 784.076C356.045 784.076 347.383 868.496 370.512 888.412C393.642 908.327 469.148 906.076 469.148 906.076L471.21 899.944L370.512 820.301L366.822 782.996L356.045 784.076Z" fill="black"/>
</g>
<path d="M585.127 608.48C581.853 601.891 577.521 595.301 577.729 587.851C577.903 581.005 581.957 574.287 580.207 567.716C578.076 559.607 568.356 556.166 565.272 548.386C563.782 544.634 564.042 540.296 562.569 536.507C560.074 530.082 553.179 526.787 546.647 525.89C540.115 524.993 533.445 525.89 526.965 524.7C518.059 523.126 509.639 517.818 500.681 518.33C490.736 518.916 483.078 526.146 475.143 532.974L465.06 540.717C463.075 541.992 460.973 543.053 458.788 543.883C454.959 545.311 450.818 545.897 447.318 548.075C445.522 549.307 443.979 550.909 442.782 552.786C441.586 554.662 440.759 556.774 440.353 558.996C439.947 561.218 439.97 563.503 440.419 565.715C440.869 567.927 441.736 570.021 442.969 571.871C439.333 572.241 435.905 573.836 433.192 576.419C430.478 579.003 428.621 582.439 427.896 586.222C427.185 590.377 427.896 594.642 428.19 598.87C428.485 603.099 428.19 607.638 425.765 611.006C423.339 614.374 418.193 615.82 415.265 612.946C415.282 615.762 415.894 618.539 417.057 621.072C418.22 623.606 419.905 625.833 421.988 627.59C419.677 629.119 416.902 629.662 414.226 629.109C417.327 648.531 434.549 662.698 452.672 667.384C470.794 672.07 489.801 669.215 508.235 666.286L560.109 665.206C564.631 665.206 567.663 660.191 568.651 655.523C569.638 650.855 569.621 645.748 572.116 641.813C575.581 636.321 582.875 634.894 586.462 629.549C590.62 623.563 588.402 615.033 585.127 608.48Z" fill="#000411"/>
<path d="M458.926 626.4C458.025 613.843 457.194 601.213 458.354 588.675C459.515 576.136 462.755 563.616 469.443 553.182C470.448 551.608 478.349 541.284 480.046 541.925C481.259 542.364 475.559 552.413 475.923 553.731C479.388 566.215 478.037 579.779 474.19 592.171C470.327 604.155 465.214 615.648 458.944 626.437" fill="#000411"/>
<path d="M528.437 534.676L525.787 533.834C496.714 526.512 474.606 548.478 468.49 579.431L442.034 684.444C439.731 693.595 440.84 703.33 445.13 711.643C449.421 719.956 456.566 726.214 465.094 729.126C469.517 730.645 474.182 731.217 478.816 730.809C483.451 730.4 487.962 729.02 492.085 726.748C496.209 724.476 499.862 721.358 502.831 717.577C505.801 713.795 508.027 709.427 509.379 704.726C510.973 699.234 512.082 695.445 512.117 695.463C512.151 695.482 540.86 699.674 549.454 670.771C553.612 656.804 559.936 627.316 565.376 600.554C568.186 586.678 565.946 572.193 559.1 559.984C552.254 547.775 541.307 538.739 528.437 534.676Z" fill="#F9B499"/>
<path d="M512.082 695.573C499.403 691.508 488.093 683.688 479.492 673.04C479.492 673.04 481.744 696.836 509.881 703.005L512.082 695.573Z" fill="#B26763"/>
<path d="M464.661 601.634C464.263 601.268 447.474 589.736 442.432 609.761C437.39 629.787 457.454 631.013 457.627 630.446C457.8 629.878 464.661 601.634 464.661 601.634Z" fill="#F9B499"/>
<path d="M561.149 564C564.614 563.048 557.978 550.015 551.308 544.341C541.224 535.774 524.591 527.666 513.295 527.977C499.694 528.324 487.548 532.132 478.227 542.62C468.906 553.109 463.05 566.636 460.035 580.657C458.84 584.877 458.738 589.359 459.741 593.635C461.317 598.797 465.718 602.97 464.02 609.029C463.68 610.119 463.548 611.268 463.631 612.412C463.714 613.556 464.011 614.671 464.505 615.692C467.017 620.543 472.163 618.035 475.022 614.868C481.103 608.151 483.858 598.889 486.405 589.974C488.224 583.659 490.061 577.161 489.87 570.571C489.766 566.91 489.038 563.396 489.108 559.808C489.037 558.004 489.339 556.206 489.991 554.537C490.643 552.869 491.63 551.369 492.885 550.143C493.505 549.679 494.159 549.269 494.843 548.917C498.084 547.195 501.701 546.417 505.321 546.661C508.942 546.906 512.436 548.165 515.443 550.308C525.18 557.209 542.004 568.137 547.704 565.593C555.899 561.932 558.428 558.783 558.428 558.783L561.149 564Z" fill="#000411"/>
<path d="M514.958 525.524C526.289 524.664 538.123 528.068 546.595 536.086C551.1 540.332 554.669 546.153 554.807 552.56C554.946 558.966 550.77 565.592 544.793 566.453L544.36 566.599C535.558 567.277 530.499 564.769 523.205 559.552C517.002 555.214 512.03 549.155 505.879 544.908C499.208 540.274 491.373 537.863 483.39 537.989C492.69 530.968 503.58 526.668 514.958 525.524Z" fill="#000411"/>
<path d="M348.058 1048.85L263.872 1034.21L246.027 1144.66C286.5 1158.13 285.408 1092.21 285.408 1092.21L338.98 1103.95L348.058 1048.85Z" fill="#3F3D56"/>
<path d="M263.872 1034.08L272.293 1035.91L252.073 1141.23C252.073 1141.23 249.249 1145.79 246.061 1144.66L263.872 1034.08Z" fill="#000411"/>
<path d="M422.49 1009C422.49 1009 535.524 1071.79 558.203 1099.68C569.725 1113.85 564.198 1160.82 539.249 1175.59C514.3 1190.36 487.271 1175.59 470.829 1171.36C454.387 1167.14 325.725 1117.6 325.725 1117.6L343.675 1009H422.49Z" fill="#000411"/>
<g opacity="0.2">
<path d="M422.49 1009C422.49 1009 535.524 1071.79 558.203 1099.68C569.725 1113.85 564.198 1160.82 539.249 1175.59C514.3 1190.36 487.271 1175.59 470.829 1171.36C454.387 1167.14 325.725 1117.6 325.725 1117.6L343.675 1009H422.49Z" fill="black"/>
</g>
<path d="M352.65 1067.34L289.151 1127.56L359.649 1211.41C396.536 1190.24 345.563 1146.14 345.563 1146.14L387.752 1109.26L352.65 1067.34Z" fill="#3F3D56"/>
<path d="M289.151 1127.56L295.769 1121.76L360.897 1204.33C360.897 1204.33 362.491 1209.49 359.649 1211.41L289.151 1127.56Z" fill="#000411"/>
<path d="M482.697 923.886C495.768 922.495 508.942 925.113 520.641 931.427C527.103 935.088 533.618 939.701 536.633 946.584C546.352 968.696 549.211 1002.23 531.937 1021.05C517.384 1036.92 383.299 1130.11 383.299 1130.11L328.446 1082.99L362.889 1049.22C362.889 1049.22 310.791 1057.36 290.831 1048.92C270.872 1040.49 240.465 1012.75 250.687 979.184L258.155 969.592C264.632 961.344 272.587 954.528 281.563 949.533C290.539 944.539 300.359 941.465 310.461 940.488L482.697 923.886Z" fill="#000411"/>
<path d="M566.173 838.074C566.537 837.928 585.803 888.503 609.176 951.032C632.548 1013.56 651.208 1064.39 650.758 1064.52C650.307 1064.65 631.232 1014.07 607.842 951.581C584.452 889.089 565.809 838.221 566.173 838.074Z" fill="#1A2E35"/>
<path d="M579.566 832.491C579.947 832.327 599.196 882.902 622.569 945.431C645.941 1007.96 664.618 1058.81 664.237 1058.92C663.856 1059.03 644.624 1008.58 621.235 945.998C597.845 883.415 579.202 832.638 579.566 832.491Z" fill="#1A2E35"/>
<path d="M592.976 826.89C593.34 826.744 612.589 877.319 635.961 939.847C659.334 1002.38 678.011 1053.21 677.647 1053.34C677.284 1053.46 658.017 1002.92 634.645 940.378C611.272 877.832 592.543 827.036 592.976 826.89Z" fill="#1A2E35"/>
<path d="M706.137 1069.51L603.544 779.465C602.027 775.175 597.506 772.997 593.445 774.6L517.474 804.593C513.414 806.196 511.352 810.973 512.869 815.263L615.461 1105.31C616.979 1109.6 621.5 1111.78 625.561 1110.18L701.532 1080.18C705.592 1078.58 707.654 1073.8 706.137 1069.51Z" fill="white" stroke="#1A2E35" stroke-width="0.75" stroke-linecap="round" stroke-linejoin="round"/>
<path d="M591.805 792.514L529.808 816.991L564.959 916.372L626.956 891.896L591.805 792.514Z" fill="#000411"/>
<path d="M674.615 1050.35L625.011 910.103C624.834 909.605 624.752 909.076 624.769 908.545C624.787 908.013 624.904 907.491 625.113 907.008C625.322 906.525 625.62 906.09 625.989 905.729C626.358 905.368 626.792 905.087 627.264 904.904C627.735 904.717 628.236 904.63 628.739 904.648C629.241 904.667 629.736 904.79 630.193 905.011C630.651 905.233 631.062 905.547 631.404 905.937C631.746 906.327 632.011 906.785 632.184 907.284L681.788 1047.52C681.966 1048.01 682.048 1048.54 682.031 1049.08C682.014 1049.61 681.897 1050.13 681.688 1050.62C681.479 1051.1 681.181 1051.54 680.811 1051.9C680.442 1052.26 680.009 1052.55 679.536 1052.73C678.584 1053.1 677.534 1053.06 676.612 1052.61C675.691 1052.17 674.973 1051.35 674.615 1050.35Z" fill="#3F3D56"/>
<path d="M655.661 1045.19L609.955 915.997C609.778 915.499 609.696 914.97 609.713 914.439C609.731 913.908 609.847 913.385 610.057 912.902C610.266 912.419 610.564 911.984 610.933 911.623C611.302 911.262 611.735 910.982 612.208 910.798C613.157 910.424 614.207 910.463 615.13 910.905C616.052 911.348 616.77 912.159 617.128 913.16L662.816 1042.37C663.17 1043.37 663.134 1044.48 662.715 1045.46C662.296 1046.43 661.529 1047.19 660.581 1047.57C660.111 1047.76 659.609 1047.84 659.107 1047.83C658.604 1047.81 658.109 1047.68 657.652 1047.46C657.195 1047.24 656.783 1046.93 656.441 1046.54C656.1 1046.15 655.834 1045.69 655.661 1045.19Z" fill="#3F3D56"/>
<path d="M643.169 1058.46L594.899 922.001C594.722 921.502 594.639 920.971 594.657 920.439C594.674 919.906 594.79 919.383 595 918.898C595.209 918.413 595.507 917.977 595.876 917.614C596.245 917.251 596.679 916.969 597.152 916.784C598.103 916.416 599.154 916.459 600.075 916.905C600.996 917.35 601.714 918.162 602.072 919.163L650.342 1055.62C650.695 1056.63 650.656 1057.74 650.234 1058.72C649.812 1059.69 649.04 1060.45 648.09 1060.82C647.62 1061.01 647.12 1061.1 646.618 1061.08C646.116 1061.06 645.622 1060.94 645.165 1060.72C644.708 1060.5 644.296 1060.19 643.953 1059.8C643.611 1059.41 643.344 1058.96 643.169 1058.46Z" fill="#3F3D56"/>
<path d="M619.623 1040.41L579.774 927.95C579.599 927.443 579.522 926.904 579.547 926.366C579.573 925.827 579.7 925.299 579.921 924.813C580.142 924.327 580.453 923.893 580.835 923.535C581.218 923.178 581.664 922.905 582.147 922.733C583.101 922.364 584.154 922.407 585.078 922.852C586.003 923.298 586.723 924.11 587.085 925.112L626.935 1037.58C627.288 1038.58 627.249 1039.69 626.827 1040.67C626.404 1041.64 625.633 1042.4 624.682 1042.77C624.204 1042.98 623.692 1043.09 623.175 1043.08C622.658 1043.07 622.148 1042.96 621.676 1042.73C621.203 1042.51 620.777 1042.19 620.425 1041.8C620.072 1041.4 619.799 1040.93 619.623 1040.41Z" fill="#3F3D56"/>
<path d="M653.062 894.104C652.871 888.961 644.538 889.473 641.194 888.613C637.85 887.753 618.098 887.149 611.74 886.087C605.381 885.025 608.656 884.256 608.656 884.256L628.217 885.282C636.88 885.721 642.389 884.019 644.035 880.541C645.681 877.063 625.687 876.019 625.687 876.019L588.523 869.906L590.152 869.723L599.248 867.233C599.248 867.233 609.193 866.702 614.963 862.273C621.234 857.459 616.851 855.555 616.851 855.555L575.72 855.463C568.789 856.324 555.015 866.849 555.015 866.849L431.205 827.549L434.67 754.862C434.67 754.862 411.124 732.896 393.625 733.152C376.126 733.409 362.941 751.201 362.941 751.201L366.406 829.215C367.429 852.773 373.337 883.927 401.335 889.034L549.228 910.578L573.918 916.381L603.701 924.16L629.482 927.053C629.482 927.053 632.254 926.54 631.37 922.714C630.486 918.889 616.591 916.088 616.591 916.088L606.871 913.159C606.871 913.159 599.075 910.34 599.941 909.938C600.807 909.535 614.859 911.768 614.859 911.768L645.508 915.228C646.525 915.082 647.45 914.53 648.095 913.686C648.739 912.842 649.053 911.769 648.973 910.688C648.973 908.4 646.461 906.112 642.043 904.996C637.625 903.879 629.915 903.531 627.35 902.964C624.786 902.396 610.25 899.559 610.25 899.559H645.664C645.664 899.559 653.183 899.23 653.062 894.104Z" fill="#F9B499"/>
<path d="M357.622 695.665C364.431 668.007 408.266 658.031 425.193 680.417C431.794 689.185 438.014 707.471 438.014 716.532C438.014 739.12 438.014 777.852 438.014 777.852H366.406C364.626 778 362.837 777.761 361.148 777.148C359.459 776.536 357.908 775.564 356.589 774.293C355.27 773.021 354.212 771.477 353.481 769.756C352.75 768.036 352.361 766.175 352.338 764.289C352.061 746.35 352.598 716.056 357.622 695.665Z" fill="#EFCB68"/>
<g opacity="0.2">
<path d="M357.622 695.665C364.431 668.007 408.266 658.031 425.193 680.417C431.794 689.185 438.014 707.471 438.014 716.532C438.014 739.12 438.014 777.852 438.014 777.852H366.406C364.626 778 362.837 777.761 361.148 777.148C359.459 776.536 357.908 775.564 356.589 774.293C355.27 773.021 354.212 771.477 353.481 769.756C352.75 768.036 352.361 766.175 352.338 764.289C352.061 746.35 352.598 716.056 357.622 695.665Z" fill="black"/>
</g>
</svg>
