<svg width="29" height="33" viewBox="0 0 29 33" fill="none" xmlns="http://www.w3.org/2000/svg">
<g clip-path="url(#clip0_135_120)">
<path d="M2.42828 29.6392L0 1.04468L29 1.10214L26.4323 29.6392L14.6095 32.9378L2.42828 29.6392Z" fill="#E9CA32"/>
<path d="M14.6095 30.1761V3.76782L26.5518 3.80613L24.4222 27.4335L14.6095 30.1761Z" fill="#FFDE25"/>
<path d="M13.3306 6.90356H10.1734V24.4802L7.71774 24.0296V21.6635L4.79436 21.2128V26.5083L13.3306 28.6491V6.90356ZM15.6991 6.90356H24.4395L23.8548 10.2724H19.0357V15.8007H23.8548L23.2702 26.959L15.6991 28.6491V25.1563L20.8145 23.4662L21.1099 18.8467L15.6991 19.6016V6.90356Z" fill="white"/>
</g>
<defs>
<clipPath id="clip0_135_120">
<rect width="29" height="32" fill="white" transform="translate(0 0.991211)"/>
</clipPath>
</defs>
</svg>
