<?xml version="1.0" encoding="UTF-8" standalone="no"?>
<!-- Created with Inkscape (http://www.inkscape.org/) -->

<svg
   width="64pt"
   height="64pt"
   viewBox="0 0 22.577778 22.577778"
   version="1.1"
   id="svg831"
   inkscape:version="1.1.1 (3bf5ae0d25, 2021-09-20)"
   sodipodi:docname="Export - Unblash - 64px.svg"
   inkscape:export-filename="C:\Users\User\Desktop\CARLOS PROJECT\3. MARET 1\EXPORT\FILEDLINE\8 - Lock Folder.png"
   inkscape:export-xdpi="576"
   inkscape:export-ydpi="576"
   xmlns:inkscape="http://www.inkscape.org/namespaces/inkscape"
   xmlns:sodipodi="http://sodipodi.sourceforge.net/DTD/sodipodi-0.dtd"
   xmlns="http://www.w3.org/2000/svg"
   xmlns:svg="http://www.w3.org/2000/svg"
   xmlns:rdf="http://www.w3.org/1999/02/22-rdf-syntax-ns#"
   xmlns:cc="http://creativecommons.org/ns#"
   xmlns:dc="http://purl.org/dc/elements/1.1/">
  <defs
     id="defs825">
    <pattern
       id="EMFhbasepattern"
       patternUnits="userSpaceOnUse"
       width="6"
       height="6"
       x="0"
       y="0" />
    <pattern
       id="EMFhbasepattern-9"
       patternUnits="userSpaceOnUse"
       width="6"
       height="6"
       x="0"
       y="0" />
    <pattern
       id="EMFhbasepattern-0"
       patternUnits="userSpaceOnUse"
       width="6"
       height="6"
       x="0"
       y="0" />
    <pattern
       id="EMFhbasepattern-7"
       patternUnits="userSpaceOnUse"
       width="6"
       height="6"
       x="0"
       y="0" />
    <pattern
       id="EMFhbasepattern-2"
       patternUnits="userSpaceOnUse"
       width="6"
       height="6"
       x="0"
       y="0" />
    <pattern
       id="EMFhbasepattern-98"
       patternUnits="userSpaceOnUse"
       width="6"
       height="6"
       x="0"
       y="0" />
    <pattern
       id="EMFhbasepattern-6"
       patternUnits="userSpaceOnUse"
       width="6"
       height="6"
       x="0"
       y="0" />
    <pattern
       id="EMFhbasepattern-01"
       patternUnits="userSpaceOnUse"
       width="6"
       height="6"
       x="0"
       y="0" />
    <pattern
       id="EMFhbasepattern-07"
       patternUnits="userSpaceOnUse"
       width="6"
       height="6"
       x="0"
       y="0" />
    <pattern
       id="EMFhbasepattern-8"
       patternUnits="userSpaceOnUse"
       width="6"
       height="6"
       x="0"
       y="0" />
    <pattern
       id="EMFhbasepattern-4"
       patternUnits="userSpaceOnUse"
       width="6"
       height="6"
       x="0"
       y="0" />
    <pattern
       id="EMFhbasepattern-40"
       patternUnits="userSpaceOnUse"
       width="6"
       height="6"
       x="0"
       y="0" />
    <pattern
       id="EMFhbasepattern-08"
       patternUnits="userSpaceOnUse"
       width="6"
       height="6"
       x="0"
       y="0" />
    <pattern
       id="EMFhbasepattern-04"
       patternUnits="userSpaceOnUse"
       width="6"
       height="6"
       x="0"
       y="0" />
    <pattern
       id="EMFhbasepattern-014"
       patternUnits="userSpaceOnUse"
       width="6"
       height="6"
       x="0"
       y="0" />
    <pattern
       id="EMFhbasepattern-27"
       patternUnits="userSpaceOnUse"
       width="6"
       height="6"
       x="0"
       y="0" />
    <pattern
       id="EMFhbasepattern-09"
       patternUnits="userSpaceOnUse"
       width="6"
       height="6"
       x="0"
       y="0" />
    <pattern
       id="EMFhbasepattern-5"
       patternUnits="userSpaceOnUse"
       width="6"
       height="6"
       x="0"
       y="0" />
    <pattern
       id="EMFhbasepattern-018"
       patternUnits="userSpaceOnUse"
       width="6"
       height="6"
       x="0"
       y="0" />
  </defs>
  <sodipodi:namedview
     id="base"
     pagecolor="#ffffff"
     bordercolor="#666666"
     borderopacity="1.0"
     inkscape:pageopacity="0.0"
     inkscape:pageshadow="2"
     inkscape:zoom="9.1757812"
     inkscape:cx="42.612175"
     inkscape:cy="42.666667"
     inkscape:document-units="pt"
     inkscape:current-layer="layer1"
     showgrid="false"
     units="pt"
     inkscape:window-width="1920"
     inkscape:window-height="1001"
     inkscape:window-x="-9"
     inkscape:window-y="41"
     inkscape:window-maximized="1"
     inkscape:pagecheckerboard="true"
     inkscape:showpageshadow="false"
     inkscape:object-paths="true"
     inkscape:snap-intersection-paths="true"
     inkscape:snap-smooth-nodes="true"
     inkscape:snap-midpoints="true"
     showguides="true"
     inkscape:snap-bbox="true"
     inkscape:bbox-nodes="true"
     inkscape:snap-nodes="false"
     inkscape:snap-global="true">
    <inkscape:grid
       type="xygrid"
       id="grid1378" />
    <sodipodi:guide
       position="0.97013831,21.607643"
       orientation="78.000048,0"
       id="guide1380"
       inkscape:locked="false" />
    <sodipodi:guide
       position="0.97013831,0.97013129"
       orientation="0,78.000005"
       id="guide1382"
       inkscape:locked="false" />
    <sodipodi:guide
       position="21.607639,0.97013129"
       orientation="-78.000048,0"
       id="guide1384"
       inkscape:locked="false" />
    <sodipodi:guide
       position="21.607639,21.607643"
       orientation="0,-78.000005"
       id="guide1386"
       inkscape:locked="false" />
  </sodipodi:namedview>
  <metadata
     id="metadata828">
    <rdf:RDF>
      <cc:Work
         rdf:about="">
        <dc:format>image/svg+xml</dc:format>
        <dc:type
           rdf:resource="http://purl.org/dc/dcmitype/StillImage" />
      </cc:Work>
    </rdf:RDF>
  </metadata>
  <g
     inkscape:label="Icon"
     inkscape:groupmode="layer"
     id="layer1"
     transform="translate(0,-274.42223)">
    <g
       id="g9794"
       style="display:inline;stroke-width:0.793845"
       transform="matrix(1.2596915,0,0,1.2596915,0.62317497,-77.751858)">
      <g
         id="g8944"
         style="stroke-width:0.793845">
        <path
           style="color:#000000;fill:#e59f2e;stroke-width:0.793845;stroke-linecap:round;stroke-linejoin:round;-inkscape-stroke:none"
           d="m 4.6523437,283.09481 c -0.1998142,-4.9e-4 -0.3280559,0.21218 -0.234375,0.38867 l 5.3730469,9.69739 c 0.045993,0.0867 0.1362133,0.14085 0.2343754,0.14063 h 4.438536 c 1.095405,0 1.990234,-0.89483 1.990234,-1.99024 v -6.24817 c 0,-1.09541 -0.894831,-1.98828 -1.990234,-1.98828 z"
           id="path396843"
           sodipodi:nodetypes="ccccssssc" />
        <path
           style="color:#000000;fill:#fcba4c;stroke-width:0.793845;stroke-linecap:round;stroke-linejoin:round;-inkscape-stroke:none"
           d="m 2.5979808,282.2389 c -1.1008664,0.0442 -2.00195315,0.72337 -2.00195315,1.82511 v 7.37212 c 0,1.10175 0.90023725,2.01111 2.00195315,2.00196 l 10.5298602,-0.0874 c 1.095362,-0.009 1.988282,-0.89484 1.988282,-1.99024 v -5.1095 c 0,-0.96461 -0.787343,-1.75195 -1.751953,-1.75195 H 6.8897083 c -0.309928,0 -0.5868441,-0.39136 -0.703125,-0.67865 l -0.421875,-0.86417 c -0.1965784,-0.48566 -0.4657991,-0.82571 -0.9893177,-0.80469 z"
           id="path396568"
           sodipodi:nodetypes="sssssssssccss" />
        <path
           style="color:#000000;fill:#ececec;stroke-width:0.793845;stroke-linecap:round;stroke-linejoin:round;-inkscape-stroke:none"
           d="m 8.4667969,286.13583 c -1.3303394,0 -2.2100208,0.90882 -2.2100208,2.23917 v 1.14453 c 5.157e-4,0.14541 0.1182643,0.26316 0.2636718,0.26367 h 1.024474 c 0.1461697,5.6e-4 0.2651068,-0.1175 0.265625,-0.26367 V 288.375 c 0,-0.36588 0.2903745,-0.65625 0.65625,-0.65625 0.3658755,0 0.65625,0.29037 0.65625,0.65625 v 1.14453 c 5.182e-4,0.14617 0.1194553,0.26423 0.265625,0.26367 h 1.0244741 c 0.145407,-5.2e-4 0.263156,-0.11826 0.263671,-0.26367 V 288.375 c 0,-1.33035 -0.8796807,-2.23917 -2.2100201,-2.23917 z"
           id="path395964"
           sodipodi:nodetypes="ssccccsssccccss" />
        <path
           style="color:#000000;fill:#4895ef;stroke-width:0.793845;stroke-linecap:round;stroke-linejoin:round;-inkscape-stroke:none"
           d="m 6.0097656,288.72461 c -0.8214793,0 -1.4941406,0.67266 -1.4941406,1.49414 v 1.22852 c 0,1.71206 1.6500875,3.64257 3.9511719,3.64257 2.3010841,0 3.9492191,-1.93051 3.9492191,-3.64257 v -1.22852 c 0,-0.82148 -0.670709,-1.49414 -1.492188,-1.49414 z"
           id="path396156" />
        <path
           id="path396348"
           style="color:#000000;fill:#2c5eb5;stroke-width:3.00036;stroke-linecap:round;stroke-linejoin:round;-inkscape-stroke:none"
           d="m 32,37.365234 c -2.143039,0 -3.90434,1.76322 -3.904297,3.90625 3.4e-5,1.796221 1.237835,3.317687 2.900391,3.763672 v 3.78125 A 1.0000006,1.0000006 0 0 0 32,49.820312 1.0000006,1.0000006 0 0 0 32.996094,48.816406 v -3.779297 c 1.664767,-0.443337 2.902309,-1.966628 2.902344,-3.765625 4.3e-5,-2.14303 -1.755399,-3.90625 -3.898438,-3.90625 z"
           transform="matrix(0.26458334,0,0,0.26458334,0,280.06666)" />
      </g>
      <path
         id="rect974-4-5-3"
         style="color:#000000;display:inline;fill:#000000;stroke-width:0.793845;stroke-linecap:round;stroke-linejoin:round;-inkscape-stroke:none"
         d="m 2.2773804,281.97662 c -1.1017538,0 -2.00194502,0.89814 -2.00194502,1.99988 v 7.57628 c 0,1.10175 0.90019112,2.00195 2.00194502,2.00195 H 4.2323 c 0.1469334,5.8e-4 0.2661915,-0.11869 0.2656168,-0.26562 C 4.4973347,293.14298 4.3784254,293.02499 4.2323,293.02556 H 2.2773804 c -0.8157661,0 -1.47277834,-0.65702 -1.47277834,-1.47278 v -0.38861 H 3.7052002 c 0.145319,-5.6e-4 0.2629826,-0.11823 0.2635499,-0.26355 5.715e-4,-0.14612 -0.1174242,-0.26504 -0.2635499,-0.26561 H 0.80460206 v -6.65851 c 0,-0.81575 0.65701234,-1.47071 1.47277834,-1.47071 h 2.4980388 c 0.3099194,0 0.5870355,0.18762 0.7033162,0.4749 l 0.4216797,1.0387 c 0.1965786,0.48567 0.6692768,0.8046 1.193209,0.8046 h 6.4456019 c 0.678628,0 1.222664,0.54405 1.222664,1.22267 v 4.58835 h -1.53324 c -0.146125,5.8e-4 -0.264121,0.11949 -0.26355,0.26561 5.56e-4,0.14532 0.118231,0.26299 0.26355,0.26355 h 1.53324 v 0.4005 c 0,0.80942 -0.649931,1.46089 -1.459342,1.46089 h -0.867131 c -0.146125,-5.8e-4 -0.265046,0.11742 -0.265617,0.26355 -5.82e-4,0.14693 0.118684,0.26619 0.265617,0.26562 h 0.867131 1.365291 c 1.095405,0 1.990576,-0.89465 1.990576,-1.99006 v -6.65644 c 0,-1.09541 -0.895173,-1.98851 -1.990576,-1.98851 H 7.2967124 c -0.14552,5.8e-4 -0.2632662,0.11854 -0.2635499,0.26406 -5.82e-4,0.14613 0.1174245,0.26505 0.2635499,0.26562 h 7.3711266 c 0.80942,0 1.460893,0.6494 1.460893,1.45883 v 6.65644 c 0,0.85632 -0.834753,1.44198 -1.47898,1.46089 0.393766,-0.36417 0.641305,-0.88458 0.641305,-1.46089 v -5.51801 c 0,-0.96461 -0.787222,-1.75183 -1.751832,-1.75183 H 7.0936241 c -0.3099282,0 -0.5865186,-0.1871 -0.7027995,-0.47439 l -0.4221965,-1.03922 c -0.1965785,-0.48566 -0.6692683,-0.8046 -1.1932089,-0.8046 z m 6.1892865,3.98425 c -1.3303393,0 -2.4138036,1.08398 -2.4138063,2.41433 v 0.34933 c -0.8673798,0 -1.5373739,0.54572 -1.5373739,1.49397 v 1.22886 c 0,1.71206 1.6500957,3.64267 3.9511802,3.64267 2.3010841,0 3.9491131,-1.93061 3.9491131,-3.64267 v -1.22886 c 0,-0.88783 -0.623807,-1.46778 -1.53479,-1.49397 v -0.34933 c -2e-6,-1.33035 -1.0839838,-2.41433 -2.4143231,-2.41433 z m 0,0.52917 c 1.0443588,0 1.8846371,0.84079 1.8846391,1.88516 v 0.34933 H 9.6521243 v -0.34933 c 1.4e-6,-0.65186 -0.5336037,-1.18598 -1.1854574,-1.18598 -0.6518537,0 -1.1854588,0.53412 -1.1854575,1.18598 v 0.34933 H 6.5820273 v -0.34933 c 2.1e-6,-1.04437 0.8402807,-1.88516 1.8846396,-1.88516 z m -0.00448,1.23331 c 0.3703567,-0.004 0.6607726,0.28597 0.6607718,0.65185 v 0.34933 H 7.810375 v -0.34933 c -7e-7,-0.36017 0.281453,-0.64741 0.6518098,-0.65185 z M 6.0099682,289.2537 H 10.92388 c 0.535498,0 0.962732,0.4293 0.962732,0.9648 v 1.22886 c 0,1.35929 -1.421252,3.11299 -3.4199462,3.11299 -1.9986943,0 -3.4214967,-1.7537 -3.4214967,-3.11299 v -1.22886 c 0,-0.5355 0.4293002,-0.9648 0.9647991,-0.9648 z m 2.4566987,0.69918 c -0.5670124,0 -1.0330233,0.46652 -1.033012,1.03353 9e-6,0.47525 0.3275106,0.8778 0.7673952,0.9958 v 1.00046 c -5.821e-4,0.14693 0.1186831,0.26619 0.2656168,0.26561 0.1461257,-5.8e-4 0.2641216,-0.11949 0.2635499,-0.26561 v -0.99994 c 0.4404696,-0.1173 0.7679026,-0.52034 0.7679118,-0.99632 1.14e-5,-0.56701 -0.4644493,-1.03353 -1.0314617,-1.03353 z m 0,0.52968 c 0.2810259,0 0.5038508,0.22282 0.5038452,0.50385 -5.3e-6,0.28102 -0.2228273,0.50384 -0.5038452,0.50384 -0.281018,0 -0.5038397,-0.22282 -0.5038453,-0.50384 -5.5e-6,-0.28103 0.2228191,-0.50385 0.5038453,-0.50385 z"
         sodipodi:nodetypes="sccscscssccsccsssccsssccsccsccsccsssscccssccccssccssssccsssccssssccsssccsscsccscssssssssssccsccsssssss" />
    </g>
  </g>
</svg>
