<svg width="34" height="39" viewBox="0 0 34 39" fill="none" xmlns="http://www.w3.org/2000/svg">
<g clip-path="url(#clip0_135_105)">
<path d="M0.971804 14.5753C0.971804 14.5753 0.16695 13.915 1.13277 13.0333L3.38301 10.7432C3.38301 10.7432 4.02689 9.97222 4.70766 10.644L25.4729 28.5371V37.1173C25.4729 37.1173 25.4628 38.4646 23.9437 38.3157L0.971804 14.5753Z" fill="#2489CA"/>
<path d="M6.32408 20.1057L0.971804 25.6439C0.971804 25.6439 0.421821 26.1095 0.971804 26.9416L3.45679 29.5141C3.45679 29.5141 4.04701 30.2355 4.91894 29.4149L10.5932 24.5179L6.32408 20.1057Z" fill="#1070B3"/>
<path d="M15.7207 20.1515L25.5366 11.6209L25.4729 3.08658C25.4729 3.08658 25.0537 1.22398 23.6553 2.19345L10.5932 15.724L15.7207 20.1515Z" fill="#0877B9"/>
<path d="M23.9437 38.327C24.5138 38.9911 25.2046 38.7736 25.2046 38.7736L32.8541 34.4835C33.8333 33.7239 33.6958 32.7812 33.6958 32.7812V7.16288C33.6958 6.03692 32.683 5.64761 32.683 5.64761L26.053 2.01021C24.6043 0.991121 23.6553 2.19341 23.6553 2.19341C23.6553 2.19341 24.8759 1.19341 25.4729 3.08654V36.9606C25.4729 37.1934 25.4293 37.4224 25.3421 37.6285C25.1677 38.0293 24.7888 38.4033 23.8799 38.2468L23.9437 38.327Z" fill="#3C99D4"/>
</g>
<defs>
<clipPath id="clip0_135_105">
<rect width="34" height="38" fill="white" transform="translate(0.00012207 0.991211)"/>
</clipPath>
</defs>
</svg>
