<svg width="209" height="273" viewBox="0 0 209 273" fill="none" xmlns="http://www.w3.org/2000/svg">
<rect x="1.20386" y="1.32568" width="207.293" height="271.056" rx="39.5" fill="#000411" stroke="#8993BE"/>
<path d="M57.3865 228.115V201.547H68.3665C69.2065 201.547 70.0585 201.655 70.9225 201.871C71.7865 202.063 72.5785 202.459 73.2985 203.059C74.0425 203.659 74.6305 204.547 75.0625 205.723C75.5185 206.899 75.7465 208.471 75.7465 210.439C75.7465 212.407 75.5185 213.991 75.0625 215.191C74.6065 216.391 74.0065 217.315 73.2625 217.963C72.5425 218.587 71.7505 219.019 70.8865 219.259C70.0465 219.475 69.2305 219.583 68.4385 219.583C68.0305 219.583 67.5145 219.571 66.8905 219.547C66.2905 219.499 65.6545 219.451 64.9825 219.403C64.3345 219.331 63.7225 219.271 63.1465 219.223C62.5945 219.151 62.1505 219.091 61.8145 219.043V228.115H57.3865ZM61.8145 215.551H67.7905C68.4865 215.551 69.0985 215.395 69.6265 215.083C70.1545 214.747 70.5625 214.219 70.8505 213.499C71.1385 212.755 71.2825 211.747 71.2825 210.475C71.2825 209.227 71.1265 208.243 70.8145 207.523C70.5265 206.803 70.1305 206.299 69.6265 206.011C69.1465 205.699 68.5825 205.543 67.9345 205.543H61.8145V215.551ZM79.5349 228.115V201.547H83.9629V213.031H95.1589V201.547H99.6229V228.115H95.1589V217.027H83.9629V228.115H79.5349ZM104.601 228.115V201.547H115.581C116.421 201.547 117.273 201.655 118.137 201.871C119.001 202.063 119.793 202.459 120.513 203.059C121.257 203.659 121.845 204.547 122.277 205.723C122.733 206.899 122.961 208.471 122.961 210.439C122.961 212.407 122.733 213.991 122.277 215.191C121.821 216.391 121.221 217.315 120.477 217.963C119.757 218.587 118.965 219.019 118.101 219.259C117.261 219.475 116.445 219.583 115.653 219.583C115.245 219.583 114.729 219.571 114.105 219.547C113.505 219.499 112.869 219.451 112.197 219.403C111.549 219.331 110.937 219.271 110.361 219.223C109.809 219.151 109.365 219.091 109.029 219.043V228.115H104.601ZM109.029 215.551H115.005C115.701 215.551 116.313 215.395 116.841 215.083C117.369 214.747 117.777 214.219 118.065 213.499C118.353 212.755 118.497 211.747 118.497 210.475C118.497 209.227 118.341 208.243 118.029 207.523C117.741 206.803 117.345 206.299 116.841 206.011C116.361 205.699 115.797 205.543 115.149 205.543H109.029V215.551ZM142.904 228.259C141.968 228.259 141.08 228.175 140.24 228.007C139.424 227.815 138.704 227.515 138.08 227.107C137.456 226.675 136.964 226.099 136.604 225.379C136.244 224.659 136.064 223.747 136.064 222.643V218.935C136.064 218.167 136.208 217.495 136.496 216.919C136.784 216.319 137.156 215.815 137.612 215.407C138.092 214.999 138.62 214.735 139.196 214.615C138.452 214.255 137.888 213.835 137.504 213.355C137.144 212.851 136.904 212.311 136.784 211.735C136.664 211.159 136.604 210.559 136.604 209.935V206.875C136.604 205.531 136.88 204.451 137.432 203.635C137.984 202.819 138.716 202.231 139.628 201.871C140.564 201.511 141.584 201.331 142.688 201.331H147.692C148.844 201.331 149.852 201.511 150.716 201.871C151.604 202.231 152.3 202.819 152.804 203.635C153.332 204.451 153.596 205.531 153.596 206.875V209.935C153.596 210.271 153.548 210.655 153.452 211.087C153.38 211.519 153.248 211.963 153.056 212.419C152.864 212.851 152.6 213.223 152.264 213.535C151.952 213.847 151.568 214.063 151.112 214.183C151.904 214.351 152.516 214.699 152.948 215.227C153.38 215.731 153.68 216.307 153.848 216.955C154.016 217.603 154.1 218.215 154.1 218.791V222.643C154.1 224.107 153.824 225.247 153.272 226.063C152.72 226.855 151.964 227.419 151.004 227.755C150.044 228.091 148.964 228.259 147.764 228.259H142.904ZM143.624 224.443H146.756C147.836 224.443 148.58 224.227 148.988 223.795C149.42 223.339 149.636 222.691 149.636 221.851V219.151C149.636 218.239 149.408 217.567 148.952 217.135C148.496 216.679 147.74 216.451 146.684 216.451H143.624C143.288 216.451 142.94 216.499 142.58 216.595C142.22 216.691 141.884 216.859 141.572 217.099C141.26 217.315 141.008 217.591 140.816 217.927C140.624 218.263 140.528 218.671 140.528 219.151V221.851C140.528 222.811 140.804 223.483 141.356 223.867C141.932 224.251 142.688 224.443 143.624 224.443ZM143.624 212.635H146.648C147.32 212.635 147.836 212.515 148.196 212.275C148.58 212.011 148.844 211.675 148.988 211.267C149.156 210.835 149.24 210.379 149.24 209.899V207.919C149.24 206.791 149.012 206.047 148.556 205.687C148.124 205.303 147.524 205.111 146.756 205.111H143.624C142.688 205.111 142.004 205.315 141.572 205.723C141.164 206.131 140.96 206.863 140.96 207.919V209.899C140.96 210.835 141.164 211.531 141.572 211.987C142.004 212.419 142.688 212.635 143.624 212.635Z" fill="#8993BE"/>
<g clip-path="url(#clip0_78_126)">
<path d="M105.382 155.456C153.216 155.456 191.993 135.353 191.993 110.554C191.993 85.755 153.216 65.6516 105.382 65.6516C57.5473 65.6516 18.77 85.755 18.77 110.554C18.77 135.353 57.5473 155.456 105.382 155.456Z" fill="#8993BE"/>
<path fill-rule="evenodd" clip-rule="evenodd" d="M43.0923 137.141L52.5844 89.284H74.5329C84.0243 89.875 88.7704 94.6011 88.7704 102.873C88.7704 117.053 77.4994 125.324 67.4139 124.733H56.737L54.364 137.141H43.0923ZM59.1093 115.871L62.0758 98.1465H69.7876C73.9402 98.1465 76.906 99.9189 76.906 103.464C76.3132 113.508 71.5672 115.28 66.2284 115.871H59.1093ZM86.5652 124.733L96.0566 76.8774H107.328L104.955 89.284H115.633C125.125 89.875 128.684 94.6011 127.498 100.51L123.345 124.733H111.481L115.633 102.873C116.226 99.9189 116.226 98.1465 112.074 98.1465H103.176L97.8368 124.733H86.5652ZM122.585 137.141L132.077 89.284H154.026C163.518 89.875 168.264 94.6011 168.264 102.873C168.264 117.053 156.992 125.324 146.908 124.733H136.229L133.856 137.141H122.585ZM138.602 115.871L141.568 98.1465H149.281C153.433 98.1465 156.399 99.9189 156.399 103.464C155.806 113.508 151.06 115.28 145.721 115.871H138.602H138.602Z" fill="#232531"/>
</g>
<defs>
<clipPath id="clip0_78_126">
<rect width="173.223" height="90.331" fill="white" transform="translate(18.77 65.6516)"/>
</clipPath>
</defs>
</svg>
