<svg width="449" height="640" viewBox="0 0 449 640" fill="none" xmlns="http://www.w3.org/2000/svg">
<rect x="3" y="3" width="443" height="634" rx="37" fill="#000411" stroke="#8993BE" stroke-width="6"/>
<path d="M142.908 470V425.6H161.628C163.068 425.6 164.528 425.78 166.008 426.14C167.528 426.46 168.908 427.14 170.148 428.18C171.428 429.18 172.448 430.7 173.208 432.74C174.008 434.78 174.408 437.48 174.408 440.84C174.408 444.2 174.008 446.92 173.208 449C172.448 451.08 171.448 452.66 170.208 453.74C168.968 454.82 167.628 455.54 166.188 455.9C164.748 456.26 163.348 456.44 161.988 456.44C161.268 456.44 160.428 456.42 159.468 456.38C158.508 456.3 157.528 456.2 156.528 456.08C155.568 455.96 154.668 455.86 153.828 455.78C152.988 455.66 152.308 455.56 151.788 455.48V470H142.908ZM151.788 448.46H160.608C161.648 448.46 162.528 448.22 163.248 447.74C164.008 447.22 164.568 446.42 164.928 445.34C165.288 444.22 165.468 442.74 165.468 440.9C165.468 439.1 165.268 437.68 164.868 436.64C164.508 435.56 163.968 434.78 163.248 434.3C162.568 433.82 161.748 433.58 160.788 433.58H151.788V448.46ZM180.174 470V425.6H189.054V444.08H205.794V425.6H214.734V470H205.794V452.06H189.054V470H180.174ZM222.361 470V425.6H241.081C242.521 425.6 243.981 425.78 245.461 426.14C246.981 426.46 248.361 427.14 249.601 428.18C250.881 429.18 251.901 430.7 252.661 432.74C253.461 434.78 253.861 437.48 253.861 440.84C253.861 444.2 253.461 446.92 252.661 449C251.901 451.08 250.901 452.66 249.661 453.74C248.421 454.82 247.081 455.54 245.641 455.9C244.201 456.26 242.801 456.44 241.441 456.44C240.721 456.44 239.881 456.42 238.921 456.38C237.961 456.3 236.981 456.2 235.981 456.08C235.021 455.96 234.121 455.86 233.281 455.78C232.441 455.66 231.761 455.56 231.241 455.48V470H222.361ZM231.241 448.46H240.061C241.101 448.46 241.981 448.22 242.701 447.74C243.461 447.22 244.021 446.42 244.381 445.34C244.741 444.22 244.921 442.74 244.921 440.9C244.921 439.1 244.721 437.68 244.321 436.64C243.961 435.56 243.421 434.78 242.701 434.3C242.021 433.82 241.201 433.58 240.241 433.58H231.241V448.46ZM286.436 470.24C284.916 470.24 283.436 470.1 281.996 469.82C280.596 469.54 279.336 469.06 278.216 468.38C277.136 467.66 276.276 466.68 275.636 465.44C275.036 464.16 274.736 462.54 274.736 460.58V454.52C274.736 453.36 274.936 452.3 275.336 451.34C275.736 450.34 276.296 449.48 277.016 448.76C277.776 448.04 278.656 447.58 279.656 447.38C278.416 446.78 277.496 446.08 276.896 445.28C276.336 444.44 275.976 443.54 275.816 442.58C275.696 441.62 275.636 440.62 275.636 439.58V434.54C275.636 432.26 276.096 430.44 277.016 429.08C277.976 427.72 279.256 426.74 280.856 426.14C282.456 425.54 284.176 425.24 286.016 425.24H294.416C296.336 425.24 298.056 425.54 299.576 426.14C301.096 426.74 302.316 427.72 303.236 429.08C304.156 430.44 304.616 432.26 304.616 434.54V439.58C304.616 440.1 304.556 440.72 304.436 441.44C304.316 442.16 304.096 442.9 303.776 443.66C303.496 444.42 303.096 445.06 302.576 445.58C302.056 446.1 301.416 446.46 300.656 446.66C302.016 446.94 303.036 447.54 303.716 448.46C304.396 449.34 304.856 450.32 305.096 451.4C305.336 452.48 305.456 453.46 305.456 454.34V460.58C305.456 463.22 304.956 465.24 303.956 466.64C302.996 468 301.696 468.94 300.056 469.46C298.416 469.98 296.576 470.24 294.536 470.24H286.436ZM287.996 462.74H292.436C294.076 462.74 295.176 462.42 295.736 461.78C296.296 461.1 296.576 460.16 296.576 458.96V455C296.576 453.72 296.236 452.76 295.556 452.12C294.916 451.44 293.876 451.1 292.436 451.1H287.936C287.416 451.1 286.896 451.18 286.376 451.34C285.856 451.5 285.396 451.74 284.996 452.06C284.596 452.38 284.256 452.8 283.976 453.32C283.736 453.8 283.616 454.36 283.616 455V458.96C283.616 460.32 283.996 461.3 284.756 461.9C285.516 462.46 286.596 462.74 287.996 462.74ZM287.936 443.54H292.316C293.316 443.54 294.056 443.36 294.536 443C295.056 442.64 295.416 442.16 295.616 441.56C295.816 440.92 295.916 440.22 295.916 439.46V436.64C295.916 435.04 295.596 434 294.956 433.52C294.316 433.04 293.476 432.8 292.436 432.8H287.996C286.716 432.8 285.776 433.06 285.176 433.58C284.576 434.1 284.276 435.12 284.276 436.64V439.46C284.276 440.98 284.556 442.04 285.116 442.64C285.716 443.24 286.656 443.54 287.936 443.54Z" fill="#E1EFE6"/>
<g clip-path="url(#clip0_290_43)">
<path d="M221.5 300.05C324.501 300.05 408 263.774 408 219.025C408 174.276 324.501 138 221.5 138C118.499 138 35 174.276 35 219.025C35 263.774 118.499 300.05 221.5 300.05Z" fill="#8993BE"/>
<path fill-rule="evenodd" clip-rule="evenodd" d="M87.373 267L107.812 180.644H155.074C175.512 181.711 185.731 190.239 185.731 205.166C185.731 230.752 161.462 245.678 139.745 244.612H116.754L111.644 267H87.373ZM121.862 228.621L128.25 196.636H144.856C153.798 196.636 160.184 199.834 160.184 206.231C158.907 224.356 148.688 227.554 137.192 228.621H121.862ZM180.983 244.612L201.421 158.257H225.692L220.582 180.644H243.574C264.013 181.711 271.677 190.239 269.123 200.901L260.181 244.612H234.634L243.576 205.166C244.852 199.834 244.852 196.636 235.912 196.636H216.75L205.254 244.612H180.983ZM258.545 267L278.983 180.644H326.246C346.685 181.711 356.905 190.239 356.905 205.166C356.905 230.752 332.634 245.678 310.918 244.612H287.925L282.815 267H258.545ZM293.033 228.621L299.421 196.636H316.028C324.97 196.636 331.356 199.834 331.356 206.231C330.079 224.356 319.86 227.554 308.364 228.621H293.034H293.033Z" fill="#232531"/>
</g>
<defs>
<clipPath id="clip0_290_43">
<rect width="373" height="163" fill="white" transform="translate(35 138)"/>
</clipPath>
</defs>
</svg>
