<svg width="449" height="640" viewBox="0 0 449 640" fill="none" xmlns="http://www.w3.org/2000/svg">
<rect x="3" y="3" width="443" height="634" rx="37" fill="#000411" stroke="#3C99D4" stroke-width="6"/>
<path d="M114.036 480L100.116 435.6H109.296L119.676 470.4L130.056 435.6H139.176L125.256 480H114.036ZM156.218 480.36C155.058 480.36 153.858 480.32 152.618 480.24C151.418 480.2 150.178 480.12 148.898 480C147.658 479.84 146.478 479.68 145.358 479.52C144.238 479.32 143.218 479.1 142.298 478.86V471.84C143.498 471.96 144.858 472.06 146.378 472.14C147.898 472.22 149.478 472.28 151.118 472.32C152.758 472.36 154.318 472.38 155.798 472.38C157.318 472.38 158.618 472.26 159.698 472.02C160.818 471.74 161.678 471.28 162.278 470.64C162.878 469.96 163.178 469.04 163.178 467.88V466.26C163.178 464.94 162.778 463.94 161.978 463.26C161.218 462.54 160.118 462.18 158.678 462.18H154.898C150.658 462.18 147.398 461.26 145.118 459.42C142.878 457.54 141.758 454.36 141.758 449.88V447.72C141.758 443.4 142.998 440.24 145.478 438.24C147.958 436.24 151.498 435.24 156.098 435.24C157.738 435.24 159.358 435.32 160.958 435.48C162.598 435.64 164.158 435.84 165.638 436.08C167.158 436.28 168.458 436.5 169.538 436.74V443.76C167.698 443.64 165.638 443.52 163.358 443.4C161.118 443.28 159.038 443.22 157.118 443.22C155.758 443.22 154.538 443.36 153.458 443.64C152.418 443.88 151.618 444.36 151.058 445.08C150.498 445.8 150.218 446.82 150.218 448.14V449.34C150.218 450.9 150.658 452.02 151.538 452.7C152.418 453.38 153.718 453.72 155.438 453.72H159.818C162.498 453.72 164.698 454.22 166.418 455.22C168.178 456.18 169.478 457.52 170.318 459.24C171.198 460.96 171.638 462.92 171.638 465.12V467.64C171.638 471.12 170.978 473.78 169.658 475.62C168.378 477.46 166.578 478.72 164.258 479.4C161.978 480.04 159.298 480.36 156.218 480.36ZM208.579 480.36C205.979 480.36 203.679 480.06 201.679 479.46C199.719 478.86 198.039 477.76 196.639 476.16C195.279 474.56 194.239 472.28 193.519 469.32C192.839 466.32 192.499 462.44 192.499 457.68C192.499 453.08 192.859 449.32 193.579 446.4C194.339 443.44 195.419 441.16 196.819 439.56C198.219 437.92 199.919 436.78 201.919 436.14C203.919 435.5 206.179 435.18 208.699 435.18C210.699 435.18 212.559 435.3 214.279 435.54C216.039 435.74 217.619 436 219.019 436.32C220.419 436.6 221.599 436.92 222.559 437.28V444.18C221.839 444.02 220.859 443.86 219.619 443.7C218.419 443.54 217.039 443.42 215.479 443.34C213.919 443.22 212.279 443.16 210.559 443.16C208.879 443.16 207.439 443.36 206.239 443.76C205.079 444.12 204.139 444.82 203.419 445.86C202.739 446.86 202.219 448.32 201.859 450.24C201.539 452.16 201.379 454.66 201.379 457.74C201.379 460.7 201.519 463.14 201.799 465.06C202.119 466.98 202.619 468.48 203.299 469.56C203.979 470.6 204.899 471.34 206.059 471.78C207.259 472.18 208.759 472.38 210.559 472.38C213.599 472.38 216.059 472.32 217.939 472.2C219.859 472.08 221.399 471.94 222.559 471.78V478.62C221.479 478.98 220.239 479.3 218.839 479.58C217.439 479.82 215.899 480 214.219 480.12C212.539 480.28 210.659 480.36 208.579 480.36ZM245.369 480.36C242.329 480.36 239.669 480.08 237.389 479.52C235.109 478.92 233.189 477.84 231.629 476.28C230.109 474.68 228.969 472.4 228.209 469.44C227.449 466.48 227.069 462.62 227.069 457.86C227.069 453.1 227.449 449.24 228.209 446.28C229.009 443.28 230.169 440.98 231.689 439.38C233.209 437.78 235.109 436.68 237.389 436.08C239.669 435.48 242.329 435.18 245.369 435.18C248.409 435.18 251.069 435.48 253.349 436.08C255.629 436.68 257.529 437.78 259.049 439.38C260.569 440.98 261.709 443.28 262.469 446.28C263.229 449.24 263.609 453.1 263.609 457.86C263.609 462.62 263.229 466.48 262.469 469.44C261.709 472.4 260.569 474.68 259.049 476.28C257.529 477.84 255.629 478.92 253.349 479.52C251.069 480.08 248.409 480.36 245.369 480.36ZM245.369 472.38C247.169 472.38 248.669 472.18 249.869 471.78C251.069 471.38 252.009 470.68 252.689 469.68C253.409 468.64 253.929 467.18 254.249 465.3C254.569 463.38 254.729 460.9 254.729 457.86C254.729 454.66 254.569 452.1 254.249 450.18C253.929 448.26 253.409 446.8 252.689 445.8C252.009 444.76 251.069 444.06 249.869 443.7C248.669 443.34 247.169 443.16 245.369 443.16C243.649 443.16 242.189 443.34 240.989 443.7C239.789 444.06 238.809 444.76 238.049 445.8C237.329 446.8 236.789 448.26 236.429 450.18C236.109 452.1 235.949 454.66 235.949 457.86C235.949 460.9 236.089 463.38 236.369 465.3C236.689 467.18 237.209 468.64 237.929 469.68C238.649 470.68 239.609 471.38 240.809 471.78C242.049 472.18 243.569 472.38 245.369 472.38ZM270.162 480V435.6H288.942C291.942 435.6 294.442 436.14 296.442 437.22C298.442 438.26 300.022 439.78 301.182 441.78C302.382 443.74 303.222 446.08 303.702 448.8C304.182 451.52 304.422 454.52 304.422 457.8C304.422 462.8 303.842 466.94 302.682 470.22C301.562 473.5 299.862 475.96 297.582 477.6C295.302 479.2 292.422 480 288.942 480H270.162ZM279.042 472.02H288.042C289.882 472.02 291.342 471.5 292.422 470.46C293.502 469.38 294.282 467.78 294.762 465.66C295.282 463.54 295.542 460.92 295.542 457.8C295.542 454.92 295.382 452.56 295.062 450.72C294.742 448.84 294.262 447.38 293.622 446.34C293.022 445.3 292.242 444.58 291.282 444.18C290.362 443.78 289.282 443.58 288.042 443.58H279.042V472.02ZM321.744 480.3C320.784 480.3 319.684 480.2 318.444 480C317.204 479.84 316.004 479.44 314.844 478.8C313.724 478.16 312.784 477.2 312.024 475.92C311.304 474.6 310.944 472.8 310.944 470.52V445.74C310.944 443.78 311.244 442.14 311.844 440.82C312.444 439.5 313.244 438.46 314.244 437.7C315.244 436.94 316.344 436.4 317.544 436.08C318.744 435.76 319.924 435.6 321.084 435.6C324.084 435.6 326.724 435.64 329.004 435.72C331.324 435.8 333.404 435.9 335.244 436.02C337.084 436.1 338.764 436.22 340.284 436.38V443.82H323.724C322.484 443.82 321.524 444.12 320.844 444.72C320.164 445.32 319.824 446.24 319.824 447.48V453.9L337.404 454.38V461.4L319.824 461.88V468C319.824 469.04 319.984 469.86 320.304 470.46C320.664 471.02 321.124 471.42 321.684 471.66C322.284 471.86 322.904 471.96 323.544 471.96H340.284V479.4C338.524 479.6 336.564 479.76 334.404 479.88C332.284 480 330.124 480.1 327.924 480.18C325.764 480.26 323.704 480.3 321.744 480.3Z" fill="#E1EFE6"/>
<path d="M106.145 166.377C106.145 166.377 100.227 161.547 107.328 155.097L123.874 138.343C123.874 138.343 128.609 132.702 133.614 137.617L286.3 268.519V331.29C286.3 331.29 286.226 341.147 275.055 340.058L106.145 166.377Z" fill="#2489CA"/>
<path d="M145.5 206.838L106.145 247.354C106.145 247.354 102.101 250.76 106.145 256.848L124.417 275.668C124.417 275.668 128.757 280.945 135.168 274.942L176.89 239.116L145.5 206.838Z" fill="#1070B3"/>
<path d="M214.593 207.173L286.768 144.765L286.3 82.3296C286.3 82.3296 283.217 68.7033 272.935 75.7957L176.89 174.782L214.593 207.173Z" fill="#0877B9"/>
<path d="M275.055 340.142C279.247 345 284.327 343.409 284.327 343.409L340.573 312.023C347.773 306.467 346.762 299.57 346.762 299.57V112.151C346.762 103.914 339.315 101.066 339.315 101.066L290.566 74.4555C279.913 67.0001 272.935 75.7958 272.935 75.7958C272.935 75.7958 281.911 68.48 286.3 82.3298V330.145C286.3 331.848 285.979 333.524 285.338 335.032C284.056 337.964 281.269 340.7 274.587 339.555L275.055 340.142Z" fill="#3C99D4"/>
</svg>
