<svg width="449" height="640" viewBox="0 0 449 640" fill="none" xmlns="http://www.w3.org/2000/svg">
<rect x="3" y="3" width="443" height="634" rx="37" fill="#000411" stroke="#FFDE25" stroke-width="6"/>
<path d="M200.085 481.36C198.765 481.36 197.425 481.24 196.065 481C194.745 480.76 193.645 480.48 192.765 480.16V473.08C193.605 473.16 194.485 473.24 195.405 473.32C196.325 473.36 197.205 473.38 198.045 473.38C199.085 473.38 199.945 473.22 200.625 472.9C201.345 472.58 201.865 472.1 202.185 471.46C202.545 470.78 202.725 469.88 202.725 468.76V436.6H211.605V470.08C211.605 472.6 211.205 474.7 210.405 476.38C209.645 478.06 208.405 479.32 206.685 480.16C205.005 480.96 202.805 481.36 200.085 481.36ZM232.683 481.36C231.523 481.36 230.323 481.32 229.083 481.24C227.883 481.2 226.643 481.12 225.363 481C224.123 480.84 222.943 480.68 221.823 480.52C220.703 480.32 219.683 480.1 218.763 479.86V472.84C219.963 472.96 221.323 473.06 222.843 473.14C224.363 473.22 225.943 473.28 227.583 473.32C229.223 473.36 230.783 473.38 232.263 473.38C233.783 473.38 235.083 473.26 236.163 473.02C237.283 472.74 238.143 472.28 238.743 471.64C239.343 470.96 239.643 470.04 239.643 468.88V467.26C239.643 465.94 239.243 464.94 238.443 464.26C237.683 463.54 236.583 463.18 235.143 463.18H231.363C227.123 463.18 223.863 462.26 221.583 460.42C219.343 458.54 218.223 455.36 218.223 450.88V448.72C218.223 444.4 219.463 441.24 221.943 439.24C224.423 437.24 227.963 436.24 232.563 436.24C234.203 436.24 235.823 436.32 237.423 436.48C239.063 436.64 240.623 436.84 242.103 437.08C243.623 437.28 244.923 437.5 246.003 437.74V444.76C244.163 444.64 242.103 444.52 239.823 444.4C237.583 444.28 235.503 444.22 233.583 444.22C232.223 444.22 231.003 444.36 229.923 444.64C228.883 444.88 228.083 445.36 227.523 446.08C226.963 446.8 226.683 447.82 226.683 449.14V450.34C226.683 451.9 227.123 453.02 228.003 453.7C228.883 454.38 230.183 454.72 231.903 454.72H236.283C238.963 454.72 241.163 455.22 242.883 456.22C244.643 457.18 245.943 458.52 246.783 460.24C247.663 461.96 248.103 463.92 248.103 466.12V468.64C248.103 472.12 247.443 474.78 246.123 476.62C244.843 478.46 243.043 479.72 240.723 480.4C238.443 481.04 235.763 481.36 232.683 481.36Z" fill="#E1EFE6"/>
<g clip-path="url(#clip0_290_61)">
<path d="M120.85 322.089L100 75.4609L349 75.9565L326.953 322.089L225.44 350.539L120.85 322.089Z" fill="#E9CA32"/>
<path d="M225.44 326.721V98.9492L327.98 99.2796L309.694 303.065L225.44 326.721Z" fill="#FFDE25"/>
<path d="M214.46 125.994H187.351V277.593L166.266 273.706V253.298L141.165 249.411V295.085L214.46 313.549V125.994ZM234.795 125.994H309.843L304.823 155.051H263.444V202.732H304.823L299.802 298.972L234.795 313.549V283.424L278.718 268.847L281.254 229.004L234.795 235.515V125.994Z" fill="white"/>
</g>
<defs>
<clipPath id="clip0_290_61">
<rect width="249" height="276" fill="white" transform="translate(100 75)"/>
</clipPath>
</defs>
</svg>
