<svg width="3000" height="2500" viewBox="0 0 3000 2500" fill="none" xmlns="http://www.w3.org/2000/svg">
<path d="M1069.07 1470.37C1069.07 1470.37 1113.67 1509.28 1118.55 1636.43V1697.35L981.126 1713.31L983.864 1668.61L1069.07 1470.37Z" fill="#EFCB68"/>
<g opacity="0.2">
<path d="M1069.07 1470.37C1069.07 1470.37 1113.67 1509.28 1118.55 1636.43V1697.35L981.126 1713.31L983.864 1668.61L1069.07 1470.37Z" fill="black"/>
</g>
<path d="M2484.35 73.9138H1385.13C1365.95 73.9138 1350.41 90.3371 1350.41 110.596V2389.44C1350.41 2409.7 1365.95 2426.12 1385.13 2426.12H2484.35C2503.52 2426.12 2519.07 2409.7 2519.07 2389.44V110.596C2519.07 90.3371 2503.52 73.9138 2484.35 73.9138Z" fill="#000411"/>
<path d="M1954.08 167.926C1954.08 171.966 1952.94 175.916 1950.82 179.275C1948.69 182.634 1945.67 185.253 1942.14 186.799C1938.61 188.345 1934.72 188.75 1930.97 187.961C1927.22 187.173 1923.77 185.228 1921.07 182.371C1918.36 179.514 1916.52 175.874 1915.78 171.911C1915.03 167.949 1915.41 163.841 1916.88 160.109C1918.34 156.376 1920.82 153.185 1924 150.941C1927.18 148.696 1930.92 147.498 1934.74 147.498C1939.87 147.498 1944.79 149.65 1948.41 153.481C1952.04 157.312 1954.08 162.508 1954.08 167.926Z" fill="#EFCB68" stroke="#1A2E35" stroke-linecap="round" stroke-linejoin="round"/>
<path d="M2151.31 176.419L2139.32 205.707C2135.09 215.937 2128.12 224.635 2119.26 230.73C2110.41 236.826 2100.06 240.051 2089.49 240.009H1779.71C1769.16 240.011 1758.84 236.754 1750.01 230.64C1741.19 224.526 1734.25 215.822 1730.05 205.597L1718.06 176.31C1713.85 166.085 1706.91 157.381 1698.08 151.268C1689.25 145.155 1678.93 141.898 1668.37 141.897H1454.29C1449.12 141.897 1443.99 142.975 1439.21 145.069C1434.43 147.163 1430.08 150.232 1426.42 154.101C1422.76 157.971 1419.86 162.564 1417.88 167.618C1415.91 172.672 1414.89 178.089 1414.9 183.558V2316.37C1414.9 2327.41 1419.05 2338 1426.44 2345.8C1433.82 2353.61 1443.85 2357.99 1454.29 2357.99H2415.22C2425.67 2357.99 2435.69 2353.61 2443.08 2345.8C2450.47 2338 2454.62 2327.41 2454.62 2316.37V183.668C2454.62 178.199 2453.61 172.782 2451.63 167.728C2449.65 162.673 2446.75 158.08 2443.09 154.211C2439.43 150.342 2435.09 147.273 2430.3 145.179C2425.52 143.085 2420.4 142.007 2415.22 142.007H2200.97C2190.42 142.015 2180.1 145.275 2171.28 151.388C2162.46 157.501 2155.52 166.2 2151.31 176.419Z" fill="#EFCB68"/>
<mask id="mask0_178_2" style="mask-type:luminance" maskUnits="userSpaceOnUse" x="1414" y="141" width="1041" height="2217">
<path d="M2151.31 176.419L2139.32 205.707C2135.09 215.937 2128.12 224.635 2119.26 230.73C2110.41 236.826 2100.06 240.051 2089.49 240.009H1779.71C1769.16 240.011 1758.84 236.754 1750.01 230.64C1741.19 224.526 1734.25 215.822 1730.05 205.597L1718.06 176.31C1713.85 166.085 1706.91 157.381 1698.08 151.268C1689.25 145.155 1678.93 141.898 1668.37 141.897H1454.29C1449.12 141.897 1443.99 142.975 1439.21 145.069C1434.43 147.163 1430.08 150.232 1426.42 154.101C1422.76 157.971 1419.86 162.564 1417.88 167.618C1415.91 172.672 1414.89 178.089 1414.9 183.558V2316.37C1414.9 2327.41 1419.05 2338 1426.44 2345.8C1433.82 2353.61 1443.85 2357.99 1454.29 2357.99H2415.22C2425.67 2357.99 2435.69 2353.61 2443.08 2345.8C2450.47 2338 2454.62 2327.41 2454.62 2316.37V183.668C2454.62 178.199 2453.61 172.782 2451.63 167.728C2449.65 162.673 2446.75 158.08 2443.09 154.211C2439.43 150.342 2435.09 147.273 2430.3 145.179C2425.52 143.085 2420.4 142.007 2415.22 142.007H2200.97C2190.42 142.015 2180.1 145.275 2171.28 151.388C2162.46 157.501 2155.52 166.2 2151.31 176.419Z" fill="white"/>
</mask>
<g mask="url(#mask0_178_2)">
<path opacity="0.24" d="M2151.31 176.419L2139.32 205.707C2135.09 215.937 2128.12 224.635 2119.26 230.73C2110.41 236.826 2100.06 240.051 2089.49 240.009H1779.71C1769.16 240.011 1758.84 236.754 1750.01 230.64C1741.19 224.526 1734.25 215.822 1730.05 205.597L1718.06 176.31C1713.85 166.085 1706.91 157.381 1698.08 151.268C1689.25 145.155 1678.93 141.898 1668.37 141.897H1454.29C1449.12 141.897 1443.99 142.975 1439.21 145.069C1434.43 147.163 1430.08 150.232 1426.42 154.101C1422.76 157.971 1419.86 162.564 1417.88 167.618C1415.91 172.672 1414.89 178.089 1414.9 183.558V2316.37C1414.9 2327.41 1419.05 2338 1426.44 2345.8C1433.82 2353.61 1443.85 2357.99 1454.29 2357.99H2415.22C2425.67 2357.99 2435.69 2353.61 2443.08 2345.8C2450.47 2338 2454.62 2327.41 2454.62 2316.37V183.668C2454.62 178.199 2453.61 172.782 2451.63 167.728C2449.65 162.673 2446.75 158.08 2443.09 154.211C2439.43 150.342 2435.09 147.273 2430.3 145.179C2425.52 143.085 2420.4 142.007 2415.22 142.007H2200.97C2190.42 142.015 2180.1 145.275 2171.28 151.388C2162.46 157.501 2155.52 166.2 2151.31 176.419Z" fill="#EFCB68"/>
</g>
<path d="M2406.66 292.47H1462.82C1454.15 292.47 1447.12 299.895 1447.12 309.054V463.362C1447.12 472.521 1454.15 479.946 1462.82 479.946H2406.66C2415.33 479.946 2422.36 472.521 2422.36 463.362V309.054C2422.36 299.895 2415.33 292.47 2406.66 292.47Z" fill="white"/>
<path d="M1965.93 393.365C1969.53 389.542 1972.02 384.711 1973.12 379.441C1974.21 374.171 1973.86 368.68 1972.1 363.615C1970.34 358.55 1967.25 354.12 1963.19 350.847C1959.13 347.574 1954.27 345.593 1949.18 345.138C1944.09 344.683 1938.99 345.772 1934.47 348.277C1929.94 350.783 1926.19 354.6 1923.65 359.281C1921.11 363.962 1919.89 369.311 1920.13 374.701C1920.37 380.09 1922.06 385.295 1925 389.704C1924.36 389.967 1923.78 390.38 1923.3 390.912L1897.21 418.479C1896.69 418.96 1896.27 419.55 1895.97 420.212C1895.67 420.873 1895.51 421.592 1895.48 422.324C1895.46 423.056 1895.58 423.786 1895.83 424.467C1896.09 425.148 1896.47 425.767 1896.96 426.285C1897.45 426.803 1898.04 427.209 1898.68 427.478C1899.33 427.747 1900.02 427.872 1900.71 427.848C1901.4 427.823 1902.08 427.648 1902.71 427.333C1903.34 427.019 1903.89 426.572 1904.35 426.02L1930.44 398.454C1930.93 397.933 1931.31 397.309 1931.55 396.623C1936.73 400.448 1943.01 402.219 1949.3 401.622C1955.59 401.026 1961.48 398.102 1965.93 393.365ZM1932.69 388.386C1929.87 385.406 1927.95 381.61 1927.17 377.477C1926.4 373.344 1926.8 369.059 1928.32 365.166C1929.85 361.273 1932.43 357.945 1935.75 355.603C1939.07 353.262 1942.97 352.012 1946.95 352.012C1950.94 352.012 1954.84 353.262 1958.16 355.603C1961.48 357.945 1964.06 361.273 1965.59 365.166C1967.11 369.059 1967.51 373.344 1966.73 377.477C1965.96 381.61 1964.03 385.406 1961.21 388.386C1959.34 390.369 1957.12 391.942 1954.67 393.015C1952.23 394.088 1949.6 394.64 1946.95 394.64C1944.3 394.64 1941.68 394.088 1939.23 393.015C1936.79 391.942 1934.57 390.369 1932.69 388.386Z" fill="#000411"/>
<path d="M1604.37 348.299H1500.1C1499.2 348.329 1498.31 348.167 1497.47 347.823C1496.63 347.479 1495.86 346.961 1495.22 346.298C1494.57 345.636 1494.06 344.843 1493.7 343.967C1493.35 343.09 1493.17 342.148 1493.17 341.197C1493.17 339.255 1493.9 337.393 1495.2 336.02C1496.5 334.647 1498.27 333.875 1500.1 333.875H1604.37C1605.27 333.875 1606.16 334.065 1606.99 334.436C1607.82 334.807 1608.57 335.349 1609.2 336.032C1609.83 336.715 1610.32 337.524 1610.64 338.412C1610.97 339.299 1611.12 340.246 1611.09 341.197C1611.09 343.081 1610.39 344.887 1609.12 346.219C1607.86 347.551 1606.15 348.299 1604.37 348.299Z" fill="#000411"/>
<path d="M1590.86 389.118H1500.1C1498.27 389.118 1496.5 388.347 1495.2 386.974C1493.9 385.601 1493.17 383.738 1493.17 381.796C1493.17 380.845 1493.35 379.903 1493.7 379.027C1494.06 378.151 1494.57 377.358 1495.22 376.695C1495.86 376.033 1496.63 375.514 1497.47 375.171C1498.31 374.827 1499.2 374.665 1500.1 374.694H1590.86C1591.74 374.689 1592.62 374.87 1593.44 375.224C1594.26 375.579 1595 376.102 1595.63 376.762C1596.26 377.421 1596.76 378.206 1597.1 379.07C1597.44 379.934 1597.61 380.861 1597.61 381.796C1597.61 383.707 1596.91 385.542 1595.65 386.91C1594.38 388.278 1592.66 389.071 1590.86 389.118Z" fill="#000411"/>
<path d="M1577.38 429.901H1500.1C1499.2 429.93 1498.31 429.768 1497.47 429.425C1496.63 429.081 1495.86 428.562 1495.22 427.9C1494.57 427.238 1494.06 426.445 1493.7 425.568C1493.35 424.692 1493.17 423.75 1493.17 422.799C1493.22 420.889 1493.97 419.073 1495.26 417.739C1496.56 416.406 1498.3 415.659 1500.1 415.66H1577.38C1579.19 415.659 1580.92 416.406 1582.22 417.739C1583.51 419.073 1584.26 420.889 1584.31 422.799C1584.31 423.75 1584.13 424.692 1583.78 425.568C1583.43 426.445 1582.91 427.238 1582.27 427.9C1581.62 428.562 1580.85 429.081 1580.01 429.425C1579.17 429.768 1578.28 429.93 1577.38 429.901Z" fill="#000411"/>
<path d="M2406.66 535.445H1462.82C1454.15 535.445 1447.12 542.87 1447.12 552.029V1100.36C1447.12 1109.52 1454.15 1116.94 1462.82 1116.94H2406.66C2415.33 1116.94 2422.36 1109.52 2422.36 1100.36V552.029C2422.36 542.87 2415.33 535.445 2406.66 535.445Z" fill="white"/>
<path d="M2299.76 608.553H1569.75V1043.84H2299.76V608.553Z" fill="#000411"/>
<path opacity="0.2" d="M2077.43 872.322H1629.87C1626.67 872.322 1623.59 870.976 1621.32 868.58C1619.05 866.184 1617.78 862.934 1617.78 859.545C1617.78 856.157 1619.05 852.907 1621.32 850.511C1623.59 848.115 1626.67 846.769 1629.87 846.769H2077.43C2080.64 846.769 2083.72 848.115 2085.99 850.511C2088.25 852.907 2089.53 856.157 2089.53 859.545C2089.53 862.934 2088.25 866.184 2085.99 868.58C2083.72 870.976 2080.64 872.322 2077.43 872.322Z" fill="black"/>
<path opacity="0.2" d="M2042.19 925.954H1629.84C1626.63 925.954 1623.56 924.608 1621.29 922.212C1619.02 919.816 1617.75 916.566 1617.75 913.178C1617.75 909.789 1619.02 906.539 1621.29 904.143C1623.56 901.747 1626.63 900.401 1629.84 900.401H2042.19C2045.4 900.401 2048.48 901.747 2050.75 904.143C2053.01 906.539 2054.29 909.789 2054.29 913.178C2054.28 916.563 2053 919.807 2050.74 922.201C2048.47 924.595 2045.4 925.945 2042.19 925.954Z" fill="black"/>
<path d="M1853.65 997.745C1853.65 999.917 1853.05 1002.04 1851.9 1003.85C1850.76 1005.65 1849.14 1007.06 1847.24 1007.89C1845.34 1008.72 1843.25 1008.94 1841.23 1008.52C1839.21 1008.09 1837.36 1007.05 1835.91 1005.51C1834.45 1003.97 1833.46 1002.02 1833.06 999.887C1832.66 997.757 1832.87 995.549 1833.66 993.542C1834.44 991.535 1835.77 989.82 1837.48 988.613C1839.19 987.406 1841.2 986.762 1843.26 986.762C1846.02 986.762 1848.66 987.919 1850.61 989.979C1852.56 992.038 1853.65 994.832 1853.65 997.745Z" fill="white"/>
<path d="M1914.71 997.745C1914.71 999.917 1914.1 1002.04 1912.96 1003.85C1911.82 1005.65 1910.19 1007.06 1908.29 1007.89C1906.39 1008.72 1904.3 1008.94 1902.29 1008.52C1900.27 1008.09 1898.42 1007.05 1896.96 1005.51C1895.51 1003.97 1894.52 1002.02 1894.12 999.887C1893.72 997.757 1893.92 995.549 1894.71 993.542C1895.5 991.535 1896.83 989.82 1898.54 988.613C1900.25 987.406 1902.26 986.762 1904.32 986.762C1907.07 986.762 1909.72 987.919 1911.67 989.979C1913.62 992.038 1914.71 994.832 1914.71 997.745Z" fill="white"/>
<path d="M1975.73 997.745C1975.73 999.917 1975.12 1002.04 1973.98 1003.85C1972.84 1005.65 1971.21 1007.06 1969.32 1007.89C1967.42 1008.72 1965.33 1008.94 1963.31 1008.52C1961.29 1008.09 1959.44 1007.05 1957.99 1005.51C1956.53 1003.97 1955.54 1002.02 1955.14 999.887C1954.74 997.757 1954.95 995.549 1955.73 993.542C1956.52 991.535 1957.85 989.82 1959.56 988.613C1961.27 987.406 1963.28 986.762 1965.34 986.762C1968.09 986.762 1970.74 987.919 1972.69 989.979C1974.64 992.038 1975.73 994.832 1975.73 997.745Z" fill="white"/>
<path d="M2036.79 997.745C2036.79 999.917 2036.18 1002.04 2035.04 1003.85C2033.89 1005.65 2032.27 1007.06 2030.37 1007.89C2028.47 1008.72 2026.38 1008.94 2024.36 1008.52C2022.35 1008.09 2020.5 1007.05 2019.04 1005.51C2017.59 1003.97 2016.6 1002.02 2016.2 999.887C2015.8 997.757 2016 995.549 2016.79 993.542C2017.58 991.535 2018.91 989.82 2020.62 988.613C2022.33 987.406 2024.34 986.762 2026.39 986.762C2029.15 986.762 2031.79 987.919 2033.74 989.979C2035.69 992.038 2036.79 994.832 2036.79 997.745Z" fill="white"/>
<path d="M2340.06 879.863C2338.54 879.859 2337.05 879.402 2335.77 878.543C2334.48 877.684 2333.45 876.459 2332.79 875.01C2332.14 873.56 2331.89 871.944 2332.06 870.348C2332.24 868.752 2332.84 867.241 2333.79 865.989L2364.35 826.194L2333.79 786.4C2332.44 784.648 2331.81 782.402 2332.03 780.157C2332.25 777.912 2333.31 775.852 2334.97 774.429C2336.63 773.007 2338.75 772.339 2340.88 772.572C2343 772.806 2344.95 773.921 2346.3 775.674L2380.95 820.85C2382.12 822.362 2382.76 824.257 2382.76 826.213C2382.76 828.169 2382.12 830.064 2380.95 831.576L2346.3 876.715C2345.55 877.703 2344.6 878.499 2343.52 879.045C2342.44 879.59 2341.26 879.87 2340.06 879.863Z" fill="#000411"/>
<path d="M1529.45 879.863C1528.25 879.87 1527.06 879.59 1525.98 879.045C1524.89 878.5 1523.94 877.704 1523.18 876.715L1488.53 831.576C1487.37 830.058 1486.73 828.165 1486.73 826.213C1486.73 824.261 1487.37 822.368 1488.53 820.85L1523.18 775.674C1524.53 773.921 1526.48 772.806 1528.6 772.572C1530.73 772.339 1532.85 773.007 1534.51 774.429C1536.17 775.852 1537.23 777.912 1537.45 780.157C1537.67 782.402 1537.04 784.648 1535.69 786.4L1505.13 826.194L1535.69 865.989C1536.64 867.238 1537.24 868.746 1537.42 870.339C1537.6 871.931 1537.34 873.545 1536.69 874.993C1536.04 876.442 1535.02 877.667 1533.74 878.528C1532.46 879.39 1530.97 879.853 1529.45 879.863Z" fill="#000411"/>
<path d="M1646.47 1185.73H1491.23C1475.79 1185.73 1463.27 1198.96 1463.27 1215.28V1379.29C1463.27 1395.6 1475.79 1408.83 1491.23 1408.83H1646.47C1661.92 1408.83 1674.44 1395.6 1674.44 1379.29V1215.28C1674.44 1198.96 1661.92 1185.73 1646.47 1185.73Z" fill="#000411"/>
<path opacity="0.5" d="M1568.82 1366C1551.58 1365.98 1535.06 1358.73 1522.88 1345.84C1510.71 1332.96 1503.87 1315.49 1503.88 1297.28C1503.88 1279.06 1510.73 1261.59 1522.92 1248.7C1535.11 1235.82 1551.64 1228.57 1568.89 1228.57C1586.14 1228.57 1602.68 1235.8 1614.88 1248.69C1627.08 1261.58 1633.93 1279.06 1633.93 1297.28C1633.93 1306.31 1632.24 1315.25 1628.97 1323.59C1625.7 1331.94 1620.9 1339.51 1614.85 1345.9C1608.81 1352.28 1601.63 1357.34 1593.73 1360.79C1585.83 1364.24 1577.37 1366.01 1568.82 1366Z" fill="white"/>
<path d="M1662.31 1476.12H1475.19C1471.98 1476.12 1468.91 1474.77 1466.64 1472.37C1464.37 1469.98 1463.1 1466.73 1463.1 1463.34C1463.1 1459.95 1464.37 1456.7 1466.64 1454.31C1468.91 1451.91 1471.98 1450.56 1475.19 1450.56H1662.31C1665.52 1450.56 1668.59 1451.91 1670.86 1454.31C1673.13 1456.7 1674.4 1459.95 1674.4 1463.34C1674.4 1466.73 1673.13 1469.98 1670.86 1472.37C1668.59 1474.77 1665.52 1476.12 1662.31 1476.12Z" fill="#000411"/>
<path d="M2406.66 1561.78H1462.82C1454.15 1561.78 1447.12 1569.21 1447.12 1578.37V1868.2C1447.12 1877.36 1454.15 1884.78 1462.82 1884.78H2406.66C2415.33 1884.78 2422.36 1877.36 2422.36 1868.2V1578.37C2422.36 1569.21 2415.33 1561.78 2406.66 1561.78Z" fill="white"/>
<path d="M1812.63 1612.85H1495.5V1833.68H1812.63V1612.85Z" fill="#000411"/>
<path d="M2309.08 1639.1H1861.52C1858.31 1639.1 1855.24 1637.75 1852.97 1635.36C1850.7 1632.96 1849.43 1629.71 1849.43 1626.32C1849.43 1622.93 1850.7 1619.68 1852.97 1617.29C1855.24 1614.89 1858.31 1613.55 1861.52 1613.55H2309.08C2312.29 1613.55 2315.36 1614.89 2317.63 1617.29C2319.9 1619.68 2321.17 1622.93 2321.17 1626.32C2321.17 1629.71 2319.9 1632.96 2317.63 1635.36C2315.36 1637.75 2312.29 1639.1 2309.08 1639.1Z" fill="#000411"/>
<path d="M2273.84 1692.73H1861.49C1858.28 1692.73 1855.2 1691.39 1852.93 1688.99C1850.67 1686.59 1849.39 1683.34 1849.39 1679.96C1849.39 1676.57 1850.67 1673.32 1852.93 1670.92C1855.2 1668.53 1858.28 1667.18 1861.49 1667.18H2273.84C2277.05 1667.18 2280.12 1668.53 2282.39 1670.92C2284.66 1673.32 2285.93 1676.57 2285.93 1679.96C2285.93 1683.34 2284.66 1686.59 2282.39 1688.99C2280.12 1691.39 2277.05 1692.73 2273.84 1692.73Z" fill="#000411"/>
<path d="M2296.99 1746.25H1861.52C1858.31 1746.25 1855.24 1744.91 1852.97 1742.51C1850.7 1740.12 1849.43 1736.87 1849.43 1733.48C1849.43 1730.09 1850.7 1726.84 1852.97 1724.44C1855.24 1722.05 1858.31 1720.7 1861.52 1720.7H2296.99C2300.19 1720.7 2303.27 1722.05 2305.54 1724.44C2307.81 1726.84 2309.08 1730.09 2309.08 1733.48C2309.08 1736.87 2307.81 1740.12 2305.54 1742.51C2303.27 1744.91 2300.19 1746.25 2296.99 1746.25Z" fill="#000411"/>
<path d="M2220.44 1800H1861.52C1858.31 1800 1855.24 1798.65 1852.97 1796.25C1850.7 1793.86 1849.43 1790.61 1849.43 1787.22C1849.43 1783.83 1850.7 1780.58 1852.97 1778.19C1855.24 1775.79 1858.31 1774.44 1861.52 1774.44H2220.44C2223.65 1774.44 2226.73 1775.79 2228.99 1778.19C2231.26 1780.58 2232.54 1783.83 2232.54 1787.22C2232.54 1790.61 2231.26 1793.86 2228.99 1796.25C2226.73 1798.65 2223.65 1800 2220.44 1800Z" fill="#000411"/>
<path d="M2134.06 1185.73H1978.82C1963.37 1185.73 1950.85 1198.96 1950.85 1215.28V1379.29C1950.85 1395.6 1963.37 1408.83 1978.82 1408.83H2134.06C2149.5 1408.83 2162.02 1395.6 2162.02 1379.29V1215.28C2162.02 1198.96 2149.5 1185.73 2134.06 1185.73Z" fill="#000411"/>
<path opacity="0.5" d="M2056.44 1366C2039.19 1366 2022.64 1358.76 2010.45 1345.87C1998.25 1332.98 1991.4 1315.5 1991.4 1297.28C1991.4 1279.06 1998.26 1261.59 2010.46 1248.7C2022.65 1235.82 2039.19 1228.57 2056.44 1228.57C2073.69 1228.57 2090.23 1235.8 2102.43 1248.69C2114.62 1261.58 2121.48 1279.06 2121.48 1297.28C2121.48 1315.5 2114.62 1332.98 2102.43 1345.87C2090.23 1358.76 2073.69 1366 2056.44 1366Z" fill="white"/>
<path d="M2149.93 1476.12H1962.81C1959.6 1476.12 1956.52 1474.77 1954.26 1472.37C1951.99 1469.98 1950.71 1466.73 1950.71 1463.34C1950.71 1459.95 1951.99 1456.7 1954.26 1454.31C1956.52 1451.91 1959.6 1450.56 1962.81 1450.56H2149.93C2153.13 1450.56 2156.21 1451.91 2158.48 1454.31C2160.75 1456.7 2162.02 1459.95 2162.02 1463.34C2162.02 1466.73 2160.75 1469.98 2158.48 1472.37C2156.21 1474.77 2153.13 1476.12 2149.93 1476.12Z" fill="#000411"/>
<path d="M2377.86 1185.73H2222.63C2207.18 1185.73 2194.66 1198.96 2194.66 1215.28V1379.29C2194.66 1395.6 2207.18 1408.83 2222.63 1408.83H2377.86C2393.31 1408.83 2405.83 1395.6 2405.83 1379.29V1215.28C2405.83 1198.96 2393.31 1185.73 2377.86 1185.73Z" fill="#000411"/>
<path opacity="0.5" d="M2300.24 1366C2282.99 1366 2266.45 1358.76 2254.25 1345.87C2242.06 1332.98 2235.2 1315.5 2235.2 1297.28C2235.21 1279.06 2242.07 1261.59 2254.26 1248.7C2266.46 1235.82 2283 1228.57 2300.24 1228.57C2317.49 1228.57 2334.04 1235.8 2346.24 1248.69C2358.43 1261.58 2365.29 1279.06 2365.29 1297.28C2365.29 1315.5 2358.43 1332.98 2346.24 1345.87C2334.04 1358.76 2317.49 1366 2300.24 1366Z" fill="white"/>
<path d="M2393.73 1476.12H2206.62C2203.41 1476.12 2200.33 1474.77 2198.06 1472.37C2195.8 1469.98 2194.52 1466.73 2194.52 1463.34C2194.52 1459.95 2195.8 1456.7 2198.06 1454.31C2200.33 1451.91 2203.41 1450.56 2206.62 1450.56H2393.73C2396.94 1450.56 2400.02 1451.91 2402.29 1454.31C2404.55 1456.7 2405.83 1459.95 2405.83 1463.34C2405.83 1466.73 2404.55 1469.98 2402.29 1472.37C2400.02 1474.77 2396.94 1476.12 2393.73 1476.12Z" fill="#000411"/>
<path d="M1890.28 1185.73H1735.04C1719.6 1185.73 1707.08 1198.96 1707.08 1215.28V1379.29C1707.08 1395.6 1719.6 1408.83 1735.04 1408.83H1890.28C1905.73 1408.83 1918.25 1395.6 1918.25 1379.29V1215.28C1918.25 1198.96 1905.73 1185.73 1890.28 1185.73Z" fill="#000411"/>
<path d="M1906.12 1476.12H1719C1717.41 1476.12 1715.84 1475.79 1714.38 1475.14C1712.91 1474.5 1711.58 1473.56 1710.46 1472.37C1709.34 1471.18 1708.45 1469.78 1707.85 1468.23C1707.24 1466.68 1706.93 1465.02 1706.94 1463.34C1706.93 1461.66 1707.24 1460 1707.85 1458.45C1708.45 1456.9 1709.34 1455.49 1710.46 1454.31C1711.58 1453.12 1712.91 1452.18 1714.38 1451.54C1715.84 1450.89 1717.41 1450.56 1719 1450.56H1906.12C1909.32 1450.56 1912.4 1451.91 1914.67 1454.31C1916.94 1456.7 1918.21 1459.95 1918.21 1463.34C1918.21 1466.73 1916.94 1469.98 1914.67 1472.37C1912.4 1474.77 1909.32 1476.12 1906.12 1476.12Z" fill="#000411"/>
<path opacity="0.5" d="M1812.63 1366C1795.38 1366 1778.83 1358.76 1766.64 1345.87C1754.44 1332.98 1747.59 1315.5 1747.59 1297.28C1747.6 1279.06 1754.45 1261.59 1766.65 1248.7C1778.84 1235.82 1795.38 1228.57 1812.63 1228.57C1829.88 1228.57 1846.42 1235.8 1858.62 1248.69C1870.82 1261.58 1877.67 1279.06 1877.67 1297.28C1877.67 1315.5 1870.82 1332.98 1858.62 1345.87C1846.42 1358.76 1829.88 1366 1812.63 1366Z" fill="white"/>
<path d="M1281.24 1943.65C1281.24 1943.65 1316.52 1932.12 1328.96 1936.33L1398.47 1970.67C1398.47 1970.67 1404.5 1977.51 1390.26 1980.44C1377.23 1983.15 1361.08 1973.74 1361.08 1973.74L1342.79 1972.43L1352.87 1986.01L1398.23 2012.59C1398.23 2012.59 1431.25 2030.89 1425.95 2035.47C1420.65 2040.04 1409.91 2038.29 1395.66 2030.38L1363.33 2012.4C1363.33 2012.4 1357.58 2009.69 1365.83 2018.96C1374.08 2028.22 1414.34 2048.76 1419.47 2052.97C1424.6 2057.18 1439.29 2063.03 1435.79 2071.86C1432.29 2080.68 1414.58 2069 1414.58 2069L1354.74 2039.49C1354.74 2039.49 1377.3 2056.41 1381.11 2059.45C1384.92 2062.48 1397.88 2069.59 1404.47 2075.08C1411.05 2080.57 1413.54 2086.54 1411.88 2090.45C1411.19 2092.34 1409.85 2093.89 1408.13 2094.77C1406.4 2095.65 1404.43 2095.81 1402.59 2095.21L1353.22 2063.99C1353.22 2063.99 1331.07 2048.39 1329.38 2048.39C1327.68 2048.39 1336.55 2061.75 1336.55 2061.75L1351.73 2074.75C1351.73 2074.75 1374.53 2088.92 1373.14 2096.13C1371.75 2103.34 1366.7 2101.95 1366.7 2101.95L1325.11 2075.63L1280.52 2037.74L1243.09 2007.46L1215.37 1991.35C1214.57 1990.18 1252.83 1946.07 1266.55 1933.73L1281.24 1943.65Z" fill="#F9B499"/>
<path d="M1291.71 1990.69C1295.04 1992.48 1298.62 1993.72 1302.31 1994.36C1306.3 1994.86 1310.35 1994.44 1314.16 1993.11C1318.32 1991.61 1322.07 1989.06 1325.09 1985.68C1328.1 1982.31 1330.3 1978.21 1331.49 1973.74V1973.38H1331.84C1338.18 1972.26 1344.61 1971.87 1351.03 1972.21C1353.39 1972.21 1355.26 1972.57 1356.54 1972.76C1357.2 1972.78 1357.86 1972.92 1358.48 1973.16C1358.48 1973.34 1355.71 1973.16 1351 1973.16C1344.65 1973.09 1338.3 1973.65 1332.04 1974.81L1332.53 1974.33C1331.46 1978.46 1329.56 1982.29 1326.95 1985.57C1323.67 1989.75 1319.33 1992.86 1314.44 1994.54C1310.46 1995.83 1306.26 1996.16 1302.14 1995.53C1299.38 1995.09 1296.7 1994.18 1294.2 1992.85L1292.26 1991.65C1291.87 1991.06 1291.69 1990.74 1291.71 1990.69Z" fill="#B26763"/>
<path d="M1124.06 1813.18C1124.06 1813.18 1105.28 1686.91 1107.92 1674.32L986.116 1682.96L1021.08 1874.57L1228.71 1999.41L1270.29 1937.17L1124.06 1813.18Z" fill="#F9B499"/>
<path d="M717.705 1383.57C717.705 1383.57 551.377 1685.52 524.418 1834.23L518.354 1860.8C510.657 1868.34 504.741 1877.68 501.081 1888.07C497.422 1898.46 496.122 1909.61 497.286 1920.62L501.374 1958.37L908.67 1900.01L942.524 1799.78L1072.71 1486.33L1069.07 1470.33L1014.5 1420.65C955.9 1457.96 921.941 1422.63 889.75 1346.67L810.328 1337.04L717.705 1383.57Z" fill="#EFCB68"/>
<g opacity="0.3">
<path d="M712.091 1568.15C712.091 1568.15 694.765 1736.99 741.025 1776.82C787.285 1816.65 938.297 1812.15 938.297 1812.15L942.42 1799.89L741.025 1640.6L733.644 1565.99L712.091 1568.15Z" fill="black"/>
</g>
<path d="M1170.25 1216.96C1163.71 1203.78 1155.04 1190.6 1155.46 1175.7C1155.81 1162.01 1163.91 1148.57 1160.41 1135.43C1156.15 1119.21 1136.71 1112.33 1130.54 1096.77C1127.56 1089.27 1128.08 1080.59 1125.14 1073.01C1120.15 1060.16 1106.36 1053.57 1093.29 1051.78C1080.23 1049.99 1066.89 1051.78 1053.93 1049.4C1036.12 1046.25 1019.28 1035.64 1001.36 1036.66C981.473 1037.83 966.157 1052.29 950.286 1065.95L930.119 1081.43C926.149 1083.98 921.947 1086.11 917.575 1087.77C909.917 1090.62 901.635 1091.79 894.636 1096.15C891.043 1098.61 887.958 1101.82 885.564 1105.57C883.171 1109.32 881.519 1113.55 880.707 1117.99C879.895 1122.44 879.94 1127.01 880.839 1131.43C881.737 1135.85 883.472 1140.04 885.938 1143.74C878.666 1144.48 871.811 1147.67 866.383 1152.84C860.956 1158.01 857.243 1164.88 855.791 1172.44C854.371 1180.75 855.791 1189.28 856.38 1197.74C856.969 1206.2 856.38 1215.28 851.529 1222.01C846.678 1228.75 836.386 1231.64 830.53 1225.89C830.563 1231.52 831.788 1237.08 834.114 1242.14C836.44 1247.21 839.81 1251.67 843.975 1255.18C839.353 1258.24 833.803 1259.32 828.451 1258.22C834.654 1297.06 869.097 1325.4 905.343 1334.77C941.589 1344.14 979.602 1338.43 1016.47 1332.57L1120.22 1330.41C1129.26 1330.41 1135.33 1320.38 1137.3 1311.05C1139.28 1301.71 1139.24 1291.5 1144.23 1283.63C1151.16 1272.64 1165.75 1269.79 1172.92 1259.1C1181.24 1247.13 1176.8 1230.07 1170.25 1216.96Z" fill="#000411"/>
<path d="M917.853 1252.8C916.051 1227.69 914.387 1202.43 916.709 1177.35C919.031 1152.27 925.511 1127.23 938.886 1106.36C940.896 1103.22 956.697 1082.57 960.093 1083.85C962.519 1084.73 951.118 1104.83 951.846 1107.46C958.776 1132.43 956.073 1159.56 948.381 1184.34C940.655 1208.31 930.427 1231.3 917.887 1252.87" fill="#000411"/>
<path d="M1056.87 1069.35L1051.57 1067.67C993.428 1053.02 949.212 1096.96 936.98 1158.86L884.067 1368.89C879.463 1387.19 881.68 1406.66 890.26 1423.29C898.841 1439.91 913.133 1452.43 930.189 1458.25C939.034 1461.29 948.364 1462.43 957.633 1461.62C966.902 1460.8 975.923 1458.04 984.17 1453.5C992.417 1448.95 999.724 1442.72 1005.66 1435.15C1011.6 1427.59 1016.05 1418.85 1018.76 1409.45C1021.95 1398.47 1024.16 1390.89 1024.23 1390.93C1024.3 1390.96 1081.72 1399.35 1098.91 1341.54C1107.22 1313.61 1119.87 1254.63 1130.75 1201.11C1136.37 1173.36 1131.89 1144.39 1118.2 1119.97C1104.51 1095.55 1082.61 1077.48 1056.87 1069.35Z" fill="#F9B499"/>
<path d="M1024.16 1391.15C998.806 1383.02 976.186 1367.38 958.984 1346.08C958.984 1346.08 963.489 1393.67 1019.76 1406.01L1024.16 1391.15Z" fill="#B26763"/>
<path d="M929.322 1203.27C928.525 1202.54 894.948 1179.47 884.864 1219.52C874.781 1259.57 914.907 1262.03 915.254 1260.89C915.6 1259.76 929.322 1203.27 929.322 1203.27Z" fill="#F9B499"/>
<path d="M1122.3 1128C1129.23 1126.1 1115.96 1100.03 1102.62 1088.68C1082.45 1071.55 1049.18 1055.33 1026.59 1055.95C999.388 1056.65 975.097 1064.26 956.454 1085.24C937.812 1106.22 926.1 1133.27 920.07 1161.31C917.679 1169.75 917.476 1178.72 919.481 1187.27C922.634 1197.59 931.436 1205.94 928.04 1218.06C927.36 1220.24 927.096 1222.54 927.262 1224.82C927.429 1227.11 928.023 1229.34 929.01 1231.38C934.035 1241.09 944.326 1236.07 950.044 1229.74C962.207 1216.3 967.716 1197.78 972.81 1179.95C976.448 1167.32 980.121 1154.32 979.74 1141.14C979.532 1133.82 978.077 1126.79 978.216 1119.62C978.075 1116.01 978.677 1112.41 979.982 1109.07C981.286 1105.74 983.261 1102.74 985.77 1100.29C987.009 1099.36 988.319 1098.54 989.685 1097.83C996.168 1094.39 1003.4 1092.83 1010.64 1093.32C1017.88 1093.81 1024.87 1096.33 1030.89 1100.62C1050.36 1114.42 1084.01 1136.27 1095.41 1131.19C1111.8 1123.86 1116.86 1117.57 1116.86 1117.57L1122.3 1128Z" fill="#000411"/>
<path d="M1029.92 1051.05C1052.58 1049.33 1076.25 1056.14 1093.19 1072.17C1102.2 1080.66 1109.34 1092.31 1109.61 1105.12C1109.89 1117.93 1101.54 1131.19 1089.59 1132.91L1088.72 1133.2C1071.12 1134.55 1061 1129.54 1046.41 1119.1C1034 1110.43 1024.06 1098.31 1011.76 1089.82C998.417 1080.55 982.747 1075.73 966.781 1075.98C985.379 1061.94 1007.16 1053.34 1029.92 1051.05Z" fill="#000411"/>
<path d="M696.117 2097.7L527.744 2068.41L492.053 2289.31C572.999 2316.26 570.816 2184.43 570.816 2184.43L677.959 2207.9L696.117 2097.7Z" fill="#3F3D56"/>
<path d="M527.744 2068.16L544.585 2071.82L504.147 2282.47C504.147 2282.47 498.498 2291.58 492.123 2289.31L527.744 2068.16Z" fill="#000411"/>
<path d="M844.98 2018C844.98 2018 1071.05 2143.57 1116.41 2199.37C1139.45 2227.7 1128.4 2321.64 1078.5 2351.18C1028.6 2380.73 974.543 2351.18 941.658 2342.73C908.774 2334.27 651.451 2235.21 651.451 2235.21L687.35 2018H844.98Z" fill="#000411"/>
<g opacity="0.2">
<path d="M844.98 2018C844.98 2018 1071.05 2143.57 1116.41 2199.37C1139.45 2227.7 1128.4 2321.64 1078.5 2351.18C1028.6 2380.73 974.543 2351.18 941.658 2342.73C908.774 2334.27 651.451 2235.21 651.451 2235.21L687.35 2018H844.98Z" fill="black"/>
</g>
<path d="M705.299 2134.68L578.301 2255.12L719.299 2422.83C793.072 2380.47 691.127 2292.28 691.127 2292.28L775.504 2218.51L705.299 2134.68Z" fill="#3F3D56"/>
<path d="M578.301 2255.12L591.538 2243.52L721.794 2408.66C721.794 2408.66 724.982 2418.98 719.299 2422.83L578.301 2255.12Z" fill="#000411"/>
<path d="M965.395 1847.77C991.537 1844.99 1017.88 1850.23 1041.28 1862.85C1054.21 1870.18 1067.24 1879.4 1073.27 1893.17C1092.7 1937.39 1098.42 2004.46 1063.87 2042.09C1034.77 2073.83 766.598 2260.21 766.598 2260.21L656.891 2165.98L725.779 2098.43C725.779 2098.43 621.581 2114.73 581.663 2097.85C541.744 2080.97 480.93 2025.51 501.375 1958.37L516.31 1939.18C529.265 1922.69 545.174 1909.06 563.126 1899.07C581.077 1889.08 600.718 1882.93 620.923 1880.98L965.395 1847.77Z" fill="#000411"/>
<path d="M1132.35 1676.15C1133.07 1675.86 1171.61 1777.01 1218.35 1902.06C1265.1 2027.12 1302.42 2128.78 1301.52 2129.04C1300.61 2129.3 1262.46 2028.15 1215.68 1903.16C1168.9 1778.18 1131.62 1676.44 1132.35 1676.15Z" fill="#1A2E35"/>
<path d="M1159.13 1664.98C1159.89 1664.65 1198.39 1765.8 1245.14 1890.86C1291.88 2015.92 1329.24 2117.62 1328.47 2117.84C1327.71 2118.06 1289.25 2017.16 1242.47 1892C1195.69 1766.83 1158.4 1665.28 1159.13 1664.98Z" fill="#1A2E35"/>
<path d="M1185.95 1653.78C1186.68 1653.49 1225.18 1754.64 1271.92 1879.7C1318.67 2004.75 1356.02 2106.42 1355.29 2106.67C1354.57 2106.93 1316.03 2005.85 1269.29 1880.76C1222.54 1755.66 1185.09 1654.07 1185.95 1653.78Z" fill="#1A2E35"/>
<path d="M1412.27 2139.03L1207.09 1558.93C1204.05 1550.35 1195.01 1545.99 1186.89 1549.2L1034.95 1609.19C1026.83 1612.39 1022.7 1621.95 1025.74 1630.53L1230.92 2210.63C1233.96 2219.21 1243 2223.56 1251.12 2220.36L1403.06 2160.37C1411.18 2157.16 1415.31 2147.61 1412.27 2139.03Z" fill="white" stroke="#1A2E35" stroke-width="0.75" stroke-linecap="round" stroke-linejoin="round"/>
<path d="M1183.61 1585.03L1059.62 1633.98L1129.92 1832.74L1253.91 1783.79L1183.61 1585.03Z" fill="#000411"/>
<path d="M1349.23 2100.7L1250.02 1820.21C1249.67 1819.21 1249.5 1818.15 1249.54 1817.09C1249.57 1816.03 1249.81 1814.98 1250.23 1814.02C1250.64 1813.05 1251.24 1812.18 1251.98 1811.46C1252.72 1810.74 1253.58 1810.17 1254.53 1809.81C1255.47 1809.43 1256.47 1809.26 1257.48 1809.3C1258.48 1809.33 1259.47 1809.58 1260.39 1810.02C1261.3 1810.47 1262.12 1811.09 1262.81 1811.87C1263.49 1812.65 1264.02 1813.57 1264.37 1814.57L1363.58 2095.03C1363.93 2096.03 1364.1 2097.09 1364.06 2098.15C1364.03 2099.22 1363.79 2100.27 1363.38 2101.24C1362.96 2102.21 1362.36 2103.08 1361.62 2103.8C1360.88 2104.53 1360.02 2105.09 1359.07 2105.46C1357.17 2106.2 1355.07 2106.11 1353.22 2105.22C1351.38 2104.33 1349.95 2102.71 1349.23 2100.7Z" fill="#3F3D56"/>
<path d="M1311.32 2090.38L1219.91 1831.99C1219.56 1831 1219.39 1829.94 1219.43 1828.88C1219.46 1827.82 1219.69 1826.77 1220.11 1825.8C1220.53 1824.84 1221.13 1823.97 1221.87 1823.25C1222.6 1822.52 1223.47 1821.96 1224.42 1821.6C1226.31 1820.85 1228.41 1820.93 1230.26 1821.81C1232.1 1822.7 1233.54 1824.32 1234.26 1826.32L1325.63 2084.74C1326.34 2086.75 1326.27 2088.97 1325.43 2090.92C1324.59 2092.87 1323.06 2094.38 1321.16 2095.14C1320.22 2095.51 1319.22 2095.69 1318.21 2095.65C1317.21 2095.61 1316.22 2095.37 1315.3 2094.93C1314.39 2094.48 1313.57 2093.85 1312.88 2093.07C1312.2 2092.29 1311.67 2091.38 1311.32 2090.38Z" fill="#3F3D56"/>
<path d="M1286.34 2116.92L1189.8 1844C1189.44 1843 1189.28 1841.94 1189.31 1840.88C1189.35 1839.81 1189.58 1838.77 1190 1837.8C1190.42 1836.83 1191.01 1835.95 1191.75 1835.23C1192.49 1834.5 1193.36 1833.94 1194.3 1833.57C1196.21 1832.83 1198.31 1832.92 1200.15 1833.81C1201.99 1834.7 1203.43 1836.32 1204.14 1838.33L1300.68 2111.25C1301.39 2113.26 1301.31 2115.48 1300.47 2117.43C1299.62 2119.38 1298.08 2120.9 1296.18 2121.64C1295.24 2122.02 1294.24 2122.2 1293.24 2122.16C1292.23 2122.13 1291.24 2121.88 1290.33 2121.44C1289.42 2121.01 1288.59 2120.38 1287.91 2119.6C1287.22 2118.83 1286.69 2117.92 1286.34 2116.92Z" fill="#3F3D56"/>
<path d="M1239.25 2080.83L1159.55 1855.9C1159.2 1854.89 1159.04 1853.81 1159.09 1852.73C1159.15 1851.65 1159.4 1850.6 1159.84 1849.63C1160.28 1848.65 1160.91 1847.79 1161.67 1847.07C1162.44 1846.36 1163.33 1845.81 1164.29 1845.47C1166.2 1844.73 1168.31 1844.81 1170.16 1845.7C1172.01 1846.6 1173.45 1848.22 1174.17 1850.22L1253.87 2075.15C1254.58 2077.16 1254.5 2079.38 1253.65 2081.33C1252.81 2083.28 1251.27 2084.8 1249.36 2085.55C1248.41 2085.96 1247.38 2086.17 1246.35 2086.16C1245.32 2086.14 1244.3 2085.91 1243.35 2085.47C1242.41 2085.03 1241.55 2084.39 1240.85 2083.59C1240.14 2082.79 1239.6 2081.85 1239.25 2080.83Z" fill="#3F3D56"/>
<path d="M1306.12 1788.21C1305.74 1777.92 1289.08 1778.95 1282.39 1777.23C1275.7 1775.51 1236.2 1774.3 1223.48 1772.17C1210.76 1770.05 1217.31 1768.51 1217.31 1768.51L1256.43 1770.56C1273.76 1771.44 1284.78 1768.04 1288.07 1761.08C1291.36 1754.13 1251.37 1752.04 1251.37 1752.04L1177.05 1739.81L1180.3 1739.45L1198.5 1734.47C1198.5 1734.47 1218.39 1733.4 1229.93 1724.55C1242.47 1714.92 1233.7 1711.11 1233.7 1711.11L1151.44 1710.93C1137.58 1712.65 1110.03 1733.7 1110.03 1733.7L862.41 1655.1L869.34 1509.72C869.34 1509.72 822.249 1465.79 787.25 1466.3C752.252 1466.82 725.882 1502.4 725.882 1502.4L732.813 1658.43C734.857 1705.55 746.673 1767.85 802.67 1778.07L1098.46 1821.16L1147.84 1832.76L1207.4 1848.32L1258.96 1854.11C1258.96 1854.11 1264.51 1853.08 1262.74 1845.43C1260.97 1837.78 1233.18 1832.18 1233.18 1832.18L1213.74 1826.32C1213.74 1826.32 1198.15 1820.68 1199.88 1819.88C1201.61 1819.07 1229.72 1823.54 1229.72 1823.54L1291.02 1830.46C1293.05 1830.16 1294.9 1829.06 1296.19 1827.37C1297.48 1825.68 1298.11 1823.54 1297.95 1821.38C1297.95 1816.8 1292.92 1812.22 1284.09 1809.99C1275.25 1807.76 1259.83 1807.06 1254.7 1805.93C1249.57 1804.79 1220.5 1799.12 1220.5 1799.12H1291.33C1291.33 1799.12 1306.37 1798.46 1306.12 1788.21Z" fill="#F9B499"/>
<path d="M715.244 1391.33C728.862 1336.01 816.531 1316.06 850.386 1360.83C863.588 1378.37 876.028 1414.94 876.028 1433.06C876.028 1478.24 876.028 1555.7 876.028 1555.7H732.813C729.253 1556 725.674 1555.52 722.296 1554.3C718.919 1553.07 715.815 1551.13 713.178 1548.59C710.54 1546.04 708.425 1542.95 706.962 1539.51C705.5 1536.07 704.722 1532.35 704.676 1528.58C704.121 1492.7 705.195 1432.11 715.244 1391.33Z" fill="#EFCB68"/>
<g opacity="0.2">
<path d="M715.244 1391.33C728.862 1336.01 816.531 1316.06 850.386 1360.83C863.588 1378.37 876.028 1414.94 876.028 1433.06C876.028 1478.24 876.028 1555.7 876.028 1555.7H732.813C729.253 1556 725.674 1555.52 722.296 1554.3C718.919 1553.07 715.815 1551.13 713.178 1548.59C710.54 1546.04 708.425 1542.95 706.962 1539.51C705.5 1536.07 704.722 1532.35 704.676 1528.58C704.121 1492.7 705.195 1432.11 715.244 1391.33Z" fill="black"/>
</g>
</svg>
