<svg width="54" height="29" viewBox="0 0 54 29" fill="none" xmlns="http://www.w3.org/2000/svg">
<g clip-path="url(#clip0_135_110)">
<path d="M27.0001 28.8279C41.9118 28.8279 54.0001 22.5965 54.0001 14.9096C54.0001 7.22267 41.9118 0.991211 27.0001 0.991211C12.0884 0.991211 0.00012207 7.22267 0.00012207 14.9096C0.00012207 22.5965 12.0884 28.8279 27.0001 28.8279Z" fill="#8993BE"/>
<path fill-rule="evenodd" clip-rule="evenodd" d="M7.58227 23.1508L10.5413 8.31662H17.3835C20.3423 8.49982 21.8218 9.96477 21.8218 12.5289C21.8218 16.9242 18.3082 19.4881 15.1642 19.3049H11.8358L11.0961 23.1508H7.58227ZM12.5754 16.558L13.5001 11.0637H15.9042C17.1987 11.0637 18.1232 11.6131 18.1232 12.7119C17.9385 15.8254 16.4589 16.3748 14.7946 16.558H12.5754ZM21.1344 19.3049L24.0932 4.47095H27.607L26.8672 8.31662H30.1958C33.1549 8.49982 34.2644 9.96477 33.8946 11.7963L32.6001 19.3049H28.9015L30.196 12.5289C30.3808 11.6131 30.3808 11.0637 29.0865 11.0637H26.3125L24.6482 19.3049H21.1344ZM32.3632 23.1508L35.322 8.31662H42.1644C45.1234 8.49982 46.603 9.96477 46.603 12.5289C46.603 16.9242 43.0892 19.4881 39.9454 19.3049H36.6166L35.8768 23.1508H32.3632ZM37.3561 16.558L38.2808 11.0637H40.6851C41.9796 11.0637 42.9042 11.6131 42.9042 12.7119C42.7194 15.8254 41.2399 16.3748 39.5756 16.558H37.3563H37.3561Z" fill="#232531"/>
</g>
<defs>
<clipPath id="clip0_135_110">
<rect width="54" height="28" fill="white" transform="translate(0.00012207 0.991211)"/>
</clipPath>
</defs>
</svg>
