<svg width="33" height="50" viewBox="0 0 33 50" fill="none" xmlns="http://www.w3.org/2000/svg">
<g clip-path="url(#clip0_135_114)">
<path d="M8.25178 49.9913C12.8049 49.9913 16.5001 46.3326 16.5001 41.8246V33.658H8.25178C3.69869 33.658 0.0034256 37.3166 0.0034256 41.8246C0.0034256 46.3326 3.69869 49.9913 8.25178 49.9913Z" fill="#0ACF83"/>
<path d="M0.0034256 25.4911C0.0034256 20.9831 3.69869 17.3245 8.25178 17.3245H16.5001V33.6578H8.25178C3.69869 33.6578 0.0034256 29.9991 0.0034256 25.4911Z" fill="#A259FF"/>
<path d="M0.00335693 9.15788C0.00335693 4.64988 3.69862 0.991211 8.25171 0.991211H16.5001V17.3245H8.25171C3.69862 17.3245 0.00335693 13.6659 0.00335693 9.15788Z" fill="#F24E1E"/>
<path d="M16.5001 0.991211H24.7485C29.3016 0.991211 32.9968 4.64988 32.9968 9.15788C32.9968 13.6659 29.3016 17.3245 24.7485 17.3245H16.5001V0.991211Z" fill="#FF7262"/>
<path d="M32.9968 25.4911C32.9968 29.9991 29.3016 33.6578 24.7485 33.6578C20.1954 33.6578 16.5001 29.9991 16.5001 25.4911C16.5001 20.9831 20.1954 17.3245 24.7485 17.3245C29.3016 17.3245 32.9968 20.9831 32.9968 25.4911Z" fill="#1ABCFE"/>
</g>
<defs>
<clipPath id="clip0_135_114">
<rect width="33" height="49" fill="white" transform="translate(0.00012207 0.991211)"/>
</clipPath>
</defs>
</svg>
