<svg width="1500" height="1250" viewBox="0 0 1500 1250" fill="none" xmlns="http://www.w3.org/2000/svg">
<path d="M1104.69 1101.41C1105.49 1061.52 966.463 1026.08 794.168 1022.23C621.872 1018.39 481.553 1047.6 480.755 1087.48C479.958 1127.37 618.985 1162.81 791.28 1166.66C963.576 1170.5 1103.89 1141.29 1104.69 1101.41Z" fill="#160C28"/>
<path opacity="0.7" d="M1104.69 1101.41C1105.49 1061.52 966.463 1026.08 794.168 1022.23C621.872 1018.39 481.553 1047.6 480.755 1087.48C479.958 1127.37 618.985 1162.81 791.28 1166.66C963.576 1170.5 1103.89 1141.29 1104.69 1101.41Z" fill="#AEB7B3"/>
<path d="M238.75 768.316C238.75 768.316 86.6291 616.681 170.226 415.349C193.716 359.505 230.778 311.224 277.646 275.41C382.225 194.742 646.859 35.1264 1044.95 96.7762C1087.72 103.241 1128.64 119.483 1164.85 144.368C1223.27 184.858 1285.21 259.247 1258.86 386.702C1249.56 431.75 1251.65 478.737 1267 521.9C1282.21 564.677 1311.01 617.083 1364.65 673.736C1364.65 673.736 1479 790.354 1367.75 891.286C1343.99 912.632 1315.9 927.903 1285.65 935.912C1147.07 973.4 586.6 1097.85 238.75 768.316Z" fill="#160C28"/>
<path opacity="0.7" d="M238.75 768.316C238.75 768.316 86.6291 616.681 170.226 415.349C193.716 359.505 230.778 311.224 277.646 275.41C382.225 194.742 646.859 35.1264 1044.95 96.7762C1087.72 103.241 1128.64 119.483 1164.85 144.368C1223.27 184.858 1285.21 259.247 1258.86 386.702C1249.56 431.75 1251.65 478.737 1267 521.9C1282.21 564.677 1311.01 617.083 1364.65 673.736C1364.65 673.736 1479 790.354 1367.75 891.286C1343.99 912.632 1315.9 927.903 1285.65 935.912C1147.07 973.4 586.6 1097.85 238.75 768.316Z" fill="#AEB7B3"/>
<path d="M1246.02 349.269C1233.97 349.282 1222.14 352.657 1211.72 359.053C1201.3 365.45 1192.66 374.64 1186.68 385.695C1180.7 396.75 1177.59 409.277 1177.67 422.009C1177.75 434.741 1181 447.225 1187.11 458.2L1177.58 486.901L1203.4 478.207C1211.95 485.404 1222 490.333 1232.72 492.582C1243.44 494.831 1254.52 494.335 1265.02 491.134C1275.52 487.933 1285.15 482.122 1293.09 474.185C1301.03 466.249 1307.05 456.419 1310.66 445.518C1314.26 434.616 1315.35 422.961 1313.81 411.528C1312.28 400.094 1308.18 389.214 1301.85 379.799C1295.52 370.384 1287.15 362.707 1277.44 357.412C1267.72 352.116 1256.95 349.355 1246.02 349.361V349.269Z" fill="#160C28"/>
<path d="M601.587 657.243H543.597V1018.67H601.587V657.243Z" fill="#160C28"/>
<path opacity="0.2" d="M601.587 657.243H543.597V1018.67H601.587V657.243Z" fill="black"/>
<path d="M777.461 657.243H601.587V1018.67H777.461V657.243Z" fill="#160C28"/>
<path d="M609.314 1018.67H535.87V1049.29H609.314V1018.67Z" fill="#160C28"/>
<path opacity="0.3" d="M609.314 1018.67H535.87V1049.29H609.314V1018.67Z" fill="black"/>
<path d="M783.266 1018.67H609.314V1049.29H783.266V1018.67Z" fill="#160C28"/>
<path opacity="0.2" d="M783.266 1018.67H609.314V1049.29H783.266V1018.67Z" fill="black"/>
<path opacity="0.4" d="M689.533 1008.45C693.265 1008.45 696.29 1005.26 696.29 1001.31C696.29 997.372 693.265 994.176 689.533 994.176C685.801 994.176 682.776 997.372 682.776 1001.31C682.776 1005.26 685.801 1008.45 689.533 1008.45Z" fill="white"/>
<path opacity="0.4" d="M760.066 885.941H618.982V983.961H760.066V885.941Z" fill="white"/>
<g opacity="0.4">
<path d="M735.394 885.941H733.454V983.961H735.394V885.941Z" fill="white"/>
</g>
<g opacity="0.4">
<path d="M633.484 900.237H631.543V949.567H633.484V900.237Z" fill="white"/>
</g>
<g opacity="0.4">
<path d="M647.015 900.237H645.075V949.567H647.015V900.237Z" fill="white"/>
</g>
<g opacity="0.4">
<path d="M658.606 900.237H656.666V949.567H658.606V900.237Z" fill="white"/>
</g>
<g opacity="0.4">
<path d="M672.138 900.237H670.197V949.567H672.138V900.237Z" fill="white"/>
</g>
<g opacity="0.4">
<path d="M683.729 900.237H681.788V949.567H683.729V900.237Z" fill="white"/>
</g>
<g opacity="0.4">
<path d="M697.26 900.237H695.32V949.567H697.26V900.237Z" fill="white"/>
</g>
<g opacity="0.4">
<path d="M708.869 900.237H706.928V949.567H708.869V900.237Z" fill="white"/>
</g>
<g opacity="0.4">
<path d="M722.383 900.237H720.442V949.567H722.383V900.237Z" fill="white"/>
</g>
<path opacity="0.4" d="M723.353 959.452H632.514V971.697H723.353V959.452Z" fill="white"/>
<path opacity="0.41" d="M747.505 939.042C750.175 939.042 752.339 936.756 752.339 933.935C752.339 931.115 750.175 928.828 747.505 928.828C744.835 928.828 742.671 931.115 742.671 933.935C742.671 936.756 744.835 939.042 747.505 939.042Z" fill="white"/>
<path opacity="0.41" d="M747.505 967.616C750.175 967.616 752.339 965.329 752.339 962.509C752.339 959.688 750.175 957.402 747.505 957.402C744.835 957.402 742.671 959.688 742.671 962.509C742.671 965.329 744.835 967.616 747.505 967.616Z" fill="white"/>
<path opacity="0.41" d="M747.505 910.451C750.175 910.451 752.339 908.164 752.339 905.344C752.339 902.523 750.175 900.237 747.505 900.237C744.835 900.237 742.671 902.523 742.671 905.344C742.671 908.164 744.835 910.451 747.505 910.451Z" fill="white"/>
<path opacity="0.4" d="M760.066 818.562H618.982V865.531H760.066V818.562Z" fill="white"/>
<path opacity="0.4" d="M636.377 826.725H628.65V857.349H636.377V826.725Z" fill="white"/>
<path opacity="0.4" d="M680.835 826.725H644.104V836.939H680.835V826.725Z" fill="white"/>
<path opacity="0.4" d="M680.835 847.153H644.104V857.367H680.835V847.153Z" fill="white"/>
<g opacity="0.4">
<path d="M752.339 827.75H698.23V829.801H752.339V827.75Z" fill="white"/>
</g>
<g opacity="0.4">
<path d="M752.339 835.914H698.23V837.964H752.339V835.914Z" fill="white"/>
</g>
<path opacity="0.4" d="M760.066 751.183H618.982V798.152H760.066V751.183Z" fill="white"/>
<path opacity="0.4" d="M636.377 759.346H628.65V789.97H636.377V759.346Z" fill="white"/>
<path opacity="0.4" d="M680.835 759.346H644.104V769.56H680.835V759.346Z" fill="white"/>
<path opacity="0.4" d="M680.835 779.756H644.104V789.97H680.835V779.756Z" fill="white"/>
<g opacity="0.4">
<path d="M752.339 760.371H698.23V762.421H752.339V760.371Z" fill="white"/>
</g>
<g opacity="0.4">
<path d="M752.339 768.535H698.23V770.585H752.339V768.535Z" fill="white"/>
</g>
<path opacity="0.4" d="M760.066 683.785H618.982V730.755H760.066V683.785Z" fill="white"/>
<path opacity="0.4" d="M636.377 691.967H628.65V722.591H636.377V691.967Z" fill="white"/>
<path opacity="0.4" d="M680.835 691.967H644.104V702.181H680.835V691.967Z" fill="white"/>
<path opacity="0.4" d="M680.835 712.377H644.104V722.591H680.835V712.377Z" fill="white"/>
<g opacity="0.4">
<path d="M752.339 692.974H698.23V695.024H752.339V692.974Z" fill="white"/>
</g>
<g opacity="0.4">
<path d="M752.339 701.156H698.23V703.206H752.339V701.156Z" fill="white"/>
</g>
<path opacity="0.4" d="M724.323 722.591C726.993 722.591 729.157 720.304 729.157 717.484C729.157 714.663 726.993 712.377 724.323 712.377C721.653 712.377 719.489 714.663 719.489 717.484C719.489 720.304 721.653 722.591 724.323 722.591Z" fill="white"/>
<path opacity="0.4" d="M745.582 722.591C748.252 722.591 750.416 720.304 750.416 717.484C750.416 714.663 748.252 712.377 745.582 712.377C742.912 712.377 740.748 714.663 740.748 717.484C740.748 720.304 742.912 722.591 745.582 722.591Z" fill="white"/>
<path opacity="0.4" d="M703.047 722.591C705.717 722.591 707.881 720.304 707.881 717.484C707.881 714.663 705.717 712.377 703.047 712.377C700.377 712.377 698.213 714.663 698.213 717.484C698.213 720.304 700.377 722.591 703.047 722.591Z" fill="white"/>
<path opacity="0.4" d="M724.323 789.97C726.993 789.97 729.157 787.683 729.157 784.863C729.157 782.042 726.993 779.756 724.323 779.756C721.653 779.756 719.489 782.042 719.489 784.863C719.489 787.683 721.653 789.97 724.323 789.97Z" fill="white"/>
<path opacity="0.4" d="M745.582 789.97C748.252 789.97 750.416 787.683 750.416 784.863C750.416 782.042 748.252 779.756 745.582 779.756C742.912 779.756 740.748 782.042 740.748 784.863C740.748 787.683 742.912 789.97 745.582 789.97Z" fill="white"/>
<path opacity="0.4" d="M703.047 789.97C705.717 789.97 707.881 787.683 707.881 784.863C707.881 782.042 705.717 779.756 703.047 779.756C700.377 779.756 698.213 782.042 698.213 784.863C698.213 787.683 700.377 789.97 703.047 789.97Z" fill="white"/>
<path opacity="0.4" d="M724.323 857.367C726.993 857.367 729.157 855.081 729.157 852.26C729.157 849.44 726.993 847.153 724.323 847.153C721.653 847.153 719.489 849.44 719.489 852.26C719.489 855.081 721.653 857.367 724.323 857.367Z" fill="white"/>
<path opacity="0.4" d="M745.582 857.367C748.252 857.367 750.416 855.081 750.416 852.26C750.416 849.44 748.252 847.153 745.582 847.153C742.912 847.153 740.748 849.44 740.748 852.26C740.748 855.081 742.912 857.367 745.582 857.367Z" fill="white"/>
<path opacity="0.4" d="M703.047 857.367C705.717 857.367 707.881 855.081 707.881 852.26C707.881 849.44 705.717 847.153 703.047 847.153C700.377 847.153 698.213 849.44 698.213 852.26C698.213 855.081 700.377 857.367 703.047 857.367Z" fill="white"/>
<path d="M365.852 592.043H295.249V1012.55H365.852V592.043Z" fill="#160C28"/>
<path opacity="0.2" d="M365.852 592.043H295.249V1012.55H365.852V592.043Z" fill="black"/>
<path d="M365.852 592.043L570.661 591.915V1012.53H365.852V592.043Z" fill="#160C28"/>
<path d="M576.465 1012.55H373.527V1049.31H576.465V1012.55Z" fill="#160C28"/>
<path opacity="0.2" d="M576.465 1012.55H373.527V1049.31H576.465V1012.55Z" fill="black"/>
<path d="M374.324 1012.66H295.076V1049.42H374.324V1012.66Z" fill="#160C28"/>
<path opacity="0.3" d="M374.324 1012.66H295.076V1049.42H374.324V1012.66Z" fill="black"/>
<path opacity="0.4" d="M551.169 617.834H384.945V676.756H551.169V617.834Z" fill="white"/>
<path opacity="0.4" d="M551.169 697.477H384.945V756.399H551.169V697.477Z" fill="white"/>
<path opacity="0.4" d="M405.441 707.728H396.328V746.149H405.441V707.728Z" fill="white"/>
<path opacity="0.4" d="M457.817 707.728H414.555V720.541H457.817V707.728Z" fill="white"/>
<path opacity="0.4" d="M457.817 733.336H414.555V746.149H457.817V733.336Z" fill="white"/>
<g opacity="0.4">
<path d="M542.056 709.265H478.297V711.315H542.056V709.265Z" fill="white"/>
</g>
<g opacity="0.4">
<path d="M542.056 719.516H478.297V721.566H542.056V719.516Z" fill="white"/>
</g>
<path opacity="0.4" d="M551.169 777.12H384.945V836.042H551.169V777.12Z" fill="white"/>
<path opacity="0.4" d="M405.441 787.352H396.328V825.774H405.441V787.352Z" fill="white"/>
<path opacity="0.4" d="M457.817 787.352H414.555V800.165H457.817V787.352Z" fill="white"/>
<path opacity="0.4" d="M457.817 812.979H414.555V825.792H457.817V812.979Z" fill="white"/>
<g opacity="0.4">
<path d="M542.056 788.908H478.297V790.958H542.056V788.908Z" fill="white"/>
</g>
<g opacity="0.4">
<path d="M542.056 799.14H478.297V801.191H542.056V799.14Z" fill="white"/>
</g>
<path opacity="0.4" d="M549.228 860.094H384.945V970.8H549.228V860.094Z" fill="white"/>
<g opacity="0.4">
<path d="M520.329 860.094H518.388V970.8H520.329V860.094Z" fill="white"/>
</g>
<g opacity="0.4">
<path d="M401.682 876.239H399.741V931.958H401.682V876.239Z" fill="white"/>
</g>
<g opacity="0.4">
<path d="M417.431 876.239H415.49V931.958H417.431V876.239Z" fill="white"/>
</g>
<g opacity="0.4">
<path d="M430.928 876.239H428.987V931.958H430.928V876.239Z" fill="white"/>
</g>
<g opacity="0.4">
<path d="M446.677 876.239H444.736V931.958H446.677V876.239Z" fill="white"/>
</g>
<g opacity="0.4">
<path d="M460.191 876.239H458.25V931.958H460.191V876.239Z" fill="white"/>
</g>
<g opacity="0.4">
<path d="M475.94 876.239H474V931.958H475.94V876.239Z" fill="white"/>
</g>
<g opacity="0.4">
<path d="M489.437 876.239H487.497V931.958H489.437V876.239Z" fill="white"/>
</g>
<g opacity="0.4">
<path d="M505.203 876.239H503.263V931.958H505.203V876.239Z" fill="white"/>
</g>
<path opacity="0.4" d="M506.468 943.124H400.694V956.962H506.468V943.124Z" fill="white"/>
<path opacity="0.4" d="M534.606 920.06C537.715 920.06 540.236 917.479 540.236 914.294C540.236 911.11 537.715 908.528 534.606 908.528C531.496 908.528 528.975 911.11 528.975 914.294C528.975 917.479 531.496 920.06 534.606 920.06Z" fill="white"/>
<path opacity="0.4" d="M534.606 952.35C537.715 952.35 540.236 949.768 540.236 946.584C540.236 943.399 537.715 940.818 534.606 940.818C531.496 940.818 528.975 943.399 528.975 946.584C528.975 949.768 531.496 952.35 534.606 952.35Z" fill="white"/>
<path opacity="0.4" d="M534.606 887.771C537.715 887.771 540.236 885.19 540.236 882.005C540.236 878.821 537.715 876.239 534.606 876.239C531.496 876.239 528.975 878.821 528.975 882.005C528.975 885.19 531.496 887.771 534.606 887.771Z" fill="white"/>
<path opacity="0.4" d="M468.057 1002.45C472.86 1002.45 476.755 998.335 476.755 993.26C476.755 988.185 472.86 984.071 468.057 984.071C463.253 984.071 459.359 988.185 459.359 993.26C459.359 998.335 463.253 1002.45 468.057 1002.45Z" fill="white"/>
<path d="M149.331 657.243H91.3418V1018.67H149.331V657.243Z" fill="#160C28"/>
<path opacity="0.2" d="M149.331 657.243H91.3418V1018.67H149.331V657.243Z" fill="black"/>
<path d="M325.188 657.243H149.314V1018.67H325.188V657.243Z" fill="#160C28"/>
<path d="M157.059 1018.67H83.6145V1049.29H157.059V1018.67Z" fill="#160C28"/>
<path opacity="0.3" d="M157.059 1018.67H83.6145V1049.29H157.059V1018.67Z" fill="black"/>
<path d="M331.01 1018.67H157.059V1049.29H331.01V1018.67Z" fill="#160C28"/>
<path opacity="0.2" d="M331.01 1018.67H157.059V1049.29H331.01V1018.67Z" fill="black"/>
<path opacity="0.4" d="M237.26 1008.45C240.992 1008.45 244.017 1005.26 244.017 1001.31C244.017 997.372 240.992 994.176 237.26 994.176C233.528 994.176 230.503 997.372 230.503 1001.31C230.503 1005.26 233.528 1008.45 237.26 1008.45Z" fill="white"/>
<path opacity="0.4" d="M307.793 885.941H166.709V983.961H307.793V885.941Z" fill="white"/>
<g opacity="0.4">
<path d="M283.121 885.941H281.181V983.961H283.121V885.941Z" fill="white"/>
</g>
<g opacity="0.4">
<path d="M181.228 900.237H179.288V949.567H181.228V900.237Z" fill="white"/>
</g>
<g opacity="0.4">
<path d="M194.742 900.237H192.802V949.567H194.742V900.237Z" fill="white"/>
</g>
<g opacity="0.4">
<path d="M206.35 900.237H204.41V949.567H206.35V900.237Z" fill="white"/>
</g>
<g opacity="0.4">
<path d="M219.882 900.237H217.941V949.567H219.882V900.237Z" fill="white"/>
</g>
<g opacity="0.4">
<path d="M231.473 900.237H229.532V949.567H231.473V900.237Z" fill="white"/>
</g>
<g opacity="0.4">
<path d="M245.004 900.237H243.064V949.567H245.004V900.237Z" fill="white"/>
</g>
<g opacity="0.4">
<path d="M256.595 900.237H254.655V949.567H256.595V900.237Z" fill="white"/>
</g>
<g opacity="0.4">
<path d="M270.127 900.237H268.186V949.567H270.127V900.237Z" fill="white"/>
</g>
<path opacity="0.4" d="M271.08 959.452H180.24V971.697H271.08V959.452Z" fill="white"/>
<path opacity="0.41" d="M295.249 939.042C297.919 939.042 300.083 936.756 300.083 933.935C300.083 931.115 297.919 928.828 295.249 928.828C292.58 928.828 290.415 931.115 290.415 933.935C290.415 936.756 292.58 939.042 295.249 939.042Z" fill="white"/>
<path opacity="0.41" d="M295.249 967.616C297.919 967.616 300.083 965.329 300.083 962.509C300.083 959.688 297.919 957.402 295.249 957.402C292.58 957.402 290.415 959.688 290.415 962.509C290.415 965.329 292.58 967.616 295.249 967.616Z" fill="white"/>
<path opacity="0.41" d="M295.249 910.451C297.919 910.451 300.083 908.164 300.083 905.344C300.083 902.523 297.919 900.237 295.249 900.237C292.58 900.237 290.415 902.523 290.415 905.344C290.415 908.164 292.58 910.451 295.249 910.451Z" fill="white"/>
<path opacity="0.4" d="M307.793 818.562H166.709V865.531H307.793V818.562Z" fill="white"/>
<path opacity="0.4" d="M184.104 826.725H176.377V857.349H184.104V826.725Z" fill="white"/>
<path opacity="0.4" d="M228.58 826.725H191.849V836.939H228.58V826.725Z" fill="white"/>
<path opacity="0.4" d="M228.58 847.153H191.849V857.367H228.58V847.153Z" fill="white"/>
<g opacity="0.4">
<path d="M300.066 827.75H245.957V829.801H300.066V827.75Z" fill="white"/>
</g>
<g opacity="0.4">
<path d="M300.066 835.914H245.957V837.964H300.066V835.914Z" fill="white"/>
</g>
<path opacity="0.4" d="M307.793 751.183H166.709V798.152H307.793V751.183Z" fill="white"/>
<path opacity="0.4" d="M184.104 759.346H176.377V789.97H184.104V759.346Z" fill="white"/>
<path opacity="0.4" d="M228.58 759.346H191.849V769.56H228.58V759.346Z" fill="white"/>
<path opacity="0.4" d="M228.58 779.756H191.849V789.97H228.58V779.756Z" fill="white"/>
<g opacity="0.4">
<path d="M300.066 760.371H245.957V762.421H300.066V760.371Z" fill="white"/>
</g>
<g opacity="0.4">
<path d="M300.066 768.535H245.957V770.585H300.066V768.535Z" fill="white"/>
</g>
<path opacity="0.4" d="M307.793 683.785H166.709V730.755H307.793V683.785Z" fill="white"/>
<path opacity="0.4" d="M184.104 691.967H176.377V722.591H184.104V691.967Z" fill="white"/>
<path opacity="0.4" d="M228.58 691.967H191.849V702.181H228.58V691.967Z" fill="white"/>
<path opacity="0.4" d="M228.58 712.377H191.849V722.591H228.58V712.377Z" fill="white"/>
<g opacity="0.4">
<path d="M300.066 692.974H245.957V695.024H300.066V692.974Z" fill="white"/>
</g>
<g opacity="0.4">
<path d="M300.066 701.156H245.957V703.206H300.066V701.156Z" fill="white"/>
</g>
<path opacity="0.4" d="M272.05 722.591C274.72 722.591 276.884 720.304 276.884 717.484C276.884 714.663 274.72 712.377 272.05 712.377C269.38 712.377 267.216 714.663 267.216 717.484C267.216 720.304 269.38 722.591 272.05 722.591Z" fill="white"/>
<path opacity="0.4" d="M293.309 722.591C295.978 722.591 298.143 720.304 298.143 717.484C298.143 714.663 295.978 712.377 293.309 712.377C290.639 712.377 288.475 714.663 288.475 717.484C288.475 720.304 290.639 722.591 293.309 722.591Z" fill="white"/>
<path opacity="0.4" d="M250.791 722.591C253.461 722.591 255.625 720.304 255.625 717.484C255.625 714.663 253.461 712.377 250.791 712.377C248.121 712.377 245.957 714.663 245.957 717.484C245.957 720.304 248.121 722.591 250.791 722.591Z" fill="white"/>
<path opacity="0.4" d="M272.05 789.97C274.72 789.97 276.884 787.683 276.884 784.863C276.884 782.042 274.72 779.756 272.05 779.756C269.38 779.756 267.216 782.042 267.216 784.863C267.216 787.683 269.38 789.97 272.05 789.97Z" fill="white"/>
<path opacity="0.4" d="M293.309 789.97C295.978 789.97 298.143 787.683 298.143 784.863C298.143 782.042 295.978 779.756 293.309 779.756C290.639 779.756 288.475 782.042 288.475 784.863C288.475 787.683 290.639 789.97 293.309 789.97Z" fill="white"/>
<path opacity="0.4" d="M250.791 789.97C253.461 789.97 255.625 787.683 255.625 784.863C255.625 782.042 253.461 779.756 250.791 779.756C248.121 779.756 245.957 782.042 245.957 784.863C245.957 787.683 248.121 789.97 250.791 789.97Z" fill="white"/>
<path opacity="0.4" d="M272.05 857.367C274.72 857.367 276.884 855.081 276.884 852.26C276.884 849.44 274.72 847.153 272.05 847.153C269.38 847.153 267.216 849.44 267.216 852.26C267.216 855.081 269.38 857.367 272.05 857.367Z" fill="white"/>
<path opacity="0.4" d="M293.309 857.367C295.978 857.367 298.143 855.081 298.143 852.26C298.143 849.44 295.978 847.153 293.309 847.153C290.639 847.153 288.475 849.44 288.475 852.26C288.475 855.081 290.639 857.367 293.309 857.367Z" fill="white"/>
<path opacity="0.4" d="M250.791 857.367C253.461 857.367 255.625 855.081 255.625 852.26C255.625 849.44 253.461 847.153 250.791 847.153C248.121 847.153 245.957 849.44 245.957 852.26C245.957 855.081 248.121 857.367 250.791 857.367Z" fill="white"/>
<path opacity="0.4" d="M509.032 666.524C512.181 666.524 514.733 663.656 514.733 660.117C514.733 656.579 512.181 653.711 509.032 653.711C505.884 653.711 503.332 656.579 503.332 660.117C503.332 663.656 505.884 666.524 509.032 666.524Z" fill="white"/>
<path opacity="0.4" d="M534.086 666.524C537.234 666.524 539.786 663.656 539.786 660.117C539.786 656.579 537.234 653.711 534.086 653.711C530.938 653.711 528.385 656.579 528.385 660.117C528.385 663.656 530.938 666.524 534.086 666.524Z" fill="white"/>
<path opacity="0.4" d="M483.997 666.524C487.145 666.524 489.697 663.656 489.697 660.117C489.697 656.579 487.145 653.711 483.997 653.711C480.849 653.711 478.297 656.579 478.297 660.117C478.297 663.656 480.849 666.524 483.997 666.524Z" fill="white"/>
<path opacity="0.4" d="M405.441 628.084H396.328V666.506H405.441V628.084Z" fill="white"/>
<path opacity="0.4" d="M457.817 628.084H414.555V640.898H457.817V628.084Z" fill="white"/>
<path opacity="0.4" d="M457.817 653.711H414.555V666.524H457.817V653.711Z" fill="white"/>
<g opacity="0.4">
<path d="M542.056 629.622H478.297V631.672H542.056V629.622Z" fill="white"/>
</g>
<g opacity="0.4">
<path d="M542.056 639.872H478.297V641.923H542.056V639.872Z" fill="white"/>
</g>
<path opacity="0.4" d="M509.032 746.149C512.181 746.149 514.733 743.28 514.733 739.742C514.733 736.204 512.181 733.336 509.032 733.336C505.884 733.336 503.332 736.204 503.332 739.742C503.332 743.28 505.884 746.149 509.032 746.149Z" fill="white"/>
<path opacity="0.4" d="M534.086 746.149C537.234 746.149 539.786 743.28 539.786 739.742C539.786 736.204 537.234 733.336 534.086 733.336C530.938 733.336 528.385 736.204 528.385 739.742C528.385 743.28 530.938 746.149 534.086 746.149Z" fill="white"/>
<path opacity="0.4" d="M483.997 746.149C487.145 746.149 489.697 743.28 489.697 739.742C489.697 736.204 487.145 733.336 483.997 733.336C480.849 733.336 478.297 736.204 478.297 739.742C478.297 743.28 480.849 746.149 483.997 746.149Z" fill="white"/>
<path opacity="0.4" d="M509.032 825.792C512.181 825.792 514.733 822.923 514.733 819.385C514.733 815.847 512.181 812.979 509.032 812.979C505.884 812.979 503.332 815.847 503.332 819.385C503.332 822.923 505.884 825.792 509.032 825.792Z" fill="white"/>
<path opacity="0.4" d="M534.086 825.792C537.234 825.792 539.786 822.923 539.786 819.385C539.786 815.847 537.234 812.979 534.086 812.979C530.938 812.979 528.385 815.847 528.385 819.385C528.385 822.923 530.938 825.792 534.086 825.792Z" fill="white"/>
<path opacity="0.4" d="M483.997 825.792C487.145 825.792 489.697 822.923 489.697 819.385C489.697 815.847 487.145 812.979 483.997 812.979C480.849 812.979 478.297 815.847 478.297 819.385C478.297 822.923 480.849 825.792 483.997 825.792Z" fill="white"/>
<path d="M1301.46 422.487C1301.46 452.306 1277.8 476.486 1248.62 476.486C1239.75 476.543 1231 474.253 1223.18 469.825C1215.35 465.397 1208.7 458.972 1203.83 451.134C1198.57 442.614 1195.77 432.66 1195.78 422.487C1195.78 392.669 1219.44 368.489 1248.62 368.489C1262.44 368.43 1275.75 374.017 1285.77 384.084C1290.72 389.023 1294.66 394.975 1297.36 401.578C1300.06 408.181 1301.45 415.295 1301.46 422.487Z" fill="white"/>
<path opacity="0.1" d="M1301.46 422.487C1301.46 452.306 1277.8 476.486 1248.62 476.486C1239.75 476.543 1231 474.253 1223.18 469.825C1215.35 465.397 1208.7 458.972 1203.83 451.134C1203.83 451.134 1240.34 480.714 1274.37 451.134C1274.37 451.134 1299.52 430.816 1285.77 384.103C1290.71 389.039 1294.66 394.988 1297.36 401.588C1300.05 408.187 1301.45 415.298 1301.46 422.487Z" fill="black"/>
<path d="M1218.3 397.776C1218.3 397.776 1237.36 394.628 1248.62 382.474C1257.08 388.852 1266.32 393.999 1276.08 397.776C1276.08 397.776 1284.14 437.003 1248.62 458.566C1248.62 458.566 1214.83 441.707 1218.3 397.776Z" fill="#160C28"/>
<path d="M1254.68 414.25C1254.69 412.951 1254.37 411.673 1253.75 410.548C1253.13 409.424 1252.24 408.493 1251.17 407.852C1250.1 407.21 1248.89 406.882 1247.66 406.899C1246.43 406.917 1245.23 407.28 1244.17 407.951C1243.12 408.623 1242.25 409.579 1241.67 410.72C1241.08 411.862 1240.79 413.148 1240.83 414.448C1240.86 415.747 1241.23 417.012 1241.88 418.113C1242.54 419.214 1243.46 420.111 1244.55 420.712L1240.82 433.067H1254.68L1251.41 420.437C1252.41 419.783 1253.23 418.873 1253.8 417.79C1254.38 416.708 1254.68 415.49 1254.68 414.25Z" fill="white"/>
<path d="M1221.23 720.724H1211.92V789.494H1221.23V720.724Z" fill="#999999"/>
<path d="M1127.08 853.542V1059.03H1140.32L1147.92 843.291L1127.08 853.542Z" fill="#CCCCCC"/>
<path d="M1208.2 813.088V1027.27H1221.45L1228.66 803.259L1208.2 813.088Z" fill="#CCCCCC"/>
<path d="M1132.87 838.77L1245.4 785.577L1194.58 776.26L1135.95 749.682L1132.87 838.77Z" fill="#CCCCCC"/>
<path d="M1111.92 860.991L1245.33 795.406V785.577L1132.8 838.751C1132.8 838.751 1119.77 853.871 1111.92 860.991Z" fill="#B3B3B3"/>
<path d="M1176.58 541.925H1246.8C1248.89 541.925 1250.9 542.802 1252.37 544.364C1253.85 545.926 1254.68 548.044 1254.68 550.253V673.608H1176.58V541.925Z" fill="#999999"/>
<path d="M748.822 716.807H728.36V1098H748.822V716.807Z" fill="#999999"/>
<path opacity="0.1" d="M748.822 716.807H739.518V1098H748.822V716.807Z" fill="black"/>
<path d="M812.061 717.777H791.599V1033.15H812.061V717.777Z" fill="#999999"/>
<path opacity="0.1" d="M812.061 717.777H802.757V1033.15H812.061V717.777Z" fill="black"/>
<path d="M1258.43 716.807H1237.96V1098H1258.43V716.807Z" fill="#999999"/>
<path opacity="0.1" d="M1258.43 716.807H1249.12V1098H1258.43V716.807Z" fill="black"/>
<path d="M1310.49 692.242H1290.03V1033.16H1310.49V692.242Z" fill="#999999"/>
<path opacity="0.1" d="M1310.49 692.242H1301.19V1033.16H1310.49V692.242Z" fill="black"/>
<path d="M1167.29 541.925H1237.51C1239.6 541.925 1241.61 542.802 1243.09 544.364C1244.57 545.926 1245.4 548.044 1245.4 550.253V673.608H1167.29V541.925Z" fill="#B3B3B3"/>
<path d="M706.044 710.913L802.012 659.861H1338.44L1275.16 710.913H706.044Z" fill="#CCCCCC"/>
<path d="M914.335 1068.53L858.026 1115.06C858.026 1115.06 834.377 1137.3 854.821 1151.05C854.821 1151.05 884.587 1170.7 908.756 1137.3L942.334 1079.38L914.335 1068.53Z" fill="#160C28"/>
<path opacity="0.2" d="M851.114 1135.34C865.061 1151.21 886.753 1147.9 900.405 1133.51C906.816 1126.59 912.534 1118.26 918.632 1111C923.969 1104.37 931.644 1094.92 937.084 1088.52C932.216 1095.36 924.852 1105.16 919.758 1111.97C913.85 1119.51 908.098 1127.82 901.705 1134.92C887.48 1149.76 864.541 1153 851.131 1135.41L851.114 1135.34Z" fill="black"/>
<path opacity="0.2" d="M862.826 1112.66C873.984 1112.5 885.886 1117.09 892.886 1126.63C895.181 1129.8 896.822 1133.44 897.703 1137.32L896.42 1134.72C896.044 1133.83 895.58 1132.99 895.034 1132.21C888.104 1120.5 875.214 1114.99 862.826 1112.66Z" fill="black"/>
<path opacity="0.2" d="M875.283 1105.85C883.651 1104.66 895.589 1107.55 897.616 1117.57C893.094 1109.13 883.599 1107.66 875.283 1105.85Z" fill="black"/>
<path opacity="0.2" d="M882.733 1098C891.084 1096.81 903.039 1099.7 905.066 1109.71C900.544 1101.28 891.032 1099.81 882.733 1098Z" fill="black"/>
<path opacity="0.2" d="M897.599 1086.21C905.967 1085.02 917.904 1087.91 919.949 1097.91C915.41 1089.49 905.915 1088.02 897.599 1086.21Z" fill="black"/>
<path d="M928.3 1040.03L914.335 1068.53C914.335 1068.53 908.583 1075.85 916.518 1080.39C918.683 1081.61 921.1 1082.24 923.553 1082.22H937.327C938.323 1082.22 939.305 1081.97 940.191 1081.49C941.077 1081.01 941.841 1080.31 942.421 1079.46L959.331 1054.53C959.331 1054.53 935.594 1044.86 928.3 1040.03Z" fill="#F9B499"/>
<path d="M925.112 978.104L931.21 997.58L940.462 969.739L925.112 978.104Z" fill="#F9B499"/>
<path d="M1206.57 652.594C1206.57 667.677 1197.04 667.677 1197.04 667.677L1171.05 677.507C1159.46 681.589 1154.7 680.966 1152.84 680.179C1152.46 680.026 1152.06 679.965 1151.65 680C1151.25 680.034 1150.85 680.165 1150.5 680.381C1150.46 680.422 1150.4 680.453 1150.35 680.472C1148.35 681.959 1146.1 683.045 1143.73 683.675C1138.74 684.737 1139.43 679.447 1139.43 679.447C1139.62 678.518 1139.74 677.576 1139.8 676.628C1139.91 673.042 1139.02 669.499 1137.23 666.449C1135.45 663.399 1132.84 660.979 1129.75 659.495C1127.09 658.181 1124.31 657.145 1121.47 656.402C1119.72 655.944 1117.89 655.944 1116.15 656.402L1101.71 659.898H1029.15L962.657 657.884C956.478 616.467 964.194 574.07 984.47 538.026C988.919 529.958 994.033 522.32 999.752 515.2C1001 513.663 1001.73 512.875 1001.73 512.875L1005.83 506.597C1005.83 506.597 1061.28 510.514 1061.9 508.556C1062.52 506.597 1100.29 482.929 1100.29 482.929L1153.59 506.725C1155.96 507.827 1158.08 509.45 1159.81 511.484C1171.26 524.005 1180.27 553.878 1180.27 553.878L1204.53 638.372C1205.78 643.002 1206.46 647.781 1206.57 652.594Z" fill="#160C28"/>
<path d="M1145.96 602.421C1145.96 602.421 1092.72 611.573 1052.86 602.824C1051.83 602.604 1050.83 602.33 1049.82 602.037C1034.15 597.692 1017.94 595.975 1001.76 596.948L963.541 596.619L961.652 609.981H1025.53C1025.53 609.981 1046.32 610.695 1063.13 616.589C1063.13 616.589 1079.87 622.483 1113.37 618.548L1151.18 613.679L1145.96 602.421Z" fill="#000411"/>
<path opacity="0.2" d="M1159.84 511.32C1124.51 516.06 1061.28 537.989 1061.28 537.989C1046.39 526.201 999.786 515.164 999.786 515.164C1001.03 513.626 1001.76 512.839 1001.76 512.839L1005.87 506.56C1005.87 506.56 1061.31 510.478 1061.93 508.519C1062.56 506.56 1100.33 482.893 1100.33 482.893L1153.62 506.689C1155.98 507.753 1158.1 509.331 1159.84 511.32Z" fill="black"/>
<path d="M1049.48 509.672C1048.77 509.855 1048.06 510.038 1047.33 510.148C1034.75 512.491 1021.77 506.725 1011.39 495.504C1002.25 485.359 995.818 472.825 992.769 459.188C984.834 425.197 997.326 392.688 1020.72 386.592C1044.11 380.497 1069.45 403.066 1077.41 437.095C1085.36 471.123 1072.87 503.595 1049.48 509.672Z" fill="#F9B499"/>
<path d="M1082.66 443.684C1084.2 443.684 1085.45 441.045 1085.45 437.79C1085.45 434.535 1084.2 431.896 1082.66 431.896C1081.12 431.896 1079.87 434.535 1079.87 437.79C1079.87 441.045 1081.12 443.684 1082.66 443.684Z" stroke="#FF0000" stroke-width="0.75" stroke-miterlimit="10"/>
<path d="M1104.05 429.919C1104.05 429.919 1133.8 447.217 1085.45 463.124C1084.9 460.941 1084.59 458.699 1084.53 456.442C1084.44 453.64 1084.75 450.839 1085.45 448.132L1070.58 440.151C1070.58 440.151 1062.49 441.707 1058.14 431.896C1058.14 431.896 1042.67 431.896 1044.54 420.09C1044.54 420.09 1033.38 427.961 1029.66 418.131C1029.66 418.131 1012.87 430.725 996.165 409.693C996.165 409.693 988.732 424.025 990.967 448.132C990.967 448.132 979.966 457.431 973.763 448.828C972.355 446.831 971.578 444.416 971.545 441.927C971.391 439.853 971.843 437.778 972.841 435.984C973.839 434.19 975.334 432.763 977.124 431.896C977.124 431.896 963.662 426.588 964.009 414.891C964.174 411.876 965.018 408.945 966.469 406.343C966.469 406.343 969.258 399.021 979.671 402.114C981.527 402.701 983.33 403.461 985.059 404.384C985.059 404.384 970.818 372.791 990.95 352.235C990.95 352.235 1024.11 315.955 1037.12 361.149C1037.12 361.149 1048.49 342.588 1066.68 347.201C1068.01 347.536 1069.31 347.977 1070.58 348.519C1070.58 348.519 1083.59 352.18 1081.74 374.328C1081.74 374.328 1098.47 359.172 1113.36 376.854C1113.36 376.854 1124.51 391.297 1113.36 406.654C1113.36 406.672 1118.94 420.09 1104.05 429.919Z" fill="#000411"/>
<path opacity="0.2" d="M997.967 405.849C997.967 405.849 992.388 386.702 1009.12 374.914C1009.12 374.914 1021.13 366.64 1037.7 377.568C1039.36 378.71 1040.94 379.976 1042.43 381.357C1047.5 386.089 1054.01 388.756 1060.77 388.88C1060.77 388.88 1079.83 388.02 1082.59 410.937C1082.59 410.937 1061.21 391.315 1045.39 400.797C1045.39 400.797 1037.02 372.937 1014.7 380.808C1014.77 380.735 1001.76 384.725 997.967 405.849Z" fill="black"/>
<path opacity="0.2" d="M979.619 402.114C970.575 403.817 964.026 414.928 964.026 414.928C964.192 411.912 965.035 408.982 966.486 406.379C966.486 406.379 969.206 399.039 979.619 402.114Z" fill="black"/>
<path opacity="0.2" d="M1104.05 429.919C1104.05 429.919 1133.8 447.217 1085.45 463.124C1084.62 461.011 1084.3 458.716 1084.53 456.443C1084.66 455.14 1084.97 453.865 1085.45 452.653L1092.9 440.151C1098.47 436.619 1098.47 427.961 1098.47 427.961C1101.69 426.608 1104.47 424.301 1106.48 421.316C1107.96 419.168 1108.91 416.664 1109.24 414.03C1109.58 411.396 1109.28 408.716 1108.38 406.233C1104.52 395.836 1092.9 398.747 1092.9 398.747C1096.6 369.459 1079.87 378.886 1079.87 378.886C1078.13 352.308 1067.36 347.494 1066.68 347.219C1068.01 347.555 1069.31 347.995 1070.58 348.537C1070.58 348.537 1083.59 352.198 1081.74 374.347C1081.74 374.347 1098.47 359.19 1113.36 376.873C1113.36 376.873 1124.51 391.315 1113.36 406.672C1113.36 406.672 1118.94 420.09 1104.05 429.919Z" fill="black"/>
<path d="M1117.06 486.901L1070.58 528.581C1063.13 534.896 1059.4 530.137 1059.4 530.137L1057.34 526.714L1047.33 510.148C1082.66 501.636 1079.66 452.653 1079.66 452.653H1085.45C1084.51 459.734 1085.82 466.944 1089.17 473.155C1095.94 470.281 1104.76 470.555 1108.92 470.903C1110.61 471.028 1112.29 471.328 1113.93 471.8C1128.88 476.193 1117.06 486.901 1117.06 486.901Z" fill="#F9B499"/>
<path d="M1117.06 486.901L1070.58 528.581C1063.13 534.896 1059.4 530.137 1059.4 530.137L1057.34 526.714C1077.6 517.397 1097.19 492.246 1097.19 492.246C1104.23 481.355 1092.62 474.802 1089.83 473.429C1089.78 473.406 1089.74 473.368 1089.71 473.321C1089.68 473.274 1089.67 473.219 1089.67 473.164C1089.67 473.108 1089.68 473.053 1089.71 473.006C1089.74 472.959 1089.78 472.922 1089.83 472.898C1096.5 470.299 1104.87 470.574 1108.89 470.903C1110.58 471.028 1112.26 471.328 1113.89 471.8C1128.88 476.193 1117.06 486.901 1117.06 486.901Z" fill="#F7A48B"/>
<path d="M1047.33 510.148L1052.65 518.953C1052.65 518.953 1084.96 499.678 1078.64 470.702C1078.71 470.702 1076.16 503.924 1047.33 510.148Z" fill="#F7A48B"/>
<path d="M1012.92 508.519C1024.36 510.389 1035.38 514.426 1045.46 520.435" stroke="#FF0000" stroke-width="0.75" stroke-miterlimit="10"/>
<path opacity="0.2" d="M1206.57 652.594C1206.57 667.677 1197.04 667.677 1197.04 667.677L1171.05 677.507C1159.46 681.588 1154.7 680.966 1152.84 680.179C1152.46 680.026 1152.06 679.965 1151.65 679.999C1151.25 680.034 1150.85 680.164 1150.5 680.38C1151.11 679.923 1153.41 677.708 1150.35 671.228L1140.61 655.816C1140.46 655.58 1140.36 655.314 1140.31 655.035C1140.27 654.756 1140.28 654.47 1140.34 654.195C1140.4 653.92 1140.52 653.661 1140.68 653.436C1140.85 653.211 1141.05 653.024 1141.29 652.887C1141.57 652.715 1141.89 652.626 1142.22 652.631C1142.53 652.628 1142.84 652.703 1143.11 652.849C1143.39 652.995 1143.63 653.209 1143.82 653.473L1156.17 671.649C1156.17 671.649 1158.04 679.502 1182.16 667.714C1182.16 667.677 1203.07 659.11 1206.57 652.594Z" fill="black"/>
<path opacity="0.2" d="M1143.68 683.675C1138.69 684.737 1139.38 679.447 1139.38 679.447C1139.56 678.518 1139.69 677.576 1139.74 676.628C1139.86 673.042 1138.97 669.499 1137.18 666.449C1135.39 663.399 1132.79 660.979 1129.7 659.495C1127.04 658.181 1124.26 657.145 1121.41 656.401C1121.41 656.401 1135.67 649.977 1143.11 669.617C1143.11 669.636 1145.39 678.129 1143.68 683.675Z" fill="black"/>
<path opacity="0.2" d="M1148.7 636.248C1148.7 636.248 1124.45 647.011 1116.11 656.383L1101.68 659.879H1029.15L962.657 657.866C956.478 616.448 964.194 574.051 984.47 538.008C984.99 538.008 999.856 541.943 1014.74 596.967C1014.74 596.967 1029.5 655.193 1052.86 652.612H1093.55C1093.55 652.612 1130.09 653.949 1130.09 628.395V589.077C1130.09 589.077 1131.22 573.665 1137.18 583.348L1156.12 624.442C1156.12 624.442 1159.84 632.313 1148.7 636.248Z" fill="black"/>
<path opacity="0.2" d="M1154.26 516.372C1139.67 528.654 1132.14 548.002 1131.95 567.46C1131.77 565.025 1131.48 562.554 1131.51 560.138C1131.51 542.84 1139.99 525.268 1154.26 516.408V516.372Z" fill="black"/>
<path d="M1085.45 637.218C1085.2 637.209 1084.97 637.098 1084.8 636.91C1084.63 636.721 1084.54 636.471 1084.54 636.212L1086.33 577.253C1086.33 538.282 1095.58 510.423 1095.68 510.148C1095.73 510.028 1095.79 509.917 1095.87 509.822C1095.95 509.728 1096.05 509.651 1096.16 509.596C1096.27 509.542 1096.39 509.511 1096.51 509.505C1096.63 509.499 1096.75 509.519 1096.86 509.562C1097.09 509.65 1097.28 509.829 1097.39 510.061C1097.5 510.294 1097.51 510.562 1097.43 510.807C1097.35 511.082 1088.18 538.63 1088.18 577.289L1086.33 636.267C1086.32 636.513 1086.23 636.747 1086.06 636.924C1085.9 637.1 1085.68 637.205 1085.45 637.218Z" fill="#000411"/>
<path d="M1038.96 643.112C1038.71 643.103 1038.48 642.992 1038.31 642.804C1038.15 642.615 1038.05 642.365 1038.06 642.106L1039.91 585.124C1039.86 564.339 1041.43 543.585 1044.59 523.071C1044.61 522.945 1044.66 522.824 1044.72 522.715C1044.79 522.607 1044.87 522.514 1044.97 522.44C1045.07 522.367 1045.18 522.316 1045.3 522.289C1045.42 522.262 1045.55 522.26 1045.67 522.284C1045.91 522.333 1046.12 522.482 1046.26 522.698C1046.4 522.914 1046.46 523.18 1046.41 523.437C1043.28 543.844 1041.73 564.487 1041.78 585.16L1039.91 642.179C1039.9 642.435 1039.79 642.675 1039.61 642.849C1039.44 643.023 1039.2 643.118 1038.96 643.112Z" fill="#000411"/>
<g opacity="0.2">
<path d="M1085.45 637.218C1085.2 637.209 1084.97 637.098 1084.8 636.91C1084.63 636.721 1084.54 636.471 1084.54 636.212L1086.33 577.253C1086.33 538.282 1095.58 510.423 1095.68 510.148C1095.73 510.028 1095.79 509.917 1095.87 509.822C1095.95 509.728 1096.05 509.651 1096.16 509.596C1096.27 509.542 1096.39 509.511 1096.51 509.505C1096.63 509.499 1096.75 509.519 1096.86 509.562C1097.09 509.65 1097.28 509.829 1097.39 510.061C1097.5 510.294 1097.51 510.562 1097.43 510.807C1097.35 511.082 1088.18 538.63 1088.18 577.289L1086.33 636.267C1086.32 636.513 1086.23 636.747 1086.06 636.924C1085.9 637.1 1085.68 637.205 1085.45 637.218Z" fill="black"/>
<path d="M1038.96 643.112C1038.71 643.103 1038.48 642.992 1038.31 642.804C1038.15 642.615 1038.05 642.365 1038.06 642.106L1039.91 585.124C1039.86 564.339 1041.43 543.585 1044.59 523.071C1044.61 522.945 1044.66 522.824 1044.72 522.715C1044.79 522.607 1044.87 522.514 1044.97 522.44C1045.07 522.367 1045.18 522.316 1045.3 522.289C1045.42 522.262 1045.55 522.26 1045.67 522.284C1045.91 522.333 1046.12 522.482 1046.26 522.698C1046.4 522.914 1046.46 523.18 1046.41 523.437C1043.28 543.844 1041.73 564.487 1041.78 585.16L1039.91 642.179C1039.9 642.435 1039.79 642.675 1039.61 642.849C1039.44 643.023 1039.2 643.118 1038.96 643.112Z" fill="black"/>
</g>
<path d="M1198.95 724.659C1198.95 724.97 1198.95 740.694 1195.26 771.812L1194.65 776.26C1194.1 780.673 1193.81 785.117 1193.77 789.567C1193.64 796.596 1189.31 809.977 1156.86 804.595C1157.69 803.076 1158.49 801.575 1159.2 800.037C1159.43 799.616 1159.62 799.214 1159.82 798.793C1162.55 793.301 1166.22 784.918 1167.36 777.724C1167.36 777.724 1065.14 767.894 1031.58 754.129C1031.58 754.129 982.547 732.53 964.268 739.394L949.749 752.208C949.749 752.208 936.738 748.272 955.328 724.751L1198.95 724.659Z" fill="#160C28"/>
<path opacity="0.2" d="M1167.29 777.724C1167.29 777.724 1191.2 779.408 1190.32 790.537C1190.22 791.563 1189.92 792.556 1189.44 793.454C1188.96 794.352 1188.31 795.135 1187.53 795.754C1184.34 798.335 1176.7 801.776 1159.55 799.214C1162.8 792.341 1165.39 785.142 1167.29 777.724Z" fill="black"/>
<path opacity="0.2" d="M952.521 749.681C952.521 749.681 941.554 742.36 964.216 739.394L952.521 749.681Z" fill="black"/>
<path d="M1167.29 777.724C1165.55 785.027 1163.02 792.096 1159.76 798.793C1159.55 799.214 1159.36 799.616 1159.13 800.037C1158.75 800.824 1158.37 801.538 1158.06 802.142C1157.75 802.746 1157.24 803.771 1156.79 804.595C1133.75 847.501 1084.79 885.941 1064.86 900.456C1062.23 902.359 1060.05 904.866 1058.47 907.789C1056.88 910.711 1055.95 913.974 1055.73 917.333C1051.68 984.785 1022.22 1042.98 1022.22 1042.98C1015.97 1052.44 1006.63 1057 996.235 1058.46C963.142 1063.18 918.061 1037.08 918.061 1037.08L942.317 964.376C962.761 883.835 983.223 860.241 983.223 860.241L1029.15 759.346L1031.53 754.129C1065 767.894 1167.29 777.724 1167.29 777.724Z" fill="#000411"/>
<path opacity="0.2" d="M1167.29 777.724C1165.55 785.027 1163.02 792.096 1159.76 798.793C1159.55 799.214 1159.36 799.616 1159.13 800.037C1158.75 800.824 1158.37 801.538 1158.06 802.142C1157.75 802.746 1157.24 803.771 1156.79 804.595C1133.75 847.501 1084.79 885.941 1064.86 900.456C1062.23 902.359 1060.05 904.866 1058.47 907.789C1056.88 910.712 1055.95 913.974 1055.73 917.333C1051.68 984.785 1022.22 1042.98 1022.22 1042.98C1015.97 1052.44 1006.63 1057 996.234 1058.46C1030.89 1011.38 1050.41 906.533 1050.41 906.533C1048.87 882.133 1117.06 818.928 1117.06 818.928C1143.05 791.471 1109.63 783.563 1109.63 783.563C1079.71 778.566 1040.47 763.703 1029.14 759.291L1031.51 754.075C1065 767.895 1167.29 777.724 1167.29 777.724Z" fill="black"/>
<path d="M996.235 831.558L938.522 856.306L961.046 903.897C961.046 903.897 951.447 933.533 941.294 969.355C941.294 969.355 918.043 986.048 893.874 984.09C893.874 984.09 873.412 929.066 862.254 872.084C862.254 872.084 847.371 838.678 873.412 817.061L948.71 752.684L964.182 739.449C964.182 739.449 975.703 730.608 1031.49 754.184L996.235 831.558Z" fill="#000411"/>
<path d="M923.882 1019.56L887.082 1049.62C883.503 1052.6 879.535 1055.03 875.3 1056.81C869.739 1059.1 861.699 1064.14 863.449 1073.6C863.938 1076.08 864.995 1078.39 866.526 1080.34C868.057 1082.28 870.017 1083.8 872.233 1084.76C876.634 1086.71 883.634 1088 893.943 1085.44L914.387 1068.53L927.33 1041.91L918.112 1037.08L923.882 1019.56Z" fill="#160C28"/>
<path opacity="0.2" d="M923.882 1019.56L887.082 1049.62C883.503 1052.6 879.535 1055.03 875.3 1056.81C869.739 1059.1 861.699 1064.14 863.449 1073.6C863.938 1076.08 864.995 1078.39 866.526 1080.34C868.057 1082.28 870.017 1083.8 872.233 1084.76C876.634 1086.71 883.634 1088 893.943 1085.44L914.387 1068.53L927.33 1041.91L918.112 1037.08L923.882 1019.56Z" fill="black"/>
<path opacity="0.2" d="M996.234 831.558L938.522 856.306L961.046 903.897C955.248 926.22 948.372 948.214 940.445 969.794C940.445 969.794 918.043 986.048 893.874 984.09C962.674 978.196 929.877 861.046 929.877 861.046C922.288 843.145 933.654 837.891 940.567 836.372C944.987 835.412 949.335 834.115 953.578 832.491L970.991 825.719C977.427 823.289 983.336 819.522 988.371 814.639C993.406 809.757 997.464 803.858 1000.31 797.292C1002.35 792.47 1003.65 787.335 1004.17 782.081C1004.69 776.024 1003.19 769.965 999.935 764.951C996.676 759.938 991.862 756.285 986.324 754.624C971.736 750.084 957.113 751.256 948.71 752.61L964.182 739.376C964.182 739.376 975.703 730.535 1031.49 754.111L996.234 831.558Z" fill="black"/>
<path opacity="0.2" d="M863.155 1071.11C877.016 1079.33 894.064 1078.28 908.202 1071.57C910.264 1070.63 912.239 1069.48 914.318 1068.53C912.464 1069.86 910.558 1071.18 908.601 1072.43C894.74 1080.72 876.063 1081.76 863.138 1071.11H863.155Z" fill="black"/>
<path opacity="0.2" d="M884.102 1051.85C891.275 1055.22 905.205 1064.37 905.066 1073.64C903.819 1068.49 899.349 1065.23 895.797 1061.81C892.245 1058.39 888 1055.28 884.102 1051.85Z" fill="black"/>
<path opacity="0.2" d="M893.891 1044.04C899.245 1044.84 903.455 1049.97 905.066 1055.2C901.202 1051.45 898.136 1047.39 893.891 1044.04Z" fill="black"/>
<path opacity="0.2" d="M900.943 1038.34C903.586 1039.08 906.016 1040.49 908.018 1042.46C910.019 1044.43 911.528 1046.89 912.412 1049.62C908.635 1045.61 904.876 1042.3 900.943 1038.34Z" fill="black"/>
<path opacity="0.2" d="M908.774 1031.88C913.185 1034.56 916.496 1038.87 918.061 1043.98C914.419 1040.45 911.289 1036.38 908.774 1031.88Z" fill="black"/>
<path d="M1275.16 710.912H706.044V724.659H1275.16V710.912Z" fill="#B3B3B3"/>
<path d="M1275.16 710.913V724.659L1338.38 671.613L1338.44 659.861L1275.16 710.913Z" fill="#999999"/>
<path d="M854.821 675.548H1024.74L1012.04 558.856C1011.78 556.343 1010.66 554.018 1008.88 552.328C1007.1 550.638 1004.79 549.704 1002.4 549.704H846.47C845.75 549.718 845.041 549.889 844.387 550.208C843.733 550.526 843.149 550.985 842.672 551.555C842.194 552.124 841.834 552.793 841.614 553.517C841.394 554.241 841.319 555.006 841.394 555.763L854.821 675.548Z" fill="#160C28"/>
<path opacity="0.3" d="M1024.75 675.548H854.821L841.359 555.836C841.284 555.078 841.36 554.312 841.581 553.586C841.802 552.86 842.164 552.191 842.643 551.621C843.122 551.051 843.708 550.593 844.364 550.276C845.02 549.958 845.731 549.789 846.453 549.777H1002.39C1004.78 549.777 1007.08 550.711 1008.86 552.401C1010.64 554.091 1011.77 556.417 1012.02 558.93L1024.75 675.548Z" fill="white"/>
<path opacity="0.3" d="M986.116 549.777L854.821 669.636L851.997 646.444L958.36 549.777H986.116Z" fill="white"/>
<path opacity="0.3" d="M870.969 675.548L1008.78 552.322C1010.55 554.031 1011.71 556.343 1012.04 558.857L1012.71 564.97L889.542 675.548H870.969Z" fill="white"/>
<path d="M1018.48 675.548H854.821V687.336H1018.48V675.548Z" fill="#160C28"/>
<path d="M1069.59 675.548H1018.5V687.336H1069.59V675.548Z" fill="#160C28"/>
<path opacity="0.2" d="M1069.59 675.548H1018.5V687.336H1069.59V675.548Z" fill="black"/>
<path d="M702.319 691.253H783.144L841.324 655.413H771.831L702.319 691.253Z" fill="white"/>
<path d="M783.144 691.253H702.319V699.765H783.144V691.253Z" fill="#E6E6E6"/>
<path d="M841.324 655.413V666.14L783.144 699.765V691.253L841.324 655.413Z" fill="#CCCCCC"/>
<path opacity="0.1" d="M841.324 655.413V666.14L783.144 699.765V691.253L841.324 655.413Z" fill="black"/>
<path d="M1116.09 656.365C1116.09 656.365 1092.77 659.788 1079.81 678.477C1079.81 678.477 1062.49 695.225 1079.5 692.26C1079.5 692.26 1080.32 700.827 1094.04 695.061C1094.04 695.061 1096.41 701.12 1111.36 692.26C1111.36 692.26 1126.35 683.401 1139.36 679.447C1139.38 679.465 1144.89 656.841 1116.09 656.365Z" fill="#F9B499"/>
<path d="M1094.32 673.608C1090.39 680.662 1085.39 686.977 1079.5 692.297C1083.43 685.246 1088.44 678.931 1094.32 673.608Z" fill="#F7A48B"/>
<path d="M1094.04 695.061C1096.99 689.459 1101.03 684.581 1105.89 680.746C1102.95 686.356 1098.91 691.237 1094.04 695.061Z" fill="#F7A48B"/>
<path d="M1081.74 453.495C1087.9 453.495 1092.9 446.898 1092.9 438.76C1092.9 430.622 1087.9 424.025 1081.74 424.025C1075.58 424.025 1070.58 430.622 1070.58 438.76C1070.58 446.898 1075.58 453.495 1081.74 453.495Z" fill="#F9B499"/>
<path d="M1085.45 463.105C1085.45 463.105 1106.58 454.081 1127.46 456.296C1139.13 457.641 1149.87 463.645 1157.49 473.081C1165.89 483.332 1177.48 500.721 1165.07 506.579C1163.06 507.464 1160.88 507.869 1158.7 507.764C1156.51 507.66 1154.38 507.049 1152.44 505.975C1143.78 501.417 1121.4 493.326 1069.64 529.13L1117.06 486.901C1117.06 486.901 1128.29 475.04 1111 471.288C1109.51 470.979 1107.99 470.826 1106.46 470.83C1100.62 470.934 1094.81 471.713 1089.14 473.155C1089.14 473.155 1085.45 466.858 1085.45 463.105Z" fill="#160C28"/>
<path opacity="0.3" d="M1085.45 463.105C1085.45 463.105 1106.58 454.081 1127.46 456.296C1139.13 457.641 1149.87 463.645 1157.49 473.081C1165.89 483.332 1177.48 500.721 1165.07 506.579C1163.06 507.464 1160.88 507.869 1158.7 507.764C1156.51 507.66 1154.38 507.049 1152.44 505.975C1143.78 501.417 1121.4 493.326 1069.64 529.13L1117.06 486.901C1117.06 486.901 1128.29 475.04 1111 471.288C1109.51 470.979 1107.99 470.826 1106.46 470.83C1100.62 470.934 1094.81 471.713 1089.14 473.155C1089.14 473.155 1085.45 466.858 1085.45 463.105Z" fill="white"/>
<path opacity="0.3" d="M1143.11 473.155C1133.18 485.876 1119.75 495.23 1106.29 503.339C1104.3 504.4 1102.34 505.535 1100.33 506.56C1114.81 495.742 1129.78 485.675 1143.11 473.155Z" fill="white"/>
<path opacity="0.3" d="M1159.84 481.007C1151.51 490.763 1139.14 495.999 1127.08 498.122C1138.29 493.418 1150.05 488.53 1159.84 481.007Z" fill="white"/>
<path d="M1059.4 530.137C1051.73 525.268 1022.4 517.69 1012.49 515.218C1010.56 514.783 1008.6 514.496 1006.63 514.358C998.296 513.534 999.856 508.574 999.856 508.574C999.856 500.721 1011.36 495.614 1011.36 495.614C1021.76 506.78 1034.72 512.546 1047.29 510.258L1059.4 530.137Z" fill="#160C28"/>
<path opacity="0.3" d="M1059.4 530.137C1051.73 525.268 1022.4 517.69 1012.49 515.218C1010.56 514.783 1008.6 514.496 1006.63 514.358C998.296 513.534 999.856 508.574 999.856 508.574C999.856 500.721 1011.36 495.614 1011.36 495.614C1021.76 506.78 1034.72 512.546 1047.29 510.258L1059.4 530.137Z" fill="white"/>
<path d="M930.154 628.377C937.857 628.377 944.101 621.78 944.101 613.642C944.101 605.504 937.857 598.907 930.154 598.907C922.451 598.907 916.207 605.504 916.207 613.642C916.207 621.78 922.451 628.377 930.154 628.377Z" fill="white"/>
<path d="M925.909 181.783H472.874C468.319 181.783 464.626 185.684 464.626 190.496V454.96C464.626 459.772 468.319 463.673 472.874 463.673H925.909C930.464 463.673 934.156 459.772 934.156 454.96V190.496C934.156 185.684 930.464 181.783 925.909 181.783Z" fill="#E6E6E6"/>
<path d="M934.156 190.496V223.883H464.626V190.496C464.626 188.185 465.495 185.969 467.042 184.335C468.589 182.701 470.686 181.783 472.874 181.783H925.909C928.096 181.783 930.194 182.701 931.741 184.335C933.287 185.969 934.156 188.185 934.156 190.496Z" fill="#160C28"/>
<path d="M903.836 194.596H734.043C729.737 194.596 726.246 198.284 726.246 202.833C726.246 207.382 729.737 211.07 734.043 211.07H903.836C908.142 211.07 911.633 207.382 911.633 202.833C911.633 198.284 908.142 194.596 903.836 194.596Z" fill="white"/>
<path d="M489.749 207.409C493.098 207.409 495.813 204.541 495.813 201.002C495.813 197.464 493.098 194.596 489.749 194.596C486.4 194.596 483.685 197.464 483.685 201.002C483.685 204.541 486.4 207.409 489.749 207.409Z" fill="white"/>
<path d="M519.203 207.409C522.552 207.409 525.267 204.541 525.267 201.002C525.267 197.464 522.552 194.596 519.203 194.596C515.854 194.596 513.139 197.464 513.139 201.002C513.139 204.541 515.854 207.409 519.203 207.409Z" fill="white"/>
<path d="M550.389 207.409C553.738 207.409 556.453 204.541 556.453 201.002C556.453 197.464 553.738 194.596 550.389 194.596C547.04 194.596 544.325 197.464 544.325 201.002C544.325 204.541 547.04 207.409 550.389 207.409Z" fill="white"/>
<path d="M637.884 283.373C647.932 283.373 656.077 274.768 656.077 264.153C656.077 253.538 647.932 244.933 637.884 244.933C627.837 244.933 619.692 253.538 619.692 264.153C619.692 274.768 627.837 283.373 637.884 283.373Z" fill="#160C28"/>
<path d="M637.434 263.183C639.692 263.183 641.523 261.249 641.523 258.863C641.523 256.477 639.692 254.543 637.434 254.543C635.176 254.543 633.345 256.477 633.345 258.863C633.345 261.249 635.176 263.183 637.434 263.183Z" fill="white"/>
<path d="M630.885 272.738H645.006C645.141 272.742 645.276 272.713 645.4 272.653C645.523 272.593 645.632 272.504 645.717 272.392C645.803 272.281 645.863 272.15 645.893 272.01C645.922 271.87 645.921 271.724 645.889 271.585C645.601 269.619 644.611 267.846 643.121 266.63C641.632 265.414 639.757 264.848 637.885 265.05C637.885 265.05 632.15 264.19 630.001 271.493C629.961 271.638 629.953 271.791 629.978 271.94C630.004 272.089 630.062 272.229 630.148 272.35C630.233 272.471 630.345 272.569 630.473 272.636C630.601 272.704 630.742 272.738 630.885 272.738Z" fill="white"/>
<path d="M629.222 433.47C639.269 433.47 647.414 424.865 647.414 414.251C647.414 403.636 639.269 395.031 629.222 395.031C619.175 395.031 611.03 403.636 611.03 414.251C611.03 424.865 619.175 433.47 629.222 433.47Z" fill="#160C28"/>
<path d="M628.771 413.28C631.03 413.28 632.86 411.346 632.86 408.961C632.86 406.575 631.03 404.641 628.771 404.641C626.513 404.641 624.682 406.575 624.682 408.961C624.682 411.346 626.513 413.28 628.771 413.28Z" fill="white"/>
<path d="M622.222 422.835H636.342C636.478 422.839 636.613 422.81 636.737 422.75C636.86 422.69 636.969 422.601 637.054 422.49C637.14 422.378 637.2 422.247 637.229 422.107C637.259 421.967 637.258 421.822 637.226 421.682C636.938 419.717 635.948 417.943 634.458 416.727C632.969 415.511 631.094 414.946 629.222 415.147C629.222 415.147 623.487 414.287 621.338 421.591C621.298 421.736 621.29 421.889 621.315 422.037C621.341 422.186 621.399 422.326 621.484 422.447C621.57 422.568 621.682 422.666 621.81 422.734C621.938 422.801 622.079 422.836 622.222 422.835Z" fill="white"/>
<path d="M818.073 292.525C828.12 292.525 836.265 283.92 836.265 273.305C836.265 262.691 828.12 254.086 818.073 254.086C808.026 254.086 799.881 262.691 799.881 273.305C799.881 283.92 808.026 292.525 818.073 292.525Z" fill="#160C28"/>
<path d="M817.623 272.335C819.881 272.335 821.711 270.401 821.711 268.015C821.711 265.63 819.881 263.695 817.623 263.695C815.364 263.695 813.534 265.63 813.534 268.015C813.534 270.401 815.364 272.335 817.623 272.335Z" fill="white"/>
<path d="M811.074 281.89H825.194C825.33 281.894 825.465 281.865 825.588 281.805C825.712 281.745 825.82 281.656 825.906 281.544C825.991 281.433 826.051 281.302 826.081 281.162C826.111 281.022 826.11 280.876 826.078 280.737C825.79 278.772 824.799 276.998 823.31 275.782C821.82 274.566 819.946 274.001 818.073 274.202C818.073 274.202 812.338 273.342 810.19 280.646C810.149 280.79 810.142 280.943 810.167 281.092C810.192 281.241 810.25 281.381 810.336 281.502C810.422 281.623 810.533 281.721 810.661 281.788C810.789 281.856 810.93 281.891 811.074 281.89Z" fill="white"/>
<path d="M880.446 354.761C890.493 354.761 898.638 346.156 898.638 335.541C898.638 324.926 890.493 316.321 880.446 316.321C870.399 316.321 862.254 324.926 862.254 335.541C862.254 346.156 870.399 354.761 880.446 354.761Z" fill="#160C28"/>
<path d="M879.996 334.571C882.254 334.571 884.085 332.637 884.085 330.251C884.085 327.865 882.254 325.931 879.996 325.931C877.737 325.931 875.907 327.865 875.907 330.251C875.907 332.637 877.737 334.571 879.996 334.571Z" fill="white"/>
<path d="M873.447 344.126H887.567C887.703 344.13 887.838 344.101 887.961 344.041C888.085 343.981 888.193 343.891 888.279 343.78C888.364 343.668 888.424 343.537 888.454 343.397C888.484 343.257 888.483 343.112 888.451 342.972C888.163 341.007 887.172 339.234 885.683 338.018C884.193 336.802 882.319 336.236 880.446 336.438C880.446 336.438 874.711 335.577 872.563 342.881C872.522 343.026 872.515 343.179 872.54 343.328C872.565 343.476 872.623 343.617 872.709 343.738C872.795 343.858 872.906 343.957 873.034 344.024C873.162 344.091 873.304 344.126 873.447 344.126Z" fill="white"/>
<path d="M809.41 444.453C820.414 444.453 829.335 435.029 829.335 423.403C829.335 411.777 820.414 402.353 809.41 402.353C798.406 402.353 789.486 411.777 789.486 423.403C789.486 435.029 798.406 444.453 809.41 444.453Z" fill="#160C28"/>
<path d="M808.908 422.359C811.386 422.359 813.395 420.237 813.395 417.619C813.395 415 811.386 412.878 808.908 412.878C806.429 412.878 804.42 415 804.42 417.619C804.42 420.237 806.429 422.359 808.908 422.359Z" fill="white"/>
<path d="M801.735 432.866H817.207C817.356 432.87 817.503 432.839 817.639 432.773C817.774 432.707 817.893 432.61 817.987 432.487C818.081 432.365 818.147 432.222 818.18 432.069C818.213 431.915 818.212 431.756 818.177 431.603C817.856 429.454 816.769 427.516 815.139 426.185C813.509 424.855 811.46 424.233 809.41 424.446C809.41 424.446 803.121 423.513 800.747 431.512C800.704 431.672 800.697 431.84 800.726 432.003C800.755 432.167 800.821 432.321 800.917 432.453C801.013 432.584 801.137 432.691 801.279 432.762C801.421 432.834 801.577 432.87 801.735 432.866Z" fill="white"/>
<path d="M539.127 356.591C551.088 356.591 560.785 346.347 560.785 333.71C560.785 321.074 551.088 310.83 539.127 310.83C527.167 310.83 517.47 321.074 517.47 333.71C517.47 346.347 527.167 356.591 539.127 356.591Z" fill="#160C28"/>
<path d="M538.59 332.557C541.279 332.557 543.459 330.254 543.459 327.414C543.459 324.573 541.279 322.27 538.59 322.27C535.901 322.27 533.722 324.573 533.722 327.414C533.722 330.254 535.901 332.557 538.59 332.557Z" fill="white"/>
<path d="M530.794 343.998H547.6C547.762 344.002 547.922 343.967 548.069 343.896C548.216 343.825 548.346 343.719 548.448 343.586C548.55 343.453 548.622 343.298 548.658 343.131C548.694 342.964 548.694 342.791 548.657 342.625C548.333 340.276 547.159 338.151 545.381 336.7C543.603 335.248 541.361 334.583 539.128 334.845C539.128 334.845 532.301 333.82 529.754 342.515C529.706 342.686 529.696 342.868 529.725 343.044C529.755 343.22 529.822 343.387 529.923 343.531C530.024 343.675 530.155 343.792 530.306 343.873C530.457 343.954 530.624 343.997 530.794 343.998Z" fill="white"/>
<path d="M862.254 332.795H727.979V334.626H862.254V332.795Z" fill="#000411"/>
<path d="M658.676 332.795H560.785V334.626H658.676V332.795Z" fill="#000411"/>
<path d="M653.962 273.58L652.732 274.869L677.628 301.374L678.858 300.085L653.962 273.58Z" fill="#000411"/>
<path d="M673.086 363.326L640.871 401.768L642.168 402.982L674.383 364.539L673.086 363.326Z" fill="#000411"/>
<path d="M800.337 281.152L725.852 321.491L726.642 323.12L801.127 282.781L800.337 281.152Z" fill="#000411"/>
<path d="M718.7 358.51L717.697 360.002L791.008 415.044L792.011 413.552L718.7 358.51Z" fill="#000411"/>
<path d="M693.327 370.319C712.465 370.319 727.979 353.929 727.979 333.71C727.979 313.492 712.465 297.101 693.327 297.101C674.19 297.101 658.676 313.492 658.676 333.71C658.676 353.929 674.19 370.319 693.327 370.319Z" fill="#160C28"/>
<path d="M692.461 331.88C696.767 331.88 700.258 328.192 700.258 323.643C700.258 319.094 696.767 315.406 692.461 315.406C688.155 315.406 684.664 319.094 684.664 323.643C684.664 328.192 688.155 331.88 692.461 331.88Z" fill="white"/>
<path d="M679.986 350.185H706.893C707.155 350.191 707.414 350.134 707.653 350.019C707.891 349.904 708.101 349.734 708.268 349.521C708.434 349.307 708.553 349.057 708.615 348.789C708.677 348.52 708.681 348.24 708.626 347.97C707.742 343.76 704.554 335.047 693.362 335.541C693.362 335.541 682.429 333.893 678.358 347.805C678.277 348.077 678.257 348.365 678.3 348.647C678.343 348.929 678.448 349.196 678.606 349.427C678.765 349.658 678.972 349.847 679.211 349.978C679.451 350.11 679.716 350.181 679.986 350.185Z" fill="white"/>
</svg>
