<svg width="210" height="273" viewBox="0 0 210 273" fill="none" xmlns="http://www.w3.org/2000/svg">
<rect x="1.23523" y="0.5" width="207.293" height="271.056" rx="39.5" fill="#000411" stroke="#3C99D4"/>
<path d="M36.7711 226.227L28.1311 199.659H32.7391L39.5791 221.439L46.4191 199.659H51.0271L42.3871 226.227H36.7711ZM61.4359 226.443C60.7879 226.443 60.0919 226.419 59.3479 226.371C58.6279 226.347 57.8839 226.299 57.1159 226.227C56.3719 226.131 55.6639 226.047 54.9919 225.975C54.3199 225.879 53.7199 225.771 53.1919 225.651V222.159C53.8639 222.207 54.6439 222.255 55.5319 222.303C56.4439 222.351 57.3919 222.387 58.3759 222.411C59.3599 222.435 60.3079 222.447 61.2199 222.447C62.1799 222.447 63.0319 222.363 63.7759 222.195C64.5199 222.003 65.0959 221.679 65.5039 221.223C65.9119 220.767 66.1159 220.119 66.1159 219.279V218.019C66.1159 217.083 65.8519 216.363 65.3239 215.859C64.7959 215.355 64.0159 215.103 62.9839 215.103H60.4999C58.0759 215.103 56.2039 214.575 54.8839 213.519C53.5879 212.463 52.9399 210.651 52.9399 208.083V206.715C52.9399 204.147 53.6479 202.299 55.0639 201.171C56.5039 200.019 58.5559 199.443 61.2199 199.443C62.1319 199.443 63.0679 199.491 64.0279 199.587C65.0119 199.659 65.9479 199.755 66.8359 199.875C67.7239 199.995 68.4799 200.127 69.1039 200.271V203.763C68.0479 203.691 66.8359 203.619 65.4679 203.547C64.1239 203.475 62.8759 203.439 61.7239 203.439C60.8119 203.439 60.0079 203.535 59.3119 203.727C58.6159 203.919 58.0879 204.267 57.7279 204.771C57.3679 205.251 57.1879 205.971 57.1879 206.931V207.795C57.1879 208.923 57.4879 209.715 58.0879 210.171C58.7119 210.627 59.5999 210.855 60.7519 210.855H63.5239C65.0839 210.855 66.3679 211.143 67.3759 211.719C68.3839 212.295 69.1279 213.087 69.6079 214.095C70.1119 215.079 70.3639 216.207 70.3639 217.479V219.171C70.3639 221.139 69.9799 222.651 69.2119 223.707C68.4439 224.763 67.3879 225.483 66.0439 225.867C64.6999 226.251 63.1639 226.443 61.4359 226.443ZM92.9244 226.443C91.3644 226.443 89.9844 226.263 88.7844 225.903C87.6084 225.543 86.6124 224.883 85.7964 223.923C85.0044 222.963 84.4044 221.595 83.9964 219.819C83.5884 218.043 83.3844 215.715 83.3844 212.835C83.3844 210.123 83.5884 207.891 83.9964 206.139C84.4284 204.387 85.0524 203.019 85.8684 202.035C86.7084 201.051 87.7284 200.367 88.9284 199.983C90.1284 199.599 91.4964 199.407 93.0324 199.407C94.0884 199.407 95.1084 199.467 96.0924 199.587C97.1004 199.707 98.0244 199.851 98.8644 200.019C99.7284 200.187 100.472 200.367 101.096 200.559V203.979C100.688 203.883 100.112 203.799 99.3684 203.727C98.6244 203.631 97.7844 203.559 96.8484 203.511C95.9124 203.439 94.9404 203.403 93.9324 203.403C92.8284 203.403 91.8804 203.535 91.0884 203.799C90.3204 204.039 89.6964 204.495 89.2164 205.167C88.7364 205.839 88.3884 206.799 88.1724 208.047C87.9564 209.295 87.8484 210.915 87.8484 212.907C87.8484 214.875 87.9444 216.483 88.1364 217.731C88.3524 218.979 88.6764 219.951 89.1084 220.647C89.5644 221.319 90.1764 221.787 90.9444 222.051C91.7364 222.315 92.7204 222.447 93.8964 222.447C95.6964 222.447 97.1724 222.411 98.3244 222.339C99.4764 222.243 100.4 222.147 101.096 222.051V225.471C100.424 225.663 99.6564 225.831 98.7924 225.975C97.9524 226.119 97.0404 226.227 96.0564 226.299C95.0964 226.395 94.0524 226.443 92.9244 226.443ZM114.748 226.443C112.972 226.443 111.412 226.275 110.068 225.939C108.748 225.579 107.632 224.943 106.72 224.031C105.832 223.095 105.16 221.739 104.704 219.963C104.272 218.187 104.056 215.871 104.056 213.015C104.056 210.135 104.284 207.807 104.74 206.031C105.196 204.231 105.868 202.863 106.756 201.927C107.668 200.967 108.784 200.307 110.104 199.947C111.448 199.587 112.996 199.407 114.748 199.407C116.548 199.407 118.12 199.587 119.464 199.947C120.808 200.307 121.924 200.967 122.812 201.927C123.7 202.863 124.36 204.231 124.792 206.031C125.248 207.807 125.476 210.135 125.476 213.015C125.476 215.871 125.248 218.187 124.792 219.963C124.36 221.739 123.688 223.095 122.776 224.031C121.888 224.943 120.772 225.579 119.428 225.939C118.108 226.275 116.548 226.443 114.748 226.443ZM114.748 222.447C115.924 222.447 116.908 222.327 117.7 222.087C118.516 221.823 119.164 221.367 119.644 220.719C120.124 220.047 120.472 219.099 120.688 217.875C120.904 216.627 121.012 215.007 121.012 213.015C121.012 210.903 120.892 209.223 120.652 207.975C120.436 206.703 120.088 205.743 119.608 205.095C119.128 204.423 118.492 203.979 117.7 203.763C116.908 203.523 115.924 203.403 114.748 203.403C113.644 203.403 112.696 203.523 111.904 203.763C111.112 203.979 110.464 204.423 109.96 205.095C109.48 205.743 109.12 206.703 108.88 207.975C108.64 209.223 108.52 210.903 108.52 213.015C108.52 215.007 108.616 216.627 108.808 217.875C109.024 219.099 109.372 220.047 109.852 220.719C110.332 221.367 110.968 221.823 111.76 222.087C112.576 222.327 113.572 222.447 114.748 222.447ZM129.772 226.227V199.659H140.752C142.48 199.659 143.92 199.971 145.072 200.595C146.248 201.195 147.184 202.083 147.88 203.259C148.576 204.411 149.068 205.803 149.356 207.435C149.668 209.067 149.824 210.903 149.824 212.943C149.824 215.871 149.488 218.319 148.816 220.287C148.144 222.231 147.136 223.707 145.792 224.715C144.448 225.723 142.768 226.227 140.752 226.227H129.772ZM134.2 222.231H140.32C141.544 222.231 142.516 221.871 143.236 221.151C143.98 220.431 144.52 219.375 144.856 217.983C145.216 216.591 145.396 214.911 145.396 212.943C145.396 211.119 145.288 209.607 145.072 208.407C144.856 207.207 144.544 206.259 144.136 205.563C143.728 204.867 143.2 204.375 142.552 204.087C141.928 203.799 141.184 203.655 140.32 203.655H134.2V222.231ZM160.256 226.407C159.68 226.407 159.032 226.347 158.312 226.227C157.616 226.131 156.944 225.903 156.296 225.543C155.648 225.159 155.12 224.595 154.712 223.851C154.304 223.107 154.1 222.087 154.1 220.791V205.455C154.1 204.327 154.268 203.391 154.604 202.647C154.94 201.879 155.384 201.279 155.936 200.847C156.512 200.415 157.136 200.115 157.808 199.947C158.504 199.755 159.188 199.659 159.86 199.659C161.54 199.659 163.052 199.683 164.396 199.731C165.74 199.779 166.964 199.827 168.068 199.875C169.196 199.923 170.24 199.983 171.2 200.055V203.763H161.156C160.34 203.763 159.692 203.967 159.212 204.375C158.756 204.783 158.528 205.419 158.528 206.283V210.999L169.58 211.251V214.743L158.528 214.995V219.567C158.528 220.287 158.648 220.839 158.888 221.223C159.152 221.607 159.476 221.871 159.86 222.015C160.268 222.159 160.688 222.231 161.12 222.231H171.2V225.939C170.144 226.035 168.992 226.119 167.744 226.191C166.496 226.239 165.224 226.275 163.928 226.299C162.656 226.347 161.432 226.383 160.256 226.407Z" fill="#3C99D4"/>
<path d="M43.761 77.8534C43.761 77.8534 40.6919 75.3605 44.3749 72.0317L52.9557 63.3857C52.9557 63.3857 55.411 60.4748 58.0069 63.011L137.191 130.566V162.959C137.191 162.959 137.152 168.046 131.359 167.484L43.761 77.8534Z" fill="#2489CA"/>
<path d="M64.1708 98.7336L43.7611 119.643C43.7611 119.643 41.6638 121.401 43.7611 124.542L53.237 134.255C53.237 134.255 55.4877 136.978 58.8126 133.88L80.45 115.392L64.1708 98.7336Z" fill="#1070B3"/>
<path d="M100.003 98.9065L137.434 66.6999L137.191 34.4789C137.191 34.4789 135.592 27.4468 130.259 31.107L80.45 82.1908L100.003 98.9065Z" fill="#0877B9"/>
<path d="M131.359 167.527C133.533 170.035 136.168 169.213 136.168 169.213L165.337 153.016C169.071 150.149 168.547 146.59 168.547 146.59V49.869C168.547 45.618 164.685 44.1482 164.685 44.1482L139.403 30.4153C133.878 26.5678 130.259 31.107 130.259 31.107C130.259 31.107 134.914 27.3316 137.191 34.479V162.369C137.191 163.248 137.024 164.112 136.692 164.89C136.027 166.403 134.582 167.816 131.116 167.225L131.359 167.527Z" fill="#3C99D4"/>
</svg>
