<svg width="209" height="273" viewBox="0 0 209 273" fill="none" xmlns="http://www.w3.org/2000/svg">
<rect x="0.5" y="0.660156" width="207.293" height="271.056" rx="39.5" fill="#000411" stroke="#FFDE25"/>
<path d="M90.2374 229.791C89.4934 229.791 88.7254 229.719 87.9334 229.575C87.1414 229.407 86.4814 229.227 85.9534 229.035V225.507C86.4574 225.579 87.0094 225.651 87.6094 225.723C88.2094 225.771 88.7614 225.795 89.2654 225.795C89.9374 225.795 90.5014 225.699 90.9574 225.507C91.4134 225.291 91.7614 224.967 92.0014 224.535C92.2654 224.079 92.3974 223.455 92.3974 222.663V203.007H96.8614V223.311C96.8614 224.799 96.6214 226.023 96.1414 226.983C95.6854 227.943 94.9654 228.651 93.9814 229.107C93.0214 229.563 91.7734 229.791 90.2374 229.791ZM109.658 229.791C109.01 229.791 108.314 229.767 107.57 229.719C106.85 229.695 106.106 229.647 105.338 229.575C104.594 229.479 103.886 229.395 103.214 229.323C102.542 229.227 101.942 229.119 101.414 228.999V225.507C102.086 225.555 102.866 225.603 103.754 225.651C104.666 225.699 105.614 225.735 106.598 225.759C107.582 225.783 108.53 225.795 109.442 225.795C110.402 225.795 111.254 225.711 111.998 225.543C112.742 225.351 113.318 225.027 113.726 224.571C114.134 224.115 114.338 223.467 114.338 222.627V221.367C114.338 220.431 114.074 219.711 113.546 219.207C113.018 218.703 112.238 218.451 111.206 218.451H108.722C106.298 218.451 104.426 217.923 103.106 216.867C101.81 215.811 101.162 213.999 101.162 211.431V210.063C101.162 207.495 101.87 205.647 103.286 204.519C104.726 203.367 106.778 202.791 109.442 202.791C110.354 202.791 111.29 202.839 112.25 202.935C113.234 203.007 114.17 203.103 115.058 203.223C115.946 203.343 116.702 203.475 117.326 203.619V207.111C116.27 207.039 115.058 206.967 113.69 206.895C112.346 206.823 111.098 206.787 109.946 206.787C109.034 206.787 108.23 206.883 107.534 207.075C106.838 207.267 106.31 207.615 105.95 208.119C105.59 208.599 105.41 209.319 105.41 210.279V211.143C105.41 212.271 105.71 213.063 106.31 213.519C106.934 213.975 107.822 214.203 108.974 214.203H111.746C113.306 214.203 114.59 214.491 115.598 215.067C116.606 215.643 117.35 216.435 117.83 217.443C118.334 218.427 118.586 219.555 118.586 220.827V222.519C118.586 224.487 118.202 225.999 117.434 227.055C116.666 228.111 115.61 228.831 114.266 229.215C112.922 229.599 111.386 229.791 109.658 229.791Z" fill="#FFDE25"/>
<g clip-path="url(#clip0_78_118)">
<path d="M52.831 162.322L42.5087 40.7708L165.784 41.015L154.869 162.322L104.612 176.344L52.831 162.322Z" fill="#E9CA32"/>
<path d="M104.612 164.605V52.3469L155.377 52.5098L146.324 152.947L104.612 164.605Z" fill="#FFDE25"/>
<path d="M99.1756 65.676H85.7545V140.392L75.3159 138.476V128.418L62.8889 126.503V149.013L99.1756 158.113V65.676ZM109.243 65.676H146.398L143.913 79.9966H123.427V103.497H143.913L141.427 150.929L109.243 158.113V143.266L130.989 136.082L132.244 116.445L109.243 119.654V65.676Z" fill="white"/>
</g>
<defs>
<clipPath id="clip0_78_118">
<rect width="123.275" height="136.028" fill="white" transform="translate(42.5087 40.5435)"/>
</clipPath>
</defs>
</svg>
