<svg width="196" height="256" viewBox="0 0 196 256" fill="none" xmlns="http://www.w3.org/2000/svg">
<rect x="0.5" y="0.5" width="195" height="255" rx="39.5" fill="#000411" stroke="#E1EFE6"/>
<g clip-path="url(#clip0_131_2)">
<path d="M73.7549 173C87.4142 173 98.5 161.949 98.5 148.333V123.667H73.7549C60.0957 123.667 49.0099 134.717 49.0099 148.333C49.0099 161.949 60.0957 173 73.7549 173Z" fill="#0ACF83"/>
<path d="M49.0099 99.0002C49.0099 85.3842 60.0957 74.3335 73.7549 74.3335H98.5V123.667H73.7549C60.0957 123.667 49.0099 112.616 49.0099 99.0002Z" fill="#A259FF"/>
<path d="M49.0096 49.6667C49.0096 36.0507 60.0954 25 73.7547 25H98.4997V74.3333H73.7547C60.0954 74.3333 49.0096 63.2827 49.0096 49.6667Z" fill="#F24E1E"/>
<path d="M98.5 25H123.245C136.904 25 147.99 36.0507 147.99 49.6667C147.99 63.2827 136.904 74.3333 123.245 74.3333H98.5V25Z" fill="#FF7262"/>
<path d="M147.99 99.0002C147.99 112.616 136.904 123.667 123.245 123.667C109.586 123.667 98.5 112.616 98.5 99.0002C98.5 85.3842 109.586 74.3335 123.245 74.3335C136.904 74.3335 147.99 85.3842 147.99 99.0002Z" fill="#1ABCFE"/>
</g>
<path d="M45.484 221V200.228C45.484 199.1 45.652 198.164 45.988 197.42C46.324 196.652 46.768 196.052 47.32 195.62C47.896 195.188 48.52 194.888 49.192 194.72C49.888 194.528 50.572 194.432 51.244 194.432C52.18 194.432 53.284 194.444 54.556 194.468C55.828 194.468 57.16 194.504 58.552 194.576C59.944 194.624 61.288 194.708 62.584 194.828V198.536H52.432C51.64 198.536 51.016 198.764 50.56 199.22C50.128 199.652 49.912 200.252 49.912 201.02V206.384L60.964 206.636V210.128L49.912 210.38V221H45.484ZM66.2613 221V194.432H70.6893V221H66.2613ZM83.2801 221.18C81.6001 221.18 80.2201 220.88 79.1401 220.28C78.0841 219.68 77.2441 218.804 76.6201 217.652C76.0201 216.5 75.5881 215.084 75.3241 213.404C75.0841 211.724 74.9641 209.816 74.9641 207.68C74.9641 205.496 75.0961 203.564 75.3601 201.884C75.6481 200.204 76.1401 198.8 76.8361 197.672C77.5321 196.52 78.4921 195.656 79.7161 195.08C80.9641 194.48 82.5601 194.18 84.5041 194.18C85.6081 194.18 86.6641 194.228 87.6721 194.324C88.6801 194.396 89.6521 194.516 90.5881 194.684C91.5241 194.852 92.4361 195.044 93.3241 195.26V198.68C92.8201 198.608 92.1361 198.536 91.2721 198.464C90.4321 198.392 89.4961 198.332 88.4641 198.284C87.4321 198.212 86.3641 198.176 85.2601 198.176C83.6761 198.176 82.4641 198.488 81.6241 199.112C80.7841 199.712 80.2081 200.708 79.8961 202.1C79.5841 203.492 79.4281 205.364 79.4281 207.716C79.4281 209.564 79.5121 211.1 79.6801 212.324C79.8481 213.524 80.1241 214.484 80.5081 215.204C80.9161 215.9 81.4561 216.392 82.1281 216.68C82.8241 216.944 83.6641 217.076 84.6481 217.076C85.7041 217.076 86.7241 216.98 87.7081 216.788C88.7161 216.572 89.5561 216.344 90.2281 216.104V209.984H84.8641V206.528C85.3441 206.456 85.9201 206.396 86.5921 206.348C87.2881 206.3 88.0081 206.264 88.7521 206.24C89.4961 206.192 90.2281 206.168 90.9481 206.168C91.6681 206.168 92.3161 206.18 92.8921 206.204C93.4921 206.204 94.0321 206.228 94.5121 206.276V221H91.1641L90.5521 219.164C89.8081 219.596 88.7881 220.04 87.4921 220.496C86.1961 220.952 84.7921 221.18 83.2801 221.18ZM98.7288 221L101.789 194.432H106.109L112.553 215.708L118.961 194.432H123.281L126.413 221H122.093L119.645 200.12L120.365 200.192L114.605 221H110.429L104.597 200.192L105.353 200.156L103.013 221H98.7288ZM128.976 221L137.616 194.432H143.232L151.872 221H147.228L145.176 214.7H135.564L133.548 221H128.976ZM136.608 210.704H144.096L140.352 198.248L136.608 210.704Z" fill="#E1EFE6"/>
<defs>
<clipPath id="clip0_131_2">
<rect width="99" height="148" fill="white" transform="translate(49 25)"/>
</clipPath>
</defs>
</svg>
